<?xml version="1.0" encoding="UTF-8"?>
<svg id="b" data-name="Layer 2" xmlns="http://www.w3.org/2000/svg" width="668.164" height="526.008" viewBox="0 0 668.164 526.008">
  <g id="c" data-name="1 SECTION">
    <g opacity=".72">
      <path d="M648.905,276.935c-6.942,3.767-13.606,3.33-14.865,3.327-137.264-.371-434.012,7.017-599,32.094-7.676,1.167-27.722,2.505-33.373-7.998-5.611-10.43,3.581-32.057,18.089-39.607,7.009-3.647,13.688-2.867,14.925-3.071,120.487-19.837,407.512-38.324,598.165-32.094,7.698.252,27.741-3.022,33.551,7.422,5.731,10.302-3.105,32.121-17.492,39.927Z" fill="#e4e4e4" opacity=".09" stroke-width="0"/>
      <path d="M588.883,335.362c-.247-48.349-3.496-96.931-12.509-143.571-10.853-56.166-27.943-120.199-67.473-161.994-14.408-15.234-32.536-26.471-53.09-28.874-85.262-9.967-154.196,62.723-204.715,124.871-15.033,18.491-35.164,48.516-73.987,109.92,0,0-106.013,167.67-90.472,247.127.839,4.302,2.382,8.727,2.388,8.74,4.255,14.774,15.729,24.124,15.729,24.125.404.329.701.559.778.62,16,12.468,41.366,12.937,48.677,1.167,4.399-7.08,1.687-16.81.474-21.044-6.79-23.708,1.302-51.954,7.898-75.07,6.706-23.509,15.407-46.376,25.089-68.692,22.045-50.818,49.292-99.325,80.22-144.701,27.964-41.024,59.383-81.267,97.367-112.505,11.51-9.466,23.795-18.145,37.139-24.495,20.61-10.401,37.782-11.933,52.089-7.27,36.2,11.798,52.405,68.477,59.184,94.312,20.391,77.727,19.203,193.986,19.502,258.065.008,1.851-.18,8.409,3.537,14.867,8.299,14.414,31.452,23.234,42.441,17.489,5.54-2.897,6.767-10.212,7.862-33.522,1.23-26.206,2.01-52.849,1.873-79.564Z" fill="#e4e4e4" opacity=".09" stroke-width="0"/>
    </g>
  </g>
</svg>