<?xml version="1.0" encoding="UTF-8"?>
<svg id="b" data-name="Layer 2" xmlns="http://www.w3.org/2000/svg" width="103.058" height="98.435" viewBox="0 0 103.058 98.435">
  <g id="c" data-name="Boxes">
    <g>
      <g>
        <path d="M28.589,96.935c-6.073,0-11.378-3.225-12.9-7.841-.272-.825-.129-1.712.392-2.432.633-.875,1.731-1.397,2.939-1.397h17.451v-3.936H12.48c-6.054,0-10.979-4.926-10.979-10.98V26.887c0-6.054,4.925-10.979,10.979-10.979h72.669c6.054,0,10.98,4.926,10.98,10.979v43.462c0,6.055-4.926,10.98-10.98,10.98h-25.449v3.936h17.451c1.208,0,2.306.522,2.939,1.397.521.72.664,1.606.393,2.432-1.523,4.616-6.828,7.841-12.901,7.841H28.589Z" fill="#414141" stroke-width="0"/>
        <path d="M85.149,17.407c5.236,0,9.48,4.244,9.48,9.48v43.462c0,5.235-4.244,9.48-9.48,9.48h-26.949v6.936h18.951c1.28,0,2.218.915,1.907,1.859-1.32,4.003-6.05,6.81-11.476,6.81H28.589c-5.425,0-10.156-2.807-11.476-6.81-.311-.944.627-1.859,1.907-1.859h18.951v-6.936H12.48c-5.236,0-9.48-4.244-9.48-9.48V26.887c0-5.236,4.244-9.48,9.48-9.48h72.669M85.149,14.407H12.48C5.598,14.407,0,20.005,0,26.887v43.462c0,6.881,5.598,12.48,12.48,12.48h22.491v.936h-15.951c-1.688,0-3.241.755-4.155,2.019-.806,1.115-1.025,2.493-.601,3.78,1.722,5.223,7.613,8.871,14.325,8.871h38.993c6.712,0,12.602-3.648,14.325-8.871.425-1.287.206-2.665-.601-3.78-.914-1.264-2.467-2.019-4.155-2.019h-15.951v-.936h23.949c6.881,0,12.48-5.598,12.48-12.48V26.887c0-6.881-5.598-12.48-12.48-12.48h0Z" fill="#fff" stroke-width="0"/>
      </g>
      <rect x="10.054" y="23.507" width="77.522" height="50.222" rx="5.421" ry="5.421" fill="#fff" stroke-width="0"/>
      <rect x="31.627" y="30.932" width="19.483" height="19.619" rx="1.666" ry="1.666" fill="#414141" stroke-width="0"/>
      <g>
        <circle cx="29.07" cy="54.058" r="12.223" fill="#0883ba" stroke-width="0"/>
        <path d="M29.069,43.335c5.922,0,10.723,4.801,10.723,10.723s-4.801,10.723-10.723,10.723-10.723-4.801-10.723-10.723,4.801-10.723,10.723-10.723M29.069,40.335c-7.567,0-13.723,6.156-13.723,13.723s6.156,13.723,13.723,13.723,13.723-6.156,13.723-13.723-6.156-13.723-13.723-13.723h0Z" fill="#fff" stroke-width="0"/>
      </g>
      <g>
        <g>
          <path d="M79.64,41.848c-2.475,0-5.648-2.168-5.825-4.699-.04-.566.064-1.132.31-1.679,1.599-3.615,3.189-7.228,4.779-10.84,2.789-6.336,5.578-12.672,8.401-18.992,1.055-2.363,3.208-3.829,6.063-4.129l.135-.008h.157c2.96,0,5.284,1.234,6.719,3.572,1.591,2.592,1.582,5.391-.026,7.881-3.4,5.267-6.815,10.523-10.23,15.78-2.477,3.814-4.954,7.628-7.426,11.445-.365.581-.83,1.015-1.387,1.294-.493.248-1.055.374-1.671.374Z" fill="#414141" stroke-width="0"/>
          <path d="M93.661,3c2.403,0,4.251.92,5.441,2.859,1.252,2.039,1.315,4.233-.008,6.283-5.866,9.087-11.776,18.145-17.655,27.223-.054.083-.299.517-.801.77-.293.147-.633.214-.998.214-1.81,0-4.213-1.649-4.329-3.303-.035-.502.15-.888.188-.973,4.396-9.939,8.742-19.9,13.175-29.822.92-2.059,2.757-3.028,4.851-3.248.045,0,.091,0,.136,0M93.661,0h-.179s-.135.003-.135.003l-.135.014c-3.41.358-5.994,2.137-7.277,5.008-2.818,6.307-5.645,12.732-8.38,18.946-1.598,3.63-3.195,7.26-4.799,10.887-.347.773-.494,1.58-.437,2.396.24,3.432,4.133,6.094,7.321,6.094.852,0,1.641-.18,2.345-.534.808-.406,1.476-1.025,1.984-1.838,2.441-3.77,4.9-7.555,7.359-11.341,3.434-5.286,6.867-10.571,10.286-15.867,1.91-2.959,1.926-6.414.044-9.48-1.723-2.806-4.488-4.289-7.997-4.289h0Z" fill="#fff" stroke-width="0"/>
        </g>
        <path d="M67.685,60.433c-2.634.347-5.034-.479-7.027-2.422-1.504-1.466-1.304-3.621.574-4.523,2.983-1.433,4.345-3.492,4.359-6.95.018-4.664,5.777-7.558,10.046-5.342,3.6,1.869,5.373,5.982,4.27,9.904-1.502,5.34-6.226,8.988-12.222,9.333Z" fill="#0883ba" stroke-width="0"/>
      </g>
    </g>
  </g>
</svg>