<?xml version="1.0" encoding="UTF-8"?>
<svg id="Layer_2" data-name="Layer 2" xmlns="http://www.w3.org/2000/svg" viewBox="0 0 171.75 164.04">
  <defs>
    <style>
      .cls-1 {
        fill: #0c82b9;
      }

      .cls-1, .cls-2, .cls-3 {
        stroke-width: 0px;
      }

      .cls-2 {
        fill: #fff;
      }

      .cls-3 {
        fill: #414242;
      }
    </style>
  </defs>
  <g id="Layer_2-2" data-name="Layer 2">
    <g>
      <g>
        <path class="cls-3" d="M47.64,161.54c-10.12,0-18.96-5.37-21.5-13.07-.45-1.37-.22-2.85.65-4.05,1.05-1.46,2.89-2.33,4.9-2.33h29.08v-6.56H20.8c-10.09,0-18.3-8.21-18.3-18.3V44.81c0-10.09,8.21-18.3,18.3-18.3h121.11c10.09,0,18.3,8.21,18.3,18.3v72.43c0,10.09-8.21,18.3-18.3,18.3h-42.41v6.56h29.08c2.01,0,3.84.87,4.9,2.33.87,1.2,1.11,2.68.65,4.05-2.54,7.69-11.38,13.07-21.5,13.07H47.64Z"/>
        <path class="cls-2" d="M141.9,29.01c8.73,0,15.8,7.07,15.8,15.8v72.43c0,8.73-7.07,15.8-15.8,15.8h-44.91v11.56h31.58c2.13,0,3.7,1.52,3.18,3.1-2.2,6.67-10.08,11.35-19.12,11.35H47.64c-9.04,0-16.92-4.68-19.12-11.35-.52-1.57,1.05-3.1,3.18-3.1h31.58v-11.56H20.8c-8.73,0-15.8-7.07-15.8-15.8V44.81c0-8.73,7.07-15.8,15.8-15.8h121.11M141.9,24.01H20.8C9.33,24.01,0,33.34,0,44.81v72.43c0,11.47,9.33,20.8,20.8,20.8h37.48v1.56h-26.58c-2.81,0-5.4,1.26-6.92,3.36-1.34,1.86-1.71,4.15-1,6.3,2.87,8.7,12.69,14.78,23.87,14.78h64.98c11.19,0,21-6.08,23.87-14.78.71-2.15.34-4.44-1-6.3-1.52-2.11-4.11-3.36-6.92-3.36h-26.58v-1.56h39.91c11.47,0,20.8-9.33,20.8-20.8V44.81c0-11.47-9.33-20.8-20.8-20.8h0Z"/>
      </g>
      <rect class="cls-2" x="16.75" y="39.17" width="129.19" height="83.7" rx="5.42" ry="5.42"/>
      <rect class="cls-3" x="52.71" y="51.55" width="32.47" height="32.7" rx="1.67" ry="1.67"/>
      <g>
        <path class="cls-1" d="M48.45,110.46c-11.23,0-20.37-9.14-20.37-20.37s9.14-20.37,20.37-20.37,20.37,9.14,20.37,20.37-9.14,20.37-20.37,20.37Z"/>
        <path class="cls-2" d="M48.45,72.22c9.87,0,17.87,8,17.87,17.87s-8,17.87-17.87,17.87-17.87-8-17.87-17.87,8-17.87,17.87-17.87M48.45,67.22c-12.61,0-22.87,10.26-22.87,22.87s10.26,22.87,22.87,22.87,22.87-10.26,22.87-22.87-10.26-22.87-22.87-22.87h0Z"/>
      </g>
      <g>
        <g>
          <path class="cls-3" d="M132.72,69.74c-4.12,0-9.41-3.61-9.71-7.83-.07-.95.11-1.89.52-2.8,2.68-6.06,5.35-12.12,8.01-18.18,4.55-10.34,9.26-21.04,13.95-31.54,1.76-3.94,5.35-6.38,10.1-6.88h.11s.37-.02.37-.02c4.93,0,8.81,2.06,11.2,5.96,2.65,4.32,2.64,8.98-.04,13.13-5.69,8.81-11.4,17.61-17.12,26.4-4.11,6.32-8.21,12.64-12.31,18.97-.6.96-1.38,1.69-2.31,2.16-.82.41-1.76.62-2.79.62Z"/>
          <path class="cls-2" d="M156.09,5c4,0,7.08,1.53,9.07,4.76,2.09,3.4,2.19,7.06-.01,10.47-9.78,15.14-19.63,30.24-29.42,45.37-.09.14-.5.86-1.33,1.28-.49.25-1.06.36-1.66.36-3.02,0-7.02-2.75-7.21-5.51-.06-.84.25-1.48.31-1.62,7.33-16.56,14.57-33.16,21.96-49.7,1.53-3.43,4.59-5.05,8.08-5.41.08,0,.15,0,.23,0M156.09,0h-.3s-.23,0-.23,0l-.22.02c-5.68.6-9.99,3.56-12.13,8.35-4.7,10.51-9.41,21.22-13.97,31.58-2.66,6.05-5.32,12.1-8,18.14-.58,1.29-.82,2.63-.73,3.99.4,5.72,6.89,10.16,12.2,10.16,1.42,0,2.73-.3,3.91-.89,1.35-.68,2.46-1.71,3.31-3.07,4.07-6.28,8.16-12.59,12.26-18.89,5.63-8.66,11.44-17.62,17.14-26.45,3.18-4.93,3.21-10.69.07-15.8-2.87-4.68-7.48-7.15-13.33-7.15h0Z"/>
        </g>
        <path class="cls-1" d="M112.8,100.71c-4.39.58-8.39-.8-11.71-4.04-2.51-2.44-2.17-6.03.96-7.54,4.97-2.39,7.24-5.82,7.26-11.58.03-7.77,9.63-12.6,16.74-8.9,6,3.11,8.95,9.97,7.12,16.5-2.5,8.9-10.38,14.98-20.37,15.55Z"/>
      </g>
    </g>
  </g>
</svg>