<?xml version="1.0" encoding="UTF-8"?>
<svg id="b" data-name="Layer 2" xmlns="http://www.w3.org/2000/svg" width="41.615" height="41.615" viewBox="0 0 41.615 41.615">
  <g id="c" data-name="6 ΣΕΨΤΙΟΝ">
    <rect x="0" y="0" width="41.615" height="41.615" rx="20.807" ry="20.807" fill="#262626" stroke-width="0"/>
    <path d="M17.305,11.913c-.296-.715-1.076-1.095-1.822-.892l-3.383.923c-.669.185-1.134.792-1.134,1.484,0,9.51,7.711,17.22,17.22,17.22.692,0,1.299-.465,1.484-1.134l.923-3.383c.204-.746-.177-1.526-.892-1.822l-3.69-1.538c-.627-.261-1.353-.081-1.78.446l-1.553,1.895c-2.706-1.28-4.897-3.471-6.177-6.177l1.895-1.549c.527-.431.707-1.153.446-1.78l-1.538-3.69v-.004Z" fill="#e4e4e4" stroke-width="0"/>
  </g>
</svg>