<?xml version="1.0" encoding="UTF-8"?>
<svg id="Layer_2" data-name="Layer 2" xmlns="http://www.w3.org/2000/svg" viewBox="0 0 185.11 172.7">
  <defs>
    <style>
      .cls-1 {
        fill: #0c82b9;
      }

      .cls-1, .cls-2, .cls-3 {
        stroke-width: 0px;
      }

      .cls-2 {
        fill: #fff;
      }

      .cls-3 {
        fill: #414242;
      }
    </style>
  </defs>
  <g id="Layer_2-2" data-name="Layer 2">
    <g>
      <g>
        <g>
          <path class="cls-3" d="M156.09,112.58c-.6,0-1.2-.08-1.78-.22l-77.2-19.75c-3.82-.98-6.14-4.89-5.16-8.71L91.43,7.77c.81-3.17,3.66-5.39,6.93-5.39.6,0,1.2.08,1.78.22l77.2,19.75c1.85.47,3.41,1.64,4.38,3.29.97,1.65,1.25,3.57.78,5.42l-19.48,76.12c-.81,3.17-3.66,5.39-6.93,5.39Z"/>
          <path class="cls-2" d="M98.36,4.77c.39,0,.79.05,1.19.15l77.2,19.75c2.55.65,4.09,3.25,3.44,5.81l-19.48,76.12c-.55,2.16-2.49,3.59-4.62,3.59-.39,0-.79-.05-1.19-.15l-77.2-19.75c-2.55-.65-4.09-3.25-3.44-5.81L93.74,8.36c.55-2.16,2.49-3.59,4.62-3.59M98.36,0c-4.36,0-8.16,2.95-9.24,7.18l-19.48,76.12c-1.3,5.1,1.78,10.31,6.88,11.61l77.2,19.75c.78.2,1.57.3,2.37.3,4.36,0,8.16-2.95,9.24-7.18l19.48-76.12c.63-2.47.26-5.04-1.04-7.23-1.3-2.19-3.38-3.75-5.85-4.38L100.73.3c-.78-.2-1.57-.3-2.37-.3h0Z"/>
        </g>
        <path class="cls-2" d="M94.66,21.25h67.63c1.68,0,3.04,1.36,3.04,3.04v59.67h-73.71V24.29c0-1.68,1.36-3.04,3.04-3.04Z" transform="translate(17.05 -30.2) rotate(14.35)"/>
        <circle class="cls-1" cx="119.32" cy="35.15" r="8.54"/>
        <path class="cls-1" d="M152.34,80.95l-9.36-35.97c-.29-1.11-1.67-1.49-2.48-.68l-15.56,16.99c-1.27,1.25-3.39.9-4.19-.69l-2.39-6.88c-1-1.98-3.5-2.67-5.38-1.48l-15.88,10.04c-2.77,1.75-2.14,5.95,1.01,6.82l24.36,6.72c.85.24,1.67.16,2.38-.12l25.64,7.07c1.1.3,2.12-.7,1.83-1.81Z"/>
      </g>
      <g>
        <path class="cls-3" d="M19.85,170.31c-9.63,0-17.46-7.83-17.46-17.46v-58.85c0-9.63,7.83-17.46,17.46-17.46h14.85c2.74-7.88,10.16-13.24,18.65-13.24h37.59c8.48,0,15.9,5.36,18.65,13.24h14.85c9.63,0,17.46,7.83,17.46,17.46v58.85c0,9.63-7.83,17.46-17.46,17.46H19.85Z"/>
        <path class="cls-2" d="M90.93,65.69c8.17,0,15,5.64,16.87,13.24h16.63c8.33,0,15.08,6.75,15.08,15.08v58.85c0,8.33-6.75,15.08-15.08,15.08H19.85c-8.33,0-15.08-6.75-15.08-15.08v-58.85c0-8.33,6.75-15.08,15.08-15.08h16.63c1.86-7.6,8.7-13.24,16.87-13.24h37.59M90.93,60.92h-37.59c-8.92,0-16.79,5.29-20.27,13.24h-13.23c-10.94,0-19.85,8.9-19.85,19.85v58.85c0,10.94,8.9,19.85,19.85,19.85h104.58c10.94,0,19.85-8.9,19.85-19.85v-58.85c0-10.94-8.9-19.85-19.85-19.85h-13.23c-3.48-7.95-11.35-13.24-20.27-13.24h0Z"/>
      </g>
      <circle class="cls-2" cx="123.05" cy="94.08" r="5.73"/>
      <circle class="cls-2" cx="75.6" cy="122.32" r="31.43"/>
      <circle class="cls-1" cx="75.6" cy="122.32" r="24.2"/>
      <path class="cls-2" d="M16.26,95.61h5.96c2.11,0,3.83,1.72,3.83,3.83v46.19c0,2.11-1.72,3.83-3.83,3.83h-5.96c-.53,0-.95-.43-.95-.95v-51.94c0-.53.43-.95.95-.95Z"/>
    </g>
  </g>
</svg>