<?xml version="1.0" encoding="UTF-8"?>
<svg id="b" data-name="Layer 2" xmlns="http://www.w3.org/2000/svg" width="116.003" height="108.2" viewBox="0 0 116.003 108.2">
  <g id="c" data-name="Boxes">
    <g>
      <g>
        <g>
          <path d="M96.866,70.015c-.523,0-1.049-.066-1.56-.197l-45.107-11.541c-3.351-.857-5.38-4.281-4.522-7.633L57.044,6.219c.711-2.778,3.208-4.719,6.073-4.719.523,0,1.049.066,1.56.197l45.106,11.541c3.351.856,5.38,4.281,4.522,7.633l-11.366,44.424c-.712,2.779-3.209,4.72-6.073,4.72Z" fill="#414141" stroke-width="0"/>
          <path d="M63.118,3c.392,0,.79.049,1.187.15l45.107,11.541c2.554.654,4.095,3.254,3.441,5.808l-11.367,44.424c-.552,2.157-2.493,3.591-4.621,3.591-.392,0-.79-.049-1.187-.15l-45.107-11.541c-2.554-.653-4.095-3.254-3.441-5.808L58.497,6.591c.552-2.157,2.493-3.591,4.621-3.591M63.118,0h0c-3.551,0-6.646,2.405-7.527,5.848l-11.367,44.425c-.515,2.012-.215,4.103.843,5.889,1.058,1.786,2.749,3.054,4.761,3.568l45.107,11.541c.632.162,1.282.244,1.93.244,3.551,0,6.646-2.405,7.527-5.848l11.367-44.424c1.062-4.153-1.452-8.395-5.604-9.458L65.048.244c-.632-.162-1.282-.244-1.93-.244h0Z" fill="#fff" stroke-width="0"/>
        </g>
        <path d="M60.643,12.975h40.267c1.677,0,3.039,1.362,3.039,3.039v36.388h-46.344V16.014c0-1.677,1.362-3.039,3.039-3.039Z" transform="translate(10.624 -19.003) rotate(14.352)" fill="#fff" stroke-width="0"/>
        <circle cx="75.022" cy="21.714" r="5.367" fill="#0883ba" stroke-width="0"/>
        <path d="M95.783,50.512l-5.883-22.616c-.181-.696-1.048-.935-1.56-.43l-9.784,10.681c-.798.786-2.131.569-2.637-.431l-1.501-4.327c-.631-1.247-2.199-1.679-3.381-.932l-9.982,6.311c-1.739,1.099-1.347,3.741.636,4.288l15.318,4.225c.536.148,1.049.1,1.497-.078l16.124,4.447c.693.191,1.334-.44,1.153-1.136Z" fill="#0883ba" stroke-width="0"/>
      </g>
      <g>
        <path d="M12.48,106.7c-6.054,0-10.979-4.926-10.979-10.979v-37.001c0-6.054,4.926-10.979,10.979-10.979h9.339c1.725-4.956,6.388-8.324,11.723-8.324h23.633c5.334,0,9.998,3.368,11.724,8.324h9.338c6.054,0,10.979,4.926,10.979,10.979v37.001c0,6.054-4.926,10.979-10.979,10.979H12.48Z" fill="#414141" stroke-width="0"/>
        <path d="M57.174,40.917c5.136,0,9.433,3.548,10.604,8.323h10.458c5.236,0,9.48,4.244,9.48,9.48v37.001c0,5.236-4.244,9.48-9.48,9.48H12.48c-5.236,0-9.48-4.244-9.48-9.48v-37.001c0-5.236,4.244-9.48,9.48-9.48h10.458c1.171-4.776,5.468-8.323,10.604-8.323h23.633M57.174,37.917h-23.633c-5.611,0-10.559,3.324-12.745,8.323h-8.317c-6.881,0-12.48,5.598-12.48,12.48v37.001c0,6.881,5.598,12.48,12.48,12.48h65.756c6.881,0,12.48-5.598,12.48-12.48v-37.001c0-6.881-5.598-12.48-12.48-12.48h-8.317c-2.186-4.999-7.135-8.323-12.745-8.323h0Z" fill="#fff" stroke-width="0"/>
      </g>
      <circle cx="77.367" cy="58.769" r="3.605" fill="#fff" stroke-width="0"/>
      <circle cx="47.532" cy="76.522" r="19.761" fill="#fff" stroke-width="0"/>
      <circle cx="47.532" cy="76.522" r="15.213" fill="#0883ba" stroke-width="0"/>
      <path d="M10.575,59.733h1.973c2.113,0,3.828,1.715,3.828,3.828v26.197c0,2.113-1.715,3.828-3.828,3.828h-1.973c-.525,0-.952-.427-.952-.952v-31.949c0-.525.427-.952.952-.952Z" fill="#fff" stroke-width="0"/>
    </g>
  </g>
</svg>