<?xml version="1.0" encoding="UTF-8"?>
<svg id="Layer_2" data-name="Layer 2" xmlns="http://www.w3.org/2000/svg" xmlns:xlink="http://www.w3.org/1999/xlink" viewBox="0 0 208.32 197.61">
  <defs>
    <style>
      .cls-1 {
        fill: #b7b7b7;
      }

      .cls-1, .cls-2, .cls-3, .cls-4, .cls-5, .cls-6, .cls-7, .cls-8, .cls-9 {
        stroke-width: 0px;
      }

      .cls-10 {
        clip-path: url(#clippath);
      }

      .cls-2, .cls-11 {
        fill: none;
      }

      .cls-3 {
        fill: #0067a6;
      }

      .cls-4 {
        fill: #727272;
      }

      .cls-5 {
        fill: #8dbb22;
      }

      .cls-6 {
        fill: #1995b8;
      }

      .cls-12 {
        opacity: .33;
      }

      .cls-13 {
        opacity: .48;
      }

      .cls-11 {
        stroke: #414141;
        stroke-miterlimit: 10;
        stroke-width: .6px;
      }

      .cls-7 {
        fill: #9b9b9b;
      }

      .cls-8 {
        fill: #414141;
      }

      .cls-9 {
        fill: #fff;
      }
    </style>
    <clipPath id="clippath">
      <rect class="cls-2" x="99.87" y="105.03" width="63.8" height="70.61"/>
    </clipPath>
  </defs>
  <g id="Layer_1-2" data-name="Layer 1">
    <g>
      <rect class="cls-8" width="208.32" height="197.61" rx="29.33" ry="29.33"/>
      <g>
        <rect class="cls-9" x="50.61" y="17.93" width="113.07" height="159.91"/>
        <g>
          <path class="cls-5" d="M68.78,48.72c1.34.07,2.66.1,3.97.1,2.29,0,4.57-.1,6.99-.3.61-.05,1.14-.3,1.53-.69.39-.39.65-.93.71-1.55.2-2.19.32-4.38.33-6.57,0-1.51-.04-3.02-.15-4.53-.07.02-.15.05-.22.07h-.01c-.11.04-.22.08-.33.11h0s0,0,0,0c-.11.04-.22.08-.32.12h0s0,0,0,0c-.11.04-.21.08-.32.12h0s0,0,0,0c-.1.04-.21.08-.31.13h-.01c-.1.05-.21.09-.31.14h0c-.1.05-.21.09-.31.14h-.01c-.1.05-.2.1-.3.15h0c-.1.05-.2.1-.3.15h-.01c-.1.06-.2.11-.3.16h0c-.1.06-.2.11-.29.16h-.01c-.1.06-.19.12-.29.17h-.01c-.1.06-.19.12-.29.18h0c-4.63,2.83-7.87,7.54-9.38,11.72Z"/>
          <path class="cls-3" d="M63.21,40.67c.04,1.87.15,3.74.32,5.6.06.62.31,1.16.71,1.55.39.39.92.64,1.53.69.95.08,1.88.14,2.79.19-.67-2.83-2.51-5.5-5.35-8.03Z"/>
          <path class="cls-6" d="M72.76,30.61c-2.29,0-4.57.1-6.99.3-.61.05-1.13.3-1.51.68-.4.4-.66.94-.72,1.57-.24,2.19-.34,4.37-.33,6.55,0,.17,0,.33,0,.5,2.23-.06,3.94.79,5.14,2.55,1.6-2.23,4.43-4.78,7.71-6.36h0s.13-.06.13-.06h.01c.08-.04.16-.08.24-.12h.02c.08-.04.16-.08.24-.11h.02c.08-.04.17-.08.25-.11h0c.08-.04.17-.07.26-.1h0s0,0,0,0c.17-.07.34-.13.51-.19h.01c.08-.03.17-.06.25-.09h.02c.08-.03.17-.06.25-.09h.02c.08-.03.17-.06.25-.08h.02c.09-.03.17-.05.26-.08h.01c.09-.03.17-.05.26-.07h.02c.09-.03.17-.05.26-.07h0s0,0,0,0c.09-.02.17-.04.26-.06h0c.09-.02.17-.04.26-.05h.02c.09-.02.17-.03.26-.05h.01c.09-.02.17-.03.26-.04h.02c.09-.01.17-.03.26-.04h.02c.09-.01.17-.02.26-.03h.02c.09,0,.17-.02.26-.02h.01s0,0,0,0c.28.02.56.05.84.08-.05-.62-.1-1.24-.17-1.86-.07-.63-.33-1.17-.72-1.57-.39-.39-.91-.63-1.51-.68-2.42-.2-4.7-.3-6.99-.3Z"/>
        </g>
        <rect class="cls-6" x="112.55" y="34.67" width="36.76" height="3.71"/>
        <rect class="cls-8" x="119.42" y="40.91" width="29.89" height="3.71"/>
        <rect class="cls-5" x="128.23" y="47.15" width="21.09" height="3.71"/>
        <rect class="cls-8" x="63.77" y="165.57" width="22.16" height="2.24" transform="translate(149.7 333.38) rotate(-180)"/>
        <rect class="cls-8" x="63.77" y="161.81" width="15.93" height="2.24" transform="translate(143.47 325.86) rotate(-180)"/>
        <line class="cls-11" x1="63.21" y1="62.7" x2="149.32" y2="62.7"/>
        <line class="cls-11" x1="63.21" y1="65.52" x2="149.32" y2="65.52"/>
        <line class="cls-11" x1="63.21" y1="68.35" x2="149.32" y2="68.35"/>
        <line class="cls-11" x1="63.21" y1="71.17" x2="149.32" y2="71.17"/>
        <line class="cls-11" x1="63.21" y1="73.99" x2="149.32" y2="73.99"/>
        <line class="cls-11" x1="63.21" y1="76.81" x2="149.32" y2="76.81"/>
        <line class="cls-11" x1="63.21" y1="79.63" x2="149.32" y2="79.63"/>
        <line class="cls-11" x1="63.21" y1="82.46" x2="149.32" y2="82.46"/>
        <line class="cls-11" x1="63.21" y1="85.28" x2="149.32" y2="85.28"/>
        <line class="cls-11" x1="63.21" y1="88.1" x2="149.32" y2="88.1"/>
        <line class="cls-11" x1="63.21" y1="90.92" x2="149.32" y2="90.92"/>
        <line class="cls-11" x1="63.21" y1="93.74" x2="149.32" y2="93.74"/>
        <line class="cls-11" x1="63.21" y1="96.57" x2="149.32" y2="96.57"/>
        <line class="cls-11" x1="63.21" y1="99.39" x2="149.32" y2="99.39"/>
        <line class="cls-11" x1="63.21" y1="102.21" x2="149.32" y2="102.21"/>
        <line class="cls-11" x1="63.21" y1="105.03" x2="149.32" y2="105.03"/>
        <line class="cls-11" x1="63.21" y1="107.86" x2="149.32" y2="107.86"/>
        <line class="cls-11" x1="63.21" y1="110.68" x2="149.32" y2="110.68"/>
        <line class="cls-11" x1="63.21" y1="113.5" x2="149.32" y2="113.5"/>
        <line class="cls-11" x1="63.21" y1="116.32" x2="149.32" y2="116.32"/>
        <line class="cls-11" x1="63.21" y1="119.14" x2="149.32" y2="119.14"/>
        <line class="cls-11" x1="63.21" y1="121.97" x2="149.32" y2="121.97"/>
        <line class="cls-11" x1="63.21" y1="124.79" x2="149.32" y2="124.79"/>
        <line class="cls-11" x1="63.21" y1="127.61" x2="149.32" y2="127.61"/>
        <line class="cls-11" x1="63.21" y1="130.43" x2="149.32" y2="130.43"/>
        <line class="cls-11" x1="63.21" y1="133.25" x2="149.32" y2="133.25"/>
        <line class="cls-11" x1="63.21" y1="136.08" x2="149.32" y2="136.08"/>
        <line class="cls-11" x1="63.21" y1="138.9" x2="149.32" y2="138.9"/>
        <line class="cls-11" x1="63.21" y1="141.72" x2="149.32" y2="141.72"/>
        <g class="cls-13">
          <g class="cls-10">
            <g class="cls-12">
              <path class="cls-1" d="M124.05,174.37c4.74.23,9.39.35,14.05.35,8.09,0,16.17-.35,24.71-1.05,2.17-.18,4.04-1.06,5.42-2.44,1.4-1.4,2.3-3.3,2.5-5.49.71-7.75,1.14-15.49,1.17-23.22.03-5.33-.14-10.67-.52-16.02-.26.08-.53.17-.79.25h-.05c-.39.14-.77.27-1.16.4h0s-.01,0-.01,0c-.38.13-.77.27-1.15.41h0s0,0,0,0c-.37.14-.75.28-1.12.43h-.03s-.02.02-.02.02c-.37.15-.74.3-1.1.45l-.04.02c-.37.15-.73.31-1.1.47h-.02c-.36.17-.73.33-1.09.5l-.04.02c-.36.17-.71.34-1.06.51l-.03.02c-.35.17-.7.35-1.05.53l-.04.02c-.35.18-.7.36-1.05.55h-.02c-.35.2-.69.39-1.04.58l-.04.02c-.34.19-.68.39-1.01.58l-.04.02c-.34.2-.68.4-1.02.61h0c-16.37,10.02-27.83,26.67-33.19,41.45Z"/>
              <path class="cls-4" d="M104.34,145.91c.13,6.6.53,13.21,1.13,19.82.2,2.19,1.1,4.09,2.5,5.49,1.38,1.38,3.25,2.26,5.42,2.44,3.35.28,6.64.5,9.88.66-2.37-10.02-8.89-19.46-18.92-28.42Z"/>
              <path class="cls-7" d="M138.1,110.33c-8.09,0-16.17.35-24.71,1.05-2.15.18-3.99,1.05-5.35,2.42-1.4,1.4-2.32,3.33-2.56,5.56-.85,7.74-1.21,15.46-1.17,23.16,0,.59,0,1.18.02,1.77,7.87-.21,13.93,2.79,18.17,9.02,5.65-7.87,15.68-16.92,27.28-22.48h0s.47-.22.47-.22l.05-.02c.29-.13.57-.27.86-.39l.07-.03c.28-.13.57-.25.85-.38l.07-.03c.29-.13.59-.25.88-.37h.01c.3-.13.6-.25.9-.37h.02s.03-.02.03-.02c.6-.24,1.21-.46,1.82-.68h.04c.3-.12.6-.22.9-.32l.05-.02c.3-.1.59-.19.89-.29l.06-.02c.3-.09.59-.18.89-.27l.06-.02c.3-.09.6-.17.9-.25h.04c.3-.09.61-.17.91-.25h.05c.3-.09.61-.16.92-.23h.01s.02,0,.02,0c.31-.07.62-.14.93-.2h.02c.31-.07.61-.13.92-.18h.07c.3-.07.61-.12.91-.17h.05c.3-.06.61-.1.91-.14h.07c.3-.05.61-.09.91-.12h.05c.31-.04.61-.07.92-.1h.06c.31-.03.61-.06.92-.08h.04s.01,0,.02,0c1,.08,1.99.18,2.97.3-.16-2.19-.37-4.39-.61-6.59-.25-2.22-1.16-4.15-2.56-5.56-1.36-1.36-3.2-2.24-5.35-2.42-8.54-.7-16.62-1.05-24.71-1.05Z"/>
            </g>
          </g>
        </g>
      </g>
    </g>
  </g>
</svg>