<?xml version="1.0" encoding="UTF-8"?>
<svg xmlns="http://www.w3.org/2000/svg" version="1.1" viewBox="0 0 208.3 197.6">
  <defs>
    <style>
      .cls-1 {
        fill: #414141;
      }

      .cls-2 {
        fill: #e4e4e4;
      }

      .cls-3 {
        isolation: isolate;
      }

      .cls-4 {
        fill: #fff;
      }

      .cls-5 {
        fill: #0067a6;
      }

      .cls-6 {
        fill: #1995b8;
      }

      .cls-7 {
        fill: #8dbb22;
      }
    </style>
  </defs>
  <!-- Generator: Adobe Illustrator 28.6.0, SVG Export Plug-In . SVG Version: 1.2.0 Build 709)  -->
  <g>
    <g id="Layer_2">
      <g id="Layer_1-2">
        <g>
          <rect class="cls-1" y="0" width="208.3" height="197.6" rx="29.3" ry="29.3"/>
          <g>
            <path class="cls-6" d="M115.6,34.5c-2.4-2.6-5.8-4-10.2-4s-1.4,0-2.1,0c-10,.9-17,16.1-17.8,38.9h0c0,.1,1.2.2,1.2.2h0c.8-21.9,7.5-37,16.7-37.9.7,0,1.3,0,2,0,4,0,7.2,1.2,9.4,3.6,4.3,4.8,5.1,14.1,2.4,28.4h0c0,.1,1.2.4,1.2.4h0c2.8-14.9,1.9-24.5-2.7-29.6h0Z"/>
            <polygon class="cls-2" points="48.9 69.7 148.9 51.1 143.8 55.2 143.8 57.2 140.7 57.7 64.1 71 48.9 69.7"/>
            <polygon class="cls-6" points="159 54.6 143.8 55.2 143.8 57.2 159 54.6"/>
            <polygon class="cls-6" points="148.9 51.1 148.9 55 143.8 55.2 148.9 51.1"/>
            <polygon class="cls-6" points="66.7 168.1 58.7 138.1 44 160.1 44 160.8 66.7 168.1"/>
            <g>
              <polygon class="cls-6" points="60.8 71.5 64.1 71 48.9 69.7 44 160.1 58.7 138.1 62.3 94 60.8 71.5"/>
              <polygon class="cls-6" points="63.1 84.4 58.7 138.1 66.7 168.1 67.2 168.3 63.1 84.4"/>
            </g>
            <polygon class="cls-4" points="164.4 148.8 67.2 168.3 60.8 71.5 159 54.6 164.4 148.8"/>
            <circle class="cls-6" cx="95.1" cy="74.1" r="1.2"/>
            <circle class="cls-6" cx="125.6" cy="69.2" r="1.2"/>
            <path class="cls-6" d="M124,44.2v-.5c-.6-4.2-3.8-9.2-7.7-11.9-2.3-1.6-4.7-2.4-7.1-2.4s-1.5,0-2.2.2c-7.6,1.6-13.6,9.7-14.3,19-.2,3,.3,11.3,1.7,24.6v1c.1.3.4.5.7.5h0c.2,0,.3,0,.4-.2s.1-.3.1-.4v-1c-1.5-13.2-2-21.4-1.8-24.3.7-8.9,6.4-16.4,13.4-18,.7-.1,1.3-.2,2-.2,2.7,0,5,1.2,6.4,2.2,4.1,2.9,6.7,7.8,7.1,11.1v.5c.7,4.9,2.3,18,2.3,24.9s.3.6.6.6.6-.3.6-.6c0-7-1.6-20.1-2.3-25h0Z"/>
            <g>
              <g>
                <path class="cls-7" d="M108,121.1c2.2-.2,4.4-.5,6.5-.9,3.8-.6,7.5-1.4,11.4-2.5,1-.3,1.8-.9,2.4-1.8.6-.9.9-2.1.8-3.3-.1-4.4-.4-8.9-.8-13.3-.3-3-.7-6.1-1.2-9.1-.1,0-.2.1-.3.2h0c-.2.1-.3.2-.5.3h0c-.2.1-.3.2-.5.3h0c-.2.1-.3.2-.5.3h0c-.2.1-.3.2-.5.4h0c-.2.1-.3.2-.5.4h0c-.2.1-.3.2-.5.4h0c-.2.1-.3.3-.5.4h0c-.2.1-.3.3-.5.4h0c-.2.1-.3.3-.4.4h0c-.2.1-.3.3-.4.4h0c-.2.1-.3.3-.4.4h0c-.2.2-.3.3-.4.4h0c-7,6.9-11.4,17.3-13,26.1h0Z"/>
                <path class="cls-5" d="M97.2,106.5c.4,3.7,1,7.5,1.7,11.2.2,1.2.7,2.2,1.5,2.9.7.7,1.6,1,2.7,1,1.6,0,3.1-.2,4.6-.4-1.7-5.5-5.2-10.4-10.4-14.7Z"/>
                <path class="cls-6" d="M110.9,83.7c-3.8.6-7.5,1.4-11.4,2.5-1,.3-1.8.9-2.3,1.8-.6.9-.9,2.1-.9,3.3,0,4.5.3,8.9.8,13.2,0,.3,0,.7.1,1,3.6-.7,6.6.5,8.9,3.7,2.2-4.9,6.3-10.8,11.4-14.9h0l.2-.2h0c.1-.1.2-.2.4-.3h0c.1-.1.2-.2.4-.3h0c.1-.1.3-.2.4-.3h0c.1,0,.3-.2.4-.3h0c.3-.2.5-.4.8-.5h0c.1,0,.3-.2.4-.3h0c.1,0,.3-.2.4-.2h0c.1,0,.3-.2.4-.2h0c.1,0,.3-.2.4-.2h0c.1,0,.3-.2.4-.2h0c.1,0,.3-.1.4-.2h0c.1,0,.3-.1.4-.2h0c.1,0,.3-.1.4-.2h0c.1,0,.3-.1.4-.2h0c.1,0,.3-.1.4-.2h0c.1,0,.3,0,.4-.2h0c.1,0,.3,0,.4-.1h0c.1,0,.3,0,.4-.1h0c.5,0,.9,0,1.4,0-.2-1.2-.4-2.5-.7-3.7-.2-1.2-.8-2.3-1.5-3-.7-.7-1.6-1-2.6-1-4,.3-7.8.7-11.5,1.3h0Z"/>
              </g>
              <g class="cls-3">
                <g class="cls-3">
                  <path class="cls-1" d="M97.9,137c-.4.3-.8.4-1.3.5-.4,0-.9,0-1.3,0s-.7-.3-1.1-.6c-.3-.3-.6-.6-.8-1.1-.2-.4-.3-.9-.4-1.5,0-.6,0-1.1,0-1.6.1-.5.3-.9.5-1.3.2-.4.6-.7.9-.9.4-.2.8-.4,1.2-.5.4,0,.8,0,1.2,0,.4.1.8.3,1,.6l-.8,1.3c-.2-.2-.3-.3-.6-.4-.2,0-.4,0-.7,0-.2,0-.5.1-.7.3s-.4.3-.5.5c-.1.2-.2.5-.3.7,0,.3,0,.6,0,.9,0,.3.1.6.2.9.1.3.2.5.4.6s.3.3.6.4c.2,0,.4,0,.7,0,.3,0,.5-.2.7-.3.2-.2.3-.4.4-.6l1.1,1c-.2.4-.5.7-.9,1Z"/>
                  <path class="cls-1" d="M103,136.2l-.3-3-2.2.4.3,3-1.4.2-.7-7.1,1.4-.2.3,2.7,2.2-.4-.3-2.7,1.4-.2.7,7.1-1.4.2Z"/>
                  <path class="cls-1" d="M105.6,135.8l-.7-7.1,3.9-.6v1.4c.1,0-2.4.4-2.4.4v1.3c.1,0,2.5-.4,2.5-.4v1.4c.1,0-2.2.4-2.2.4v1.5c.1,0,2.8-.4,2.8-.4v1.5c.1,0-3.9.7-3.9.7Z"/>
                  <path class="cls-1" d="M114.6,134.2c-.4.3-.8.4-1.3.5-.4,0-.9,0-1.3,0-.4-.1-.7-.3-1.1-.6-.3-.3-.6-.6-.8-1.1-.2-.4-.3-.9-.4-1.5,0-.6,0-1.1,0-1.6.1-.5.3-.9.5-1.3.2-.4.6-.7.9-.9.4-.2.8-.4,1.2-.5.4,0,.8,0,1.2,0,.4.1.8.3,1,.6l-.8,1.3c-.2-.2-.3-.3-.6-.4-.2,0-.4,0-.7,0-.2,0-.5.1-.7.3-.2.1-.3.3-.5.5-.1.2-.2.5-.3.7,0,.3,0,.6,0,.9,0,.3.1.6.2.9.1.3.2.5.4.6.2.2.3.3.6.4.2,0,.4,0,.7,0,.3,0,.5-.2.7-.3.2-.2.3-.4.4-.6l1.1,1c-.2.4-.5.7-.9,1Z"/>
                </g>
                <g class="cls-3">
                  <path class="cls-1" d="M119.7,133.5l-2.5-2.9h0s.3,3.3.3,3.3l-1.4.2-.7-7.1,1.4-.2.3,2.9h0s1.8-3.2,1.8-3.2l1.7-.3-2.1,3.7,3,3.4-1.8.3Z"/>
                </g>
                <g class="cls-3">
                  <path class="cls-1" d="M125.7,132.5l-.6-1.3-2.2.4-.3,1.5-1.5.3,1.7-7.5,1.3-.2,3.1,6.7-1.5.3ZM123.6,127.5l-.5,2.5,1.4-.2-1-2.3Z"/>
                  <path class="cls-1" d="M130.8,131.6l-1.5-2.6h-.5c0,0,.3,2.9.3,2.9l-1.4.2-.7-7.1,2.2-.4c.3,0,.5,0,.8,0,.3,0,.5.1.7.2.2.1.4.3.6.6.2.3.2.6.3,1,0,.5,0,.9-.2,1.3s-.4.6-.8.8l1.8,2.8-1.6.3ZM130.2,126.7c0-.2,0-.3-.1-.4,0,0-.1-.2-.2-.2,0,0-.2,0-.3,0-.1,0-.2,0-.3,0h-.7c0,.1.2,1.8.2,1.8h.7c.1-.1.2-.2.3-.2.1,0,.2-.1.3-.2s.2-.2.2-.3c0-.1,0-.3,0-.5Z"/>
                </g>
                <g class="cls-3">
                  <path class="cls-1" d="M136.6,130.6l-2.5-2.9h0s.3,3.3.3,3.3l-1.4.2-.7-7.1,1.4-.2.3,2.9h0s1.8-3.2,1.8-3.2l1.7-.3-2.1,3.7,3,3.4-1.8.3Z"/>
                </g>
              </g>
              <g class="cls-3">
                <g class="cls-3">
                  <path class="cls-1" d="M106.2,144.7c-.2.4-.4.7-.7.9-.3.3-.7.4-1.1.5-.4,0-.7,0-1.1,0-.3-.1-.6-.3-.9-.5-.3-.2-.5-.6-.7-.9-.2-.4-.3-.8-.3-1.3,0-.5,0-.9,0-1.4,0-.4.2-.8.5-1.1s.5-.6.8-.8c.3-.2.7-.3,1-.4.2,0,.3,0,.5,0s.4,0,.5,0c.2,0,.3.1.5.2s.3.2.4.4l-.5.6c-.1-.2-.3-.3-.6-.4s-.5-.1-.7,0c-.3,0-.5.2-.8.3s-.4.4-.5.6-.2.5-.3.9c0,.3,0,.6,0,1,0,.3.1.7.2,1,.1.3.3.5.5.7.2.2.4.3.6.4.2,0,.5.1.8,0,.3,0,.5-.2.8-.3.2-.2.4-.4.5-.7l.6.4Z"/>
                </g>
                <g class="cls-3">
                  <path class="cls-1" d="M111.7,141.6c0,.5,0,.9,0,1.3,0,.4-.2.8-.5,1.1s-.5.6-.8.8-.7.4-1,.4c-.4,0-.7,0-1.1,0s-.6-.3-.9-.5c-.3-.2-.5-.6-.7-.9-.2-.4-.3-.8-.3-1.3,0-.5,0-.9,0-1.4,0-.4.2-.8.5-1.1.2-.3.5-.6.8-.8.3-.2.7-.3,1-.4.4,0,.7,0,1.1,0,.3.1.6.3.9.5.3.2.5.6.7.9.2.4.3.8.3,1.3ZM110.9,141.8c0-.3-.1-.7-.2-.9-.1-.3-.3-.5-.5-.7-.2-.2-.4-.3-.7-.4-.2,0-.5-.1-.8,0-.3,0-.5.2-.8.3s-.4.4-.5.6c-.1.3-.2.5-.3.9s0,.6,0,1c0,.3.1.7.2.9.1.3.3.5.5.7.2.2.4.3.6.4s.5.1.8,0c.3,0,.5-.2.8-.3.2-.2.4-.4.5-.6.1-.3.2-.5.3-.9,0-.3,0-.6,0-1Z"/>
                  <path class="cls-1" d="M114.9,144.4c-.3,0-.6,0-.9,0-.3,0-.5-.2-.7-.4-.2-.2-.3-.4-.4-.7-.1-.3-.2-.6-.2-.9l-.4-3.9h.7c0-.1.4,3.7.4,3.7,0,.2,0,.4.1.6,0,.2.2.4.3.5.1.1.3.3.4.3.2,0,.4,0,.6,0,.2,0,.4-.1.6-.2.2-.1.3-.3.3-.5,0-.2.1-.4.2-.6s0-.4,0-.6l-.4-3.8h.7c0-.1.4,3.8.4,3.8,0,.3,0,.6,0,.9,0,.3-.1.6-.3.8-.1.3-.3.5-.6.6s-.5.3-.8.3Z"/>
                  <path class="cls-1" d="M118.7,143.6h-.7c0,.1-.6-6.1-.6-6.1l1.6-.3c.2,0,.5,0,.7,0,.2,0,.4,0,.6.2.2.1.3.3.4.5s.2.5.2.8c0,.5,0,.8-.2,1.2-.2.3-.5.5-.8.7l1.7,2.6h-.8c0,.1-1.6-2.4-1.6-2.4h-.8c0,.1.3,2.9.3,2.9ZM118.3,140.1h.8c.2-.2.3-.2.5-.3.1,0,.3-.1.4-.2,0,0,.2-.2.2-.3,0-.1,0-.3,0-.5,0-.2,0-.3-.1-.5,0-.1-.2-.2-.3-.3-.1,0-.2,0-.4-.1-.1,0-.3,0-.4,0h-.9c0,.1.2,2.1.2,2.1Z"/>
                  <path class="cls-1" d="M123,142.9h-.7c0,.1-.6-6.1-.6-6.1h.7c0-.1.6,6.1.6,6.1Z"/>
                  <path class="cls-1" d="M124.9,141.8l2.6-.4v.8c0,0-3.2.6-3.2.6l-.6-6.2,3.2-.5v.8c0,0-2.4.4-2.4.4l.2,1.9,2.4-.4v.7c0,0-2.3.4-2.3.4l.2,2.1Z"/>
                  <path class="cls-1" d="M129.2,141.9h-.7c0,.1-.6-6.1-.6-6.1l1.6-.3c.2,0,.5,0,.7,0,.2,0,.4,0,.6.2.2.1.3.3.4.5.1.2.2.5.2.8,0,.5,0,.8-.2,1.2-.2.3-.5.5-.8.7l1.7,2.6h-.9c0,.1-1.6-2.4-1.6-2.4h-.8c0,.1.3,2.9.3,2.9ZM128.9,138.4h.8c.2-.2.3-.2.5-.3.1,0,.3-.1.4-.2,0,0,.2-.2.2-.3,0-.1,0-.3,0-.5s0-.3-.1-.5c0-.1-.2-.2-.3-.3-.1,0-.2,0-.4-.1-.1,0-.3,0-.4,0h-.9c0,.1.2,2.1.2,2.1Z"/>
                </g>
              </g>
            </g>
          </g>
        </g>
      </g>
    </g>
  </g>
</svg>