<?xml version="1.0" encoding="UTF-8"?>
<svg id="Layer_2" data-name="Layer 2" xmlns="http://www.w3.org/2000/svg" viewBox="0 0 208.32 197.61">
  <defs>
    <style>
      .cls-1 {
        letter-spacing: -.01em;
      }

      .cls-2 {
        font-family: AvenirNext-Medium, 'Avenir Next';
        font-size: 8.76px;
        font-weight: 500;
      }

      .cls-2, .cls-3, .cls-4 {
        fill: #414141;
      }

      .cls-5 {
        fill: #0067a6;
      }

      .cls-5, .cls-6, .cls-7, .cls-8, .cls-4, .cls-9 {
        stroke-width: 0px;
      }

      .cls-10 {
        letter-spacing: 0em;
      }

      .cls-11 {
        letter-spacing: -.01em;
      }

      .cls-6 {
        fill: #e4e4e4;
      }

      .cls-7 {
        fill: #8dbb22;
      }

      .cls-8 {
        fill: #1995b8;
      }

      .cls-3 {
        font-family: AvenirNext-Bold, 'Avenir Next';
        font-size: 10.01px;
        font-weight: 700;
      }

      .cls-9 {
        fill: #fff;
      }
    </style>
  </defs>
  <g id="Layer_1-2" data-name="Layer 1">
    <g>
      <rect class="cls-4" width="208.32" height="197.61" rx="29.33" ry="29.33"/>
      <g>
        <path class="cls-8" d="M115.55,34.52c-2.4-2.65-5.84-3.99-10.23-3.99-.67,0-1.37.03-2.09.09-10,.88-16.98,16.13-17.78,38.85v.14s1.18.04,1.18.04v-.14c.77-21.75,7.48-36.91,16.71-37.72.68-.06,1.34-.09,1.98-.09,4.04,0,7.19,1.21,9.36,3.6,4.32,4.76,5.11,14.06,2.41,28.42l-.02.14,1.16.22.03-.14c2.77-14.75,1.88-24.38-2.7-29.43Z"/>
        <polygon class="cls-6" points="48.93 69.65 148.94 51.08 143.77 55.22 143.75 57.21 140.73 57.72 64.09 70.97 48.93 69.65"/>
        <polygon class="cls-8" points="159.01 54.57 143.77 55.22 143.75 57.21 159.01 54.57"/>
        <polygon class="cls-8" points="148.94 51.08 148.94 54.99 143.77 55.22 148.94 51.08"/>
        <polygon class="cls-8" points="66.73 168.11 58.69 138.12 44 160.08 43.95 160.84 66.73 168.11"/>
        <g>
          <polygon class="cls-8" points="60.83 71.52 64.09 70.97 48.93 69.65 44 160.08 58.69 138.12 62.34 94.02 60.83 71.52"/>
          <polygon class="cls-8" points="63.11 84.45 58.69 138.12 66.73 168.11 67.22 168.26 63.11 84.45"/>
        </g>
        <polygon class="cls-9" points="164.37 148.82 67.22 168.26 60.83 71.52 159.01 54.57 164.37 148.82"/>
        <circle class="cls-8" cx="95.05" cy="74.13" r="1.22" transform="translate(6.65 156.07) rotate(-80.78)"/>
        <circle class="cls-8" cx="125.64" cy="69.24" r="1.22"/>
        <path class="cls-8" d="M123.97,44.2l-.06-.48c-.52-4.17-3.72-9.19-7.61-11.94-2.28-1.61-4.66-2.43-7.08-2.43-.74,0-1.49.08-2.22.24-7.55,1.65-13.59,9.66-14.34,19.04-.25,3.03.33,11.29,1.7,24.57l.1.99c.03.3.28.53.59.53h.06c.16-.02.3-.1.4-.22.1-.12.14-.27.13-.43l-.1-1c-1.37-13.2-1.94-21.4-1.7-24.35.72-8.88,6.36-16.44,13.42-17.98.65-.14,1.31-.21,1.97-.21,2.7,0,4.97,1.21,6.4,2.22,4.13,2.92,6.7,7.8,7.12,11.12l.06.49c.61,4.91,2.25,17.95,2.25,24.89,0,.33.26.59.59.59s.59-.26.59-.59c0-7.01-1.64-20.11-2.26-25.04Z"/>
        <g>
          <g>
            <path class="cls-7" d="M107.98,121.12c2.21-.23,4.37-.53,6.53-.89,3.75-.63,7.47-1.45,11.39-2.51.99-.27,1.81-.92,2.37-1.81.57-.9.88-2.05.84-3.31-.11-4.45-.35-8.88-.77-13.27-.29-3.03-.67-6.05-1.15-9.06-.12.07-.23.13-.35.2h-.02c-.17.11-.34.22-.51.32h0s0,0,0,0c-.17.11-.34.21-.51.32h0s0,0,0,0c-.17.11-.33.22-.49.33h-.01s0,.02,0,.02c-.16.11-.32.22-.49.34h-.02c-.16.13-.32.25-.48.37h0c-.16.13-.32.25-.48.37l-.02.02c-.16.12-.31.25-.46.37h-.01c-.15.14-.31.26-.46.39l-.02.02c-.15.13-.3.26-.45.39h0c-.15.14-.3.27-.45.41l-.02.02c-.15.13-.29.27-.44.41l-.02.02c-.15.14-.29.28-.44.43h0c-7.01,6.95-11.38,17.3-13.02,26.1Z"/>
            <path class="cls-5" d="M97.24,106.49c.43,3.74.99,7.46,1.65,11.17.22,1.23.74,2.24,1.47,2.92.72.68,1.63,1.03,2.65.97,1.57-.1,3.1-.23,4.61-.39-1.66-5.5-5.22-10.36-10.38-14.67Z"/>
            <path class="cls-8" d="M110.86,83.68c-3.75.63-7.47,1.45-11.39,2.51-.99.27-1.79.91-2.34,1.79-.57.91-.88,2.07-.87,3.35.04,4.46.32,8.87.77,13.24.03.33.07.67.11,1,3.64-.73,6.61.51,8.93,3.71,2.17-4.91,6.3-10.82,11.36-14.87h0s.21-.16.21-.16l.02-.02c.12-.1.25-.19.38-.29l.03-.02c.12-.09.25-.19.37-.28l.03-.02c.13-.09.26-.19.39-.28h0c.13-.1.26-.19.4-.28h0s.01-.01.01-.01c.27-.18.53-.36.8-.53h.02c.13-.09.26-.18.4-.26h.02c.13-.09.26-.17.4-.25l.03-.02c.13-.08.26-.15.4-.22l.03-.02c.13-.07.27-.14.4-.21h.02c.14-.08.27-.15.41-.21h.02c.14-.08.27-.14.41-.21h0s.01,0,.01,0c.14-.06.28-.13.42-.19h0c.14-.06.28-.12.41-.18h.03c.14-.07.28-.12.41-.17h.02c.14-.06.28-.11.42-.16h.03c.14-.06.28-.1.42-.15h.02c.14-.05.28-.09.42-.13h.03c.14-.05.28-.09.42-.12h.02s0,0,0,0c.47-.03.93-.05,1.39-.06-.2-1.23-.42-2.46-.66-3.69-.24-1.24-.77-2.27-1.5-2.96-.71-.67-1.61-1.02-2.62-.96-4,.26-7.76.69-11.5,1.31Z"/>
          </g>
          <text class="cls-3" transform="translate(93.2 137.89) rotate(-9.48) scale(.82 1) skewX(-4.57)"><tspan x="0" y="0">CHEC</tspan><tspan class="cls-11" x="27.66" y="0">K</tspan><tspan x="34.65" y="0">AR</tspan><tspan class="cls-11" x="48.59" y="0">K</tspan></text>
          <text class="cls-2" transform="translate(101.38 146.51) rotate(-9.48) scale(.82 1) skewX(-4.57)"><tspan class="cls-1" x="0" y="0">C</tspan><tspan class="cls-10" x="6.09" y="0">OURIER</tspan></text>
        </g>
      </g>
    </g>
  </g>
</svg>