<?xml version="1.0" encoding="UTF-8"?>
<svg xmlns="http://www.w3.org/2000/svg" xmlns:xlink="http://www.w3.org/1999/xlink" version="1.1" viewBox="0 0 208.3 197.6">
  <defs>
    <style>
      .cls-1 {
        fill: none;
      }

      .cls-2 {
        fill: #414141;
      }

      .cls-3 {
        fill: #e4e4e4;
      }

      .cls-4 {
        isolation: isolate;
      }

      .cls-5 {
        clip-path: url(#clippath-1);
      }

      .cls-6 {
        fill: #fff;
      }

      .cls-7 {
        fill: #0067a6;
      }

      .cls-8 {
        fill: #1995b8;
      }

      .cls-9 {
        fill: #8dbb22;
      }

      .cls-10 {
        clip-path: url(#clippath);
      }
    </style>
    <clipPath id="clippath">
      <polygon class="cls-1" points="145.6 154.9 176 125.3 176 54.2 144.7 71.7 145.6 154.9"/>
    </clipPath>
    <clipPath id="clippath-1">
      <polygon class="cls-1" points="145.6 154.9 176 125.3 176 54.2 144.7 71.7 145.6 154.9"/>
    </clipPath>
  </defs>
  <!-- Generator: Adobe Illustrator 28.6.0, SVG Export Plug-In . SVG Version: 1.2.0 Build 709)  -->
  <g>
    <g id="Layer_2">
      <g id="Layer_1-2">
        <g>
          <rect class="cls-2" y="0" width="208.3" height="197.6" rx="29.3" ry="29.3"/>
          <g>
            <g>
              <polygon class="cls-6" points="75.3 44.7 32.1 58.1 32.1 132.8 145.8 154.6 176.2 124.9 176.2 53.9 75.3 44.7"/>
              <polygon class="cls-3" points="145 71.3 32.1 58.1 75.3 44.7 176.2 53.9 145 71.3"/>
              <polygon class="cls-3" points="145.8 154.6 176.2 124.9 176.2 53.9 145 71.3 145.8 154.6"/>
              <polygon class="cls-2" points="175.9 54.3 145.5 71.3 145 71.3 162.1 61.2 159.2 60.5 163.3 60.6 174.9 53.8 175.9 54.3"/>
              <polygon class="cls-2" points="162.1 61.2 59 49.7 59.6 49.5 163.3 60.6 162.1 61.2"/>
              <line class="cls-1" x1="59.6" y1="49.5" x2="163.3" y2="60.6"/>
            </g>
            <g>
              <g>
                <path class="cls-9" d="M78.1,108c2.4.5,4.7,1,7,1.3,4.1.7,8.1,1.1,12.4,1.5,1.1,0,2-.2,2.8-.9.7-.7,1.2-1.6,1.3-2.8.5-4.2.8-8.4.9-12.7,0-2.9,0-5.9,0-8.9-.1,0-.3,0-.4,0h0c-.2,0-.4,0-.6.1h0c-.2,0-.4,0-.6.1h0c-.2,0-.4,0-.6.1h0c-.2,0-.4,0-.6.2h0c-.2,0-.4.1-.6.2h0c-.2,0-.4.1-.6.2h0c-.2,0-.4.1-.5.2h0c-.2,0-.4.1-.5.2h0c-.2,0-.4.2-.5.2h0c-.2,0-.3.2-.5.2h0c-.2,0-.3.2-.5.2h0c-.2,0-.3.2-.5.3h0c-8.3,4.2-14.3,12.4-17.2,20.1h0Z"/>
                <path class="cls-7" d="M68.6,90.7c0,3.7,0,7.3.3,11,0,1.2.5,2.3,1.2,3.2.7.9,1.6,1.5,2.7,1.8,1.7.4,3.3.8,4.9,1.2-1.1-5.7-4.2-11.5-9.1-17.2h0Z"/>
                <path class="cls-8" d="M85.9,73.8c-4.1-.7-8.1-1.1-12.4-1.5-1.1,0-2,.2-2.7.9-.7.7-1.2,1.7-1.4,2.9-.5,4.2-.8,8.4-.9,12.7,0,.3,0,.7,0,1,3.9.5,6.9,2.7,9,6.5,2.9-3.9,8.1-8,14-10.2h.2c0,0,0,0,0,0,.1,0,.3-.1.4-.2h0c.1,0,.3,0,.4-.2h0c.2,0,.3,0,.4-.1h0c.2,0,.3,0,.5-.1h0c.3,0,.6-.2.9-.2h0c.2,0,.3,0,.4,0h0c.2,0,.3,0,.4,0h0c.2,0,.3,0,.4,0h0c.2,0,.3,0,.5,0h0c.2,0,.3,0,.5,0h0c.2,0,.3,0,.5,0h0c.2,0,.3,0,.5,0h0c.2,0,.3,0,.5,0h0c.2,0,.3,0,.5,0h.5c.2,0,.3,0,.5,0h0c.2,0,.3,0,.5,0h0c.2,0,.3,0,.5,0h0c.5.1,1,.3,1.5.4,0-1.2-.1-2.4-.2-3.7,0-1.2-.5-2.4-1.2-3.3-.7-.9-1.6-1.5-2.7-1.8-4.3-1.1-8.3-1.9-12.4-2.6h0Z"/>
              </g>
              <g class="cls-4">
                <g class="cls-4">
                  <path class="cls-2" d="M65.4,119.6c-.4.1-.9.2-1.4,0-.5,0-.9-.2-1.3-.5-.4-.2-.8-.5-1-.9-.3-.4-.5-.8-.7-1.3-.2-.5-.2-1-.2-1.5,0-.5.1-1,.3-1.4.2-.4.4-.8.7-1,.3-.3.7-.4,1.1-.5.4,0,.9-.1,1.3,0,.4,0,.9.2,1.3.5.4.2.8.5,1,.9l-1,1c-.1-.2-.3-.4-.5-.6-.2-.1-.5-.2-.7-.3-.3,0-.5,0-.7,0s-.4.2-.6.3c-.2.2-.3.4-.4.6,0,.2-.1.5-.2.8,0,.3,0,.6.1.9,0,.3.2.5.3.7.2.2.3.4.5.5s.5.2.7.3c.3,0,.6,0,.8,0,.2,0,.4-.2.5-.4l1,1.3c-.3.3-.6.5-1,.7Z"/>
                  <path class="cls-2" d="M70.9,120.6v-2.9c0,0-2.4-.4-2.4-.4v2.9c0,0-1.6-.2-1.6-.2l.2-6.9,1.5.2v2.6c0,0,2.4.4,2.4.4v-2.6c0,0,1.6.2,1.6.2l-.2,6.9-1.5-.2Z"/>
                  <path class="cls-2" d="M73.7,121.1l.2-6.9,4.2.7v1.4s-2.8-.4-2.8-.4v1.3s2.6.4,2.6.4v1.3s-2.6-.4-2.6-.4v1.4s2.9.5,2.9.5v1.4s-4.4-.7-4.4-.7Z"/>
                  <path class="cls-2" d="M83.5,122.6c-.4.1-.9.2-1.4,0-.5,0-.9-.2-1.3-.5-.4-.2-.8-.5-1-.9-.3-.4-.5-.8-.7-1.3-.2-.5-.2-1-.2-1.5,0-.5.1-1,.3-1.4.2-.4.4-.8.7-1,.3-.3.7-.4,1.1-.5.4,0,.9-.1,1.3,0,.4,0,.9.2,1.3.5.4.2.8.5,1,.9l-1,1c-.1-.2-.3-.4-.5-.6-.2-.1-.5-.2-.7-.3-.3,0-.5,0-.7,0s-.4.2-.6.3c-.2.2-.3.4-.4.6,0,.2-.1.5-.2.8,0,.3,0,.6.1.9,0,.3.2.5.3.7s.3.4.5.5c.2.1.5.2.7.3.3,0,.6,0,.8,0,.2,0,.4-.2.5-.4l1,1.3c-.3.3-.6.5-1,.7Z"/>
                </g>
                <g class="cls-4">
                  <path class="cls-2" d="M89,123.6l-2.2-3.5h0s0,3.2,0,3.2l-1.5-.2.2-6.9,1.5.2v2.8c0,0,0,0,0,0l2.3-2.4,1.9.3-2.8,2.7,2.8,4.2-2-.3Z"/>
                </g>
                <g class="cls-4">
                  <path class="cls-2" d="M95.6,124.7l-.5-1.4-2.4-.4-.5,1.3-1.6-.3,2.8-6.4,1.5.2,2.4,7.3-1.7-.3ZM94,119.4l-.8,2.2,1.6.3-.7-2.5Z"/>
                  <path class="cls-2" d="M101.1,125.6l-1.3-2.9h-.5c0,0,0,2.6,0,2.6l-1.5-.2.2-6.9,2.4.4c.3,0,.6.1.9.2.3.1.5.3.8.5.2.2.4.4.5.7s.2.6.2,1c0,.5-.1.8-.4,1.1-.2.3-.6.5-1,.5l1.6,3.2-1.8-.3ZM101.1,120.8c0-.2,0-.3,0-.4,0-.1-.1-.2-.2-.3,0,0-.2-.1-.3-.2-.1,0-.2,0-.3,0h-.8c0-.1,0,1.5,0,1.5h.7c.1.1.2.1.4.1.1,0,.2,0,.4,0,.1,0,.2-.1.3-.2,0,0,.1-.2.1-.4Z"/>
                </g>
                <g class="cls-4">
                  <path class="cls-2" d="M107.4,126.6l-2.2-3.5h0s0,3.2,0,3.2l-1.5-.2.2-6.9,1.5.2v2.8c0,0,0,0,0,0l2.3-2.4,1.9.3-2.8,2.7,2.8,4.2-2-.3Z"/>
                </g>
              </g>
              <g class="cls-4">
                <g class="cls-4">
                  <path class="cls-2" d="M73.2,129.6c-.2.3-.5.5-.9.6-.3.1-.8.2-1.2,0-.4,0-.8-.2-1.1-.4s-.6-.5-.9-.8c-.2-.3-.4-.7-.6-1.1-.1-.4-.2-.8-.2-1.3,0-.5,0-.9.2-1.2s.4-.7.6-.9c.3-.2.6-.4.9-.5.4,0,.7-.1,1.2,0,.2,0,.4,0,.6.2.2,0,.4.2.5.3.2.1.3.2.5.4.1.1.3.3.4.5l-.6.4c-.1-.2-.3-.4-.6-.6-.2-.2-.5-.3-.8-.3-.3,0-.6,0-.9,0s-.5.2-.7.4c-.2.2-.3.4-.4.7-.1.3-.2.6-.2.9,0,.3,0,.7.1,1,0,.3.2.6.4.8s.4.5.6.6c.3.2.5.3.8.3.3,0,.6,0,.8,0,.3,0,.5-.3.6-.5l.6.6Z"/>
                </g>
                <g class="cls-4">
                  <path class="cls-2" d="M79.4,128.6c0,.5,0,.9-.2,1.2s-.4.7-.6.9c-.3.2-.6.4-.9.5-.4,0-.7.1-1.2,0-.4,0-.8-.2-1.1-.4-.3-.2-.6-.5-.9-.8-.2-.3-.4-.7-.6-1.1-.1-.4-.2-.8-.2-1.3,0-.5,0-.9.2-1.2s.4-.7.6-.9c.3-.2.6-.4.9-.5.4,0,.7-.1,1.2,0,.4,0,.8.2,1.1.4.4.2.6.5.9.8.2.3.4.7.6,1.1s.2.9.2,1.3ZM78.6,128.4c0-.3,0-.6-.1-1,0-.3-.2-.6-.4-.8-.2-.2-.4-.5-.6-.6-.3-.2-.5-.3-.9-.3-.3,0-.6,0-.9,0-.3,0-.5.2-.7.4-.2.2-.3.4-.4.7-.1.3-.2.6-.2.9,0,.3,0,.7.1,1s.2.6.4.8c.2.2.4.5.6.6.2.2.5.3.8.3.3,0,.6,0,.9,0,.3,0,.5-.2.7-.4.2-.2.3-.4.4-.7.1-.3.2-.6.2-.9Z"/>
                  <path class="cls-2" d="M82.4,132.2c-.4,0-.7-.2-.9-.4s-.5-.4-.6-.6c-.2-.2-.3-.5-.4-.8,0-.3-.1-.6-.1-.9v-3.8c0,0,.9.1.9.1v3.7c0,.2,0,.4,0,.6,0,.2.1.4.2.6.1.2.2.3.4.4.2.1.4.2.6.2.3,0,.5,0,.6,0,.2,0,.3-.2.4-.3s.2-.3.2-.5c0-.2,0-.4,0-.6v-3.7c0,0,.9.1.9.1v3.8c0,.3-.1.6-.2.9,0,.3-.2.5-.4.7-.2.2-.4.3-.7.4-.3,0-.6.1-.9,0Z"/>
                  <path class="cls-2" d="M86.6,132.8h-.8c0-.1.1-6.1.1-6.1l1.7.3c.3,0,.5.1.7.2.2,0,.4.2.6.4.2.2.3.4.4.6,0,.2.1.5.1.8,0,.4-.1.8-.4,1-.3.2-.6.3-1,.4l1.5,3-.9-.2-1.3-2.9h-.8c0-.1,0,2.5,0,2.5ZM86.7,129.4h.9c.2.2.3.2.5.2.2,0,.3,0,.4,0s.2-.1.3-.3c0-.1.1-.3.1-.4,0-.2,0-.3,0-.5,0-.1-.2-.2-.3-.3-.1,0-.2-.2-.4-.2-.1,0-.3,0-.5-.1l-.9-.2v1.9Z"/>
                  <path class="cls-2" d="M91.3,133.5h-.8c0-.1.1-6.1.1-6.1h.8c0,.1-.1,6.1-.1,6.1Z"/>
                  <path class="cls-2" d="M93.4,133.1l2.8.5v.7s-3.6-.6-3.6-.6v-6c.1,0,3.6.6,3.6.6v.7s-2.7-.4-2.7-.4v1.8s2.5.4,2.5.4v.7s-2.6-.4-2.6-.4v2Z"/>
                  <path class="cls-2" d="M98,134.6h-.8c0-.1.1-6.1.1-6.1l1.7.3c.3,0,.5.1.7.2.2,0,.4.2.6.4.2.2.3.4.4.6s.1.5.1.8c0,.4-.1.8-.4,1-.3.2-.6.3-1,.4l1.5,3-.9-.2-1.3-2.9h-.8c0-.1,0,2.5,0,2.5ZM98.1,131.3h.9c.2.2.3.2.5.2.2,0,.3,0,.4,0,.1,0,.2-.1.3-.3,0-.1.1-.3.1-.4,0-.2,0-.3,0-.5,0-.1-.1-.2-.3-.3-.1,0-.2-.2-.4-.2-.1,0-.3,0-.5-.1l-.9-.2v1.9Z"/>
                </g>
              </g>
            </g>
            <g>
              <g>
                <path class="cls-7" d="M156.7,109.1c-1.8,1.1-3.6,2.2-5.4,3.5-.6.4-1.1,1-1.5,1.8-.4.7-.6,1.5-.6,2.3,0,1.3,0,2.5-.1,3.7,2.7-2.4,5.3-6.3,7.7-11.3h0Z"/>
                <path class="cls-9" d="M147.9,132.4c1.3-.7,2.6-1.3,3.9-2.1,2.2-1.3,4.4-2.7,6.8-4.2.6-.4,1.1-1,1.5-1.7.4-.7.6-1.6.6-2.4.1-2.9.2-5.8.2-8.6,0-1.9-.1-3.8-.2-5.7,0,0-.1.1-.2.2h0c-.1.1-.2.2-.3.3h0c-.1.1-.2.2-.3.3h0c-.1.1-.2.2-.3.3h0c-.1.1-.2.2-.3.3h0c-.1.1-.2.2-.3.4h0c-.1.1-.2.2-.3.3h0c-.1.1-.2.2-.3.4h0c-.1.1-.2.2-.3.4h0c-.1.1-.2.3-.3.4h0c0,.1-.2.2-.3.4h0c0,.1-.2.3-.3.4h0c0,.1-.2.3-.3.4h0c-4.4,6.2-7.5,14-8.8,20.2h0Z"/>
              </g>
              <g>
                <path class="cls-7" d="M162.1,113.9c0,2.4.2,4.7.4,7,0,.8.3,1.3.7,1.6.4.3.9.3,1.5,0,.9-.4,1.8-.9,2.7-1.3-.7-3.2-2.6-5.7-5.4-7.3h0Z"/>
                <path class="cls-8" d="M173.9,105.5c0-.1,0-.8,0-1.5,0-.5-.1-1.1-.3-1.6-.2-.6-.4-1-.4-1.1-.6-1.1-3.3.5-8,3.6-1.3.8-2.3,1.6-3.1,2.1.3.2.9.5,1.5.9,1,.6,1.7.9,1.9,1,1.6,1.2,2.5,2.8,3,4h0c0,.2,0,.3.1.4h0c0,0,0,.2.1.3h0c0,0,0,.2.1.3,0,0,0,.2.1.3h0c0,.2.1.4.2.6h0c0,0,0,.2,0,.3h0c0,.1,0,.2,0,.3h0c0,.1,0,.2,0,.3h0c0,.1,0,.2,0,.3h0c0,.1,0,.2,0,.3h0c0,.1,0,.2,0,.3,0,0,0,.2,0,.3,0,0,0,.2,0,.3h0c0,.1,0,.2,0,.3h0c0,.1,0,.2,0,.3h0c0,.1,0,.2,0,.3h0c0,.1,0,.2,0,.3h0c0,.1,0,.2,0,.3h0c0,.4,0,.8,0,1.1.6-.4,1.2-.8,1.8-1.2s1.1-1.1,1.5-1.8c.4-.7.6-1.5.6-2.3.1-3.1.2-6.1.1-8.9h0Z"/>
              </g>
              <g>
                <g>
                  <path class="cls-7" d="M156.1,68.3c-1.8,1.1-3.6,2.2-5.4,3.5-.6.4-1.1,1-1.5,1.8-.4.7-.6,1.5-.6,2.3,0,1.3,0,2.5-.1,3.7,2.7-2.4,5.3-6.3,7.7-11.3h0Z"/>
                  <path class="cls-9" d="M147.3,91.6c1.3-.7,2.6-1.3,3.9-2.1,2.2-1.3,4.4-2.7,6.8-4.2.6-.4,1.1-1,1.5-1.7.4-.7.6-1.6.6-2.4.1-2.9.2-5.8.2-8.6,0-1.9-.1-3.8-.2-5.7,0,0-.1.1-.2.2h0c-.1.1-.2.2-.3.3h0c-.1.1-.2.2-.3.3h0c-.1.1-.2.2-.3.3h0c-.1.1-.2.2-.3.3h0c-.1.1-.2.2-.3.4h0c-.1.1-.2.2-.3.3h0c-.1.1-.2.2-.3.4h0c-.1.1-.2.2-.3.4h0c-.1.1-.2.3-.3.4h0c0,.1-.2.2-.3.4h0c0,.1-.2.3-.3.4h0c0,.1-.2.3-.3.4h0c-4.4,6.2-7.5,14-8.8,20.2h0Z"/>
                </g>
                <g>
                  <path class="cls-7" d="M170.2,99.1c-1.8,1-3.6,1.9-5.5,2.7-.6.3-1.1.2-1.5,0-.4-.3-.6-.8-.7-1.6-.1-1.2-.2-2.3-.2-3.5,2.8-.7,5.4.2,7.9,2.4h0Z"/>
                  <path class="cls-9" d="M160.7,86.2c1.3-.8,2.6-1.6,3.9-2.3,2.2-1.3,4.4-2.4,6.8-3.5.6-.3,1.1-.2,1.5,0s.6.8.7,1.6c.2,2.7.4,5.4.5,8.2,0,1.9,0,3.9,0,5.9,0,0-.1,0-.2,0h0c-.1,0-.2,0-.3,0h0c-.1,0-.2,0-.3,0h0c-.1,0-.2,0-.3,0h-.9c-.1,0-.2,0-.3,0h0c-.1,0-.2,0-.3,0h0c-.1,0-.2,0-.3,0h0c-.1,0-.2,0-.3,0h0c0,0-.2,0-.3,0h0c-.1,0-.2,0-.3,0h0c-4.6-1.1-7.8-5.3-9.4-9.8h0Z"/>
                </g>
                <g>
                  <path class="cls-7" d="M161.6,73.1c0,2.4.2,4.7.4,7,0,.8.3,1.3.7,1.6.4.3.9.3,1.5,0,.9-.4,1.8-.9,2.7-1.3-.7-3.2-2.6-5.7-5.4-7.3h0Z"/>
                  <path class="cls-8" d="M173.3,64.7c0-.1,0-.8,0-1.5,0-.5-.1-1-.3-1.6-.2-.6-.4-1-.4-1.1-.6-1-3.3.5-8,3.6-1.3.8-2.3,1.6-3.1,2.1.3.2.9.5,1.5.9,1,.6,1.7.9,1.9,1,1.6,1.2,2.5,2.8,3,4h0c0,.2,0,.3.1.4h0c0,0,0,.2.1.3h0c0,0,0,.2.1.3,0,0,0,.2.1.3h0c0,.2.1.4.2.6h0c0,0,0,.2,0,.3h0c0,.1,0,.2,0,.3h0c0,.1,0,.2,0,.3h0c0,.1,0,.2,0,.3h0c0,.1,0,.2,0,.3h0c0,.1,0,.2,0,.3,0,0,0,.2,0,.3,0,0,0,.2,0,.3h0c0,.1,0,.2,0,.3h0c0,.1,0,.2,0,.3h0c0,.1,0,.2,0,.3h0c0,.1,0,.2,0,.3h0c0,.1,0,.2,0,.3h0c0,.4,0,.8,0,1.1.6-.4,1.2-.8,1.8-1.2s1.1-1.1,1.5-1.8c.4-.7.6-1.5.6-2.3.1-3.1.2-6.1.1-8.9h0Z"/>
                </g>
                <g>
                  <path class="cls-9" d="M155.6,107.1c-.8.5-1.6,1-2.4,1.4-1.4.8-2.7,1.5-4.2,2.1-.4.2-.7.2-.9,0-.2-.2-.4-.5-.4-1-.1-1.7-.3-3.3-.3-5.1,0-1.2,0-2.4,0-3.6,0,0,0,0,.1,0h0c0,0,.1,0,.2,0h0c0,0,.1,0,.2,0h0c0,0,.1,0,.2,0h.6c0,0,.1,0,.2,0h0c0,0,.1,0,.2,0h0c0,0,.1,0,.2,0h0c0,0,.1,0,.2,0h0c0,0,.1,0,.2,0h0c0,0,.1,0,.2,0h0c2.8.7,4.8,3.3,5.8,6h0Z"/>
                  <path class="cls-8" d="M160.8,92.2c0-.1,0-.8,0-1.5,0-.5-.1-1.1-.3-1.6-.2-.6-.4-1-.4-1.1-.6-1.1-3.3.5-8,3.6-1.3.8-2.3,1.6-3.1,2.1.3.2.9.5,1.5.9,1,.6,1.7.9,1.9,1,1.6,1.2,2.5,2.8,3,4h0c0,.2,0,.3.1.4h0c0,0,0,.2.1.3h0c0,0,0,.2.1.3,0,0,0,.2.1.3h0c0,.2.1.4.2.6h0c0,0,0,.2,0,.3h0c0,.1,0,.2,0,.3h0c0,.1,0,.2,0,.3h0c0,.1,0,.2,0,.3h0c0,.1,0,.2,0,.3h0c0,.1,0,.2,0,.3,0,0,0,.2,0,.3,0,0,0,.2,0,.3h0c0,.1,0,.2,0,.3h0c0,.1,0,.2,0,.3h0c0,.1,0,.2,0,.3h0c0,.1,0,.2,0,.3h0c0,.1,0,.2,0,.3h0c0,.4,0,.8,0,1.1.6-.4,1.2-.8,1.8-1.2s1.1-1.1,1.5-1.8c.4-.7.6-1.5.6-2.3.1-3.1.2-6.1.1-8.9h0Z"/>
                </g>
              </g>
              <g class="cls-10">
                <g>
                  <path class="cls-9" d="M161.3,127c1.3-.8,2.6-1.6,3.9-2.3,2.2-1.3,4.4-2.4,6.8-3.5.6-.3,1.1-.2,1.5,0s.6.8.7,1.6c.2,2.7.4,5.4.5,8.2,0,1.9,0,3.9,0,5.9,0,0-.1,0-.2,0h0c-.1,0-.2,0-.3,0h0c-.1,0-.2,0-.3,0h0c-.1,0-.2,0-.3,0h-.9c-.1,0-.2,0-.3,0h0c-.1,0-.2,0-.3,0h0c-.1,0-.2,0-.3,0h0c-.1,0-.2,0-.3,0h0c0,0-.2,0-.3,0h0c-.1,0-.2,0-.3,0h0c-4.6-1.1-7.8-5.3-9.4-9.8h0Z"/>
                  <path class="cls-7" d="M170.8,139.9c-1.8,1-3.6,1.9-5.5,2.7-.6.3-1.1.2-1.5,0-.4-.3-.6-.8-.7-1.6-.1-1.2-.2-2.3-.2-3.5,2.8-.7,5.4.2,7.9,2.4h0Z"/>
                </g>
              </g>
              <g class="cls-5">
                <g>
                  <path class="cls-9" d="M156.2,147.9c-.8.5-1.6,1-2.4,1.4-1.4.8-2.7,1.5-4.2,2.1-.4.2-.7.1-.9,0-.2-.2-.4-.5-.4-1-.1-1.7-.3-3.3-.3-5.1,0-1.2,0-2.4,0-3.6,0,0,0,0,.1,0h0c0,0,.1,0,.2,0h0c0,0,.1,0,.2,0h0c0,0,.1,0,.2,0h.6c0,0,.1,0,.2,0h0c0,0,.1,0,.2,0h0c0,0,.1,0,.2,0h0c0,0,.1,0,.2,0h0c0,0,.1,0,.2,0h0c0,0,.1,0,.2,0h0c2.8.7,4.8,3.3,5.8,6h0Z"/>
                  <path class="cls-8" d="M161.4,133c0-.1,0-.8,0-1.5,0-.5-.1-1.1-.3-1.6-.2-.6-.4-1-.4-1.1-.6-1.1-3.3.5-8,3.6-1.3.9-2.3,1.6-3.1,2.1.3.2.9.5,1.5.9,1,.6,1.7.9,1.9,1,1.6,1.2,2.5,2.9,3,4h0c0,.2,0,.3.1.4h0c0,.1,0,.2.1.3h0c0,.1,0,.2.1.3s0,.2.1.3h0c0,.2.1.4.2.6h0c0,.1,0,.2,0,.3h0c0,.1,0,.2,0,.3h0c0,.1,0,.2,0,.3h0c0,.1,0,.2,0,.3h0c0,.1,0,.2,0,.3h0c0,.1,0,.2,0,.3,0,.1,0,.2,0,.3s0,.2,0,.3h0c0,.1,0,.2,0,.3h0c0,.1,0,.2,0,.3h0c0,.1,0,.2,0,.3h0c0,.1,0,.2,0,.3h0c0,.1,0,.2,0,.3h0c0,.4,0,.8,0,1.1.6-.4,1.2-.8,1.8-1.2.6-.4,1.1-1.1,1.5-1.8.4-.7.6-1.5.6-2.3.1-3.1.2-6.1.1-8.9h0Z"/>
                </g>
              </g>
            </g>
          </g>
        </g>
      </g>
    </g>
  </g>
</svg>