<?xml version="1.0" encoding="UTF-8"?>
<svg id="Layer_2" data-name="Layer 2" xmlns="http://www.w3.org/2000/svg" xmlns:xlink="http://www.w3.org/1999/xlink" viewBox="0 0 208.32 197.61">
  <defs>
    <style>
      .cls-1 {
        clip-path: url(#clippath);
      }

      .cls-2 {
        fill: none;
      }

      .cls-2, .cls-3, .cls-4, .cls-5, .cls-6, .cls-7, .cls-8 {
        stroke-width: 0px;
      }

      .cls-3 {
        fill: #0067a6;
      }

      .cls-9 {
        letter-spacing: -.01em;
      }

      .cls-10 {
        letter-spacing: -.01em;
      }

      .cls-11 {
        font-family: AvenirNext-Bold, 'Avenir Next';
        font-size: 9.69px;
        font-weight: 700;
      }

      .cls-11, .cls-12, .cls-7 {
        fill: #414141;
      }

      .cls-13 {
        clip-path: url(#clippath-1);
      }

      .cls-4 {
        fill: #e4e4e4;
      }

      .cls-5 {
        fill: #8dbb22;
      }

      .cls-6 {
        fill: #1995b8;
      }

      .cls-12 {
        font-family: AvenirNext-Medium, 'Avenir Next';
        font-size: 8.47px;
        font-weight: 500;
      }

      .cls-8 {
        fill: #fff;
      }
    </style>
    <clipPath id="clippath">
      <polygon class="cls-2" points="145.58 154.93 175.98 125.31 175.98 54.22 144.74 71.71 145.58 154.93"/>
    </clipPath>
    <clipPath id="clippath-1">
      <polygon class="cls-2" points="145.58 154.93 175.98 125.31 175.98 54.22 144.74 71.71 145.58 154.93"/>
    </clipPath>
  </defs>
  <g id="Layer_1-2" data-name="Layer 1">
    <g>
      <rect class="cls-7" x="0" width="208.32" height="197.61" rx="29.33" ry="29.33"/>
      <g>
        <g>
          <polygon class="cls-8" points="75.26 44.68 32.08 58.06 32.08 132.82 145.84 154.57 176.24 124.95 176.24 53.86 75.26 44.68"/>
          <polygon class="cls-4" points="145 71.35 32.08 58.06 75.26 44.68 176.24 53.86 145 71.35"/>
          <polygon class="cls-4" points="145.84 154.57 176.24 124.95 176.24 53.86 145 71.35 145.84 154.57"/>
          <polygon class="cls-7" points="175.91 54.25 145.47 71.35 145 71.35 162.1 61.16 159.19 60.46 163.33 60.6 174.9 53.85 175.91 54.25"/>
          <polygon class="cls-7" points="162.1 61.16 58.99 49.72 59.62 49.53 163.33 60.6 162.1 61.16"/>
          <line class="cls-7" x1="59.62" y1="49.53" x2="163.33" y2="60.6"/>
        </g>
        <g>
          <g>
            <path class="cls-5" d="M78.06,108c2.37.52,4.7.97,7.03,1.35,4.05.67,8.1,1.14,12.39,1.46,1.09.08,2.04-.25,2.75-.9.72-.66,1.19-1.63,1.32-2.82.46-4.22.77-8.45.9-12.72.08-2.94.07-5.9-.05-8.89-.13.02-.27.05-.4.07h-.02c-.2.04-.39.08-.58.12h0s0,0,0,0c-.19.04-.39.09-.58.13h0s0,0,0,0c-.19.05-.38.09-.57.14h-.01s-.01,0-.01,0c-.19.05-.37.1-.56.16h-.02c-.19.06-.37.12-.56.18h0c-.18.06-.37.12-.55.19h-.02c-.18.07-.36.13-.54.2h-.02c-.18.07-.36.14-.53.21h-.02c-.18.08-.36.15-.53.23h0c-.18.08-.35.15-.53.23h-.02c-.17.09-.34.17-.52.25h-.02c-.17.09-.35.18-.52.26h0c-8.33,4.18-14.29,12.43-17.17,20.14Z"/>
            <path class="cls-3" d="M68.57,90.67c-.02,3.65.09,7.33.3,11.03.07,1.23.5,2.35,1.18,3.23.67.87,1.6,1.52,2.68,1.79,1.68.43,3.32.82,4.94,1.18-1.05-5.72-4.19-11.47-9.1-17.24Z"/>
            <path class="cls-6" d="M85.95,73.81c-4.05-.67-8.1-1.14-12.39-1.46-1.08-.08-2.01.25-2.71.89-.72.66-1.21,1.65-1.36,2.86-.53,4.2-.81,8.43-.9,12.69,0,.33-.01.65-.02.98,3.95.53,6.94,2.69,8.98,6.47,2.94-3.88,8.08-8.04,13.96-10.16h0s.24-.09.24-.09h.02c.14-.06.29-.11.44-.16h.03c.14-.06.29-.1.43-.15h.03c.15-.06.3-.1.45-.14h0c.15-.05.3-.09.46-.13h0s.01,0,.01,0c.31-.08.61-.16.92-.22h.02c.15-.04.3-.07.45-.1h.03c.15-.04.3-.06.45-.09h.03c.15-.03.3-.06.45-.08h.03c.15-.03.3-.05.46-.07h.02c.15-.02.31-.04.46-.06h.03c.15-.02.31-.03.46-.05h0s.01,0,.01,0c.16-.01.31-.02.47-.03h0c.15-.01.31-.02.46-.02h.03c.15,0,.31-.01.46-.01h.03c.15,0,.31,0,.46,0h.03c.15,0,.31,0,.46.01h.03c.15,0,.31.02.46.02h.03c.15.01.31.02.46.04h.02s0,0,.01,0c.5.13.99.27,1.48.41-.05-1.22-.13-2.45-.22-3.68-.09-1.25-.53-2.39-1.21-3.28-.66-.86-1.57-1.5-2.65-1.77-4.27-1.09-8.31-1.95-12.36-2.62Z"/>
          </g>
          <text class="cls-11" transform="translate(60.25 118.85) rotate(9.34) scale(.92 .99) skewX(8.56)"><tspan x="0" y="0">CHEC</tspan><tspan class="cls-10" x="26.76" y="0">K</tspan><tspan x="33.53" y="0">AR</tspan><tspan class="cls-10" x="47.01" y="0">K</tspan></text>
          <text class="cls-12" transform="translate(67.8 129.67) rotate(9.34) scale(.92 .99) skewX(8.56)"><tspan class="cls-9" x="0" y="0">C</tspan><tspan x="5.9" y="0">OURIER</tspan></text>
        </g>
        <g>
          <g>
            <path class="cls-3" d="M156.69,109.13c-1.81,1.08-3.63,2.25-5.44,3.5-.6.41-1.12,1.04-1.49,1.76-.37.71-.6,1.53-.63,2.34-.05,1.26-.09,2.48-.11,3.68,2.74-2.42,5.29-6.26,7.68-11.28Z"/>
            <path class="cls-5" d="M147.91,132.41c1.3-.66,2.58-1.34,3.86-2.07,2.22-1.26,4.44-2.65,6.78-4.24.59-.4,1.1-1.02,1.47-1.73.37-.72.61-1.55.65-2.38.14-2.91.21-5.78.16-8.58-.03-1.93-.11-3.84-.25-5.72-.07.07-.14.14-.21.21h-.01c-.11.12-.21.23-.31.33h0s0,0,0,0c-.1.11-.21.22-.31.33h0s0,0,0,0c-.1.11-.2.22-.3.33h0s0,.01,0,.01c-.1.11-.2.22-.3.33h-.01c-.1.13-.2.24-.3.36h0c-.1.12-.2.24-.3.35h-.01c-.1.13-.19.25-.29.36h0c-.1.13-.19.25-.29.37h-.01c-.1.13-.19.26-.28.38h0c-.09.13-.19.25-.28.37h-.01c-.09.14-.18.26-.27.38h-.01c-.09.14-.18.27-.28.39h0c-4.43,6.18-7.46,14-8.83,20.18Z"/>
          </g>
          <g>
            <path class="cls-3" d="M162.13,113.88c.08,2.37.24,4.7.45,7,.07.76.33,1.31.72,1.6.39.28.91.31,1.51.04.92-.42,1.83-.86,2.72-1.3-.72-3.25-2.58-5.65-5.4-7.33Z"/>
            <path class="cls-6" d="M173.91,105.47c0-.14,0-.76-.08-1.53-.05-.51-.1-1.05-.27-1.63-.17-.61-.39-1.01-.44-1.1-.64-1.05-3.3.47-7.97,3.6-1.26.85-2.33,1.58-3.1,2.13.34.2.86.51,1.5.87,1.01.57,1.67.87,1.85,1,1.59,1.19,2.48,2.85,2.96,4l.06.13h0c.04.09.08.17.11.25v.02c.05.08.08.16.12.24v.02c.04.08.08.17.12.26.04.09.07.17.11.27h0c.07.18.14.36.2.55h0c.03.1.06.19.09.28v.02c.03.09.06.18.09.27v.02c.03.09.06.18.09.27v.02c.03.09.06.19.08.28h0c.02.11.05.2.07.3v.02c.03.1.05.19.07.3.02.1.04.2.06.3.02.1.04.2.06.3v.02c.02.1.04.2.05.3v.02c.02.1.03.2.05.3v.02c.02.1.03.2.04.3v.02c.01.1.02.21.03.31v.02c.01.1.02.21.03.31,0,0,0,.01,0,.02-.02.37-.04.73-.06,1.1.6-.4,1.2-.81,1.81-1.24.61-.43,1.13-1.06,1.51-1.77.37-.69.59-1.48.63-2.27.13-3.13.18-6.05.12-8.91Z"/>
          </g>
          <g>
            <g>
              <path class="cls-3" d="M156.11,68.32c-1.81,1.08-3.63,2.25-5.44,3.5-.6.41-1.12,1.04-1.49,1.76-.37.71-.6,1.53-.63,2.34-.05,1.26-.09,2.48-.11,3.68,2.74-2.42,5.29-6.26,7.68-11.28Z"/>
              <path class="cls-5" d="M147.32,91.6c1.3-.66,2.58-1.34,3.86-2.07,2.22-1.26,4.44-2.65,6.78-4.24.59-.4,1.1-1.02,1.47-1.73.37-.72.61-1.55.65-2.38.14-2.91.21-5.78.16-8.58-.03-1.93-.11-3.84-.25-5.72-.07.07-.14.14-.21.21h-.01c-.11.12-.21.23-.31.33h0s0,0,0,0c-.1.11-.21.22-.31.33h0s0,0,0,0c-.1.11-.2.22-.3.33h0s0,.01,0,.01c-.1.11-.2.22-.3.33h-.01c-.1.13-.2.24-.3.36h0c-.1.12-.2.24-.3.35h-.01c-.1.13-.19.25-.29.36h0c-.1.13-.19.25-.29.37h-.01c-.1.13-.19.26-.28.38h0c-.09.13-.19.25-.28.37h-.01c-.09.14-.18.26-.27.38h-.01c-.09.14-.18.27-.28.39h0c-4.43,6.18-7.46,14-8.83,20.18Z"/>
            </g>
            <g>
              <path class="cls-3" d="M170.18,99.12c-1.82.98-3.63,1.87-5.46,2.69-.6.27-1.13.24-1.53-.05-.39-.28-.64-.82-.71-1.58-.1-1.17-.18-2.32-.25-3.47,2.77-.71,5.41.18,7.94,2.41Z"/>
              <path class="cls-5" d="M160.71,86.21c1.3-.82,2.58-1.59,3.86-2.32,2.22-1.26,4.45-2.4,6.8-3.48.6-.27,1.12-.25,1.51.04.39.29.65.84.72,1.6.25,2.69.42,5.43.48,8.22.04,1.93.04,3.88-.03,5.88-.07.01-.15.02-.22.03h-.01c-.11.02-.21.03-.32.04h0s0,0,0,0c-.11.01-.21.02-.32.03h0s0,0,0,0c-.1,0-.21.01-.31.02h0s0,0,0,0c-.1,0-.2,0-.31,0h-.01c-.1,0-.2,0-.3,0h0c-.1,0-.2,0-.3,0h-.01c-.1,0-.2-.01-.3-.02h0c-.1,0-.2-.02-.29-.03h-.01c-.1-.01-.2-.02-.29-.04h0c-.1-.01-.19-.03-.29-.05h-.01c-.09-.02-.19-.04-.28-.05h-.01c-.1-.02-.19-.04-.28-.06h0c-4.57-1.07-7.83-5.31-9.41-9.82Z"/>
            </g>
            <g>
              <path class="cls-3" d="M161.55,73.07c.08,2.37.24,4.7.45,7,.07.76.33,1.31.72,1.6.39.28.91.31,1.51.04.92-.42,1.83-.86,2.72-1.3-.72-3.25-2.58-5.65-5.4-7.33Z"/>
              <path class="cls-6" d="M173.33,64.66c0-.14,0-.76-.08-1.53-.05-.51-.1-1.05-.27-1.63-.17-.61-.39-1.01-.44-1.1-.64-1.05-3.3.47-7.97,3.6-1.26.85-2.33,1.58-3.1,2.13.34.2.86.51,1.5.87,1.01.57,1.67.87,1.85,1,1.59,1.19,2.48,2.85,2.96,4l.06.13h0c.04.09.08.17.11.25v.02c.05.08.08.16.12.24v.02c.04.08.08.17.12.26.04.09.07.17.11.27h0c.07.18.14.36.2.55h0c.03.1.06.19.09.28v.02c.03.09.06.18.09.27v.02c.03.09.06.18.09.27v.02c.03.09.06.19.08.28h0c.02.11.05.2.07.3v.02c.03.1.05.19.07.3.02.1.04.2.06.3.02.1.04.2.06.3v.02c.02.1.04.2.05.3v.02c.02.1.03.2.05.3v.02c.02.1.03.2.04.3v.02c.01.1.02.21.03.31v.02c.01.1.02.21.03.31,0,0,0,.01,0,.02-.02.37-.04.73-.06,1.1.6-.4,1.2-.81,1.81-1.24.61-.43,1.13-1.06,1.51-1.77.37-.69.59-1.48.63-2.27.13-3.13.18-6.05.12-8.91Z"/>
            </g>
            <g>
              <path class="cls-5" d="M155.6,107.11c-.8.51-1.59.98-2.37,1.43-1.37.78-2.73,1.47-4.18,2.14-.37.17-.69.15-.93-.02-.24-.18-.4-.51-.44-.98-.15-1.66-.26-3.34-.3-5.05-.03-1.18-.02-2.39.02-3.62.04,0,.09-.01.13-.02h0c.07-.01.13-.02.2-.03h0s0,0,0,0c.07,0,.13-.01.2-.02h0s0,0,0,0c.06,0,.13,0,.19-.01h0s0,0,0,0c.06,0,.13,0,.19,0h0c.06,0,.13,0,.19,0h0c.06,0,.12,0,.19,0h0c.06,0,.12,0,.18.01h0c.06,0,.12.01.18.02h0c.06,0,.12.01.18.02h0c.06,0,.12.02.18.03h0c.06.01.12.02.17.03h0c.06.01.12.03.17.04h0c2.81.66,4.81,3.26,5.78,6.04Z"/>
              <path class="cls-6" d="M160.82,92.17c0-.14,0-.76-.08-1.53-.05-.51-.1-1.05-.27-1.63-.17-.61-.39-1.01-.44-1.1-.64-1.05-3.3.47-7.97,3.6-1.26.85-2.33,1.58-3.1,2.13.34.2.86.51,1.5.87,1.01.57,1.67.87,1.85,1,1.59,1.19,2.48,2.85,2.96,4l.06.13h0c.04.09.08.17.11.25v.02c.05.08.08.16.12.24v.02c.04.08.08.17.12.26.04.09.07.17.11.27h0c.07.18.14.36.2.55h0c.03.1.06.19.09.28v.02c.03.09.06.18.09.27v.02c.03.09.06.18.09.27v.02c.03.09.06.19.08.28h0c.02.11.05.2.07.3v.02c.03.1.05.19.07.3.02.1.04.2.06.3.02.1.04.2.06.3v.02c.02.1.04.2.05.3v.02c.02.1.03.2.05.3v.02c.02.1.03.2.04.3v.02c.01.1.02.21.03.31v.02c.01.1.02.21.03.31,0,0,0,.01,0,.02-.02.37-.04.73-.06,1.1.6-.4,1.2-.81,1.81-1.24.61-.43,1.13-1.06,1.51-1.77.37-.69.59-1.48.63-2.27.13-3.13.18-6.05.12-8.91Z"/>
            </g>
          </g>
          <g class="cls-1">
            <path class="cls-5" d="M161.29,127.02c1.3-.82,2.58-1.59,3.86-2.32,2.22-1.26,4.45-2.4,6.8-3.48.6-.27,1.12-.25,1.51.04.39.29.65.84.72,1.6.25,2.69.42,5.43.48,8.22.04,1.93.04,3.88-.03,5.88-.07.01-.15.02-.22.03h-.01c-.11.02-.21.03-.32.04h0s0,0,0,0c-.11.01-.21.02-.32.03h0s0,0,0,0c-.1,0-.21.01-.31.02h0s0,0,0,0c-.1,0-.2,0-.31,0h-.01c-.1,0-.2,0-.3,0h0c-.1,0-.2,0-.3,0h-.01c-.1,0-.2-.01-.3-.02h0c-.1,0-.2-.02-.29-.03h-.01c-.1-.01-.2-.02-.29-.04h0c-.1-.01-.19-.03-.29-.05h-.01c-.09-.02-.19-.04-.28-.05h-.01c-.1-.02-.19-.04-.28-.06h0c-4.57-1.07-7.83-5.31-9.41-9.82Z"/>
            <path class="cls-3" d="M170.76,139.93c-1.82.98-3.63,1.87-5.46,2.69-.6.27-1.13.24-1.53-.05-.39-.28-.64-.82-.71-1.58-.1-1.17-.18-2.32-.25-3.47,2.77-.71,5.41.18,7.94,2.41Z"/>
          </g>
          <g class="cls-13">
            <path class="cls-5" d="M156.18,147.91c-.8.51-1.59.98-2.37,1.43-1.37.78-2.73,1.47-4.18,2.14-.37.17-.69.15-.93-.02-.24-.18-.4-.51-.44-.98-.15-1.66-.26-3.34-.3-5.05-.03-1.18-.02-2.39.02-3.62.04,0,.09-.01.13-.02h0c.07-.01.13-.02.2-.03h0s0,0,0,0c.07,0,.13-.01.2-.02h0s0,0,0,0c.06,0,.13,0,.19-.01h0s0,0,0,0c.06,0,.13,0,.19,0h0c.06,0,.13,0,.19,0h0c.06,0,.12,0,.19,0h0c.06,0,.12,0,.18.01h0c.06,0,.12.01.18.02h0c.06,0,.12.01.18.02h0c.06,0,.12.02.18.03h0c.06.01.12.02.17.03h0c.06.01.12.03.17.04h0c2.81.66,4.81,3.26,5.78,6.04Z"/>
            <path class="cls-6" d="M161.4,132.98c0-.14,0-.76-.08-1.53-.05-.51-.1-1.05-.27-1.63-.17-.61-.39-1.01-.44-1.1-.64-1.05-3.3.47-7.97,3.6-1.26.85-2.33,1.58-3.1,2.13.34.2.86.51,1.5.87,1.01.57,1.67.87,1.85,1,1.59,1.19,2.48,2.85,2.96,4l.06.13h0c.04.09.08.17.11.25v.02c.05.08.08.16.12.24v.02c.04.08.08.17.12.26.04.09.07.17.11.27h0c.07.18.14.36.2.55h0c.03.1.06.19.09.28v.02c.03.09.06.18.09.27v.02c.03.09.06.18.09.27v.02c.03.09.06.19.08.28h0c.02.11.05.2.07.3v.02c.03.1.05.19.07.3.02.1.04.2.06.3.02.1.04.2.06.3v.02c.02.1.04.2.05.3v.02c.02.1.03.2.05.3v.02c.02.1.03.2.04.3v.02c.01.1.02.21.03.31v.02c.01.1.02.21.03.31,0,0,0,.01,0,.02-.02.37-.04.73-.06,1.1.6-.4,1.2-.81,1.81-1.24.61-.43,1.13-1.06,1.51-1.77.37-.69.59-1.48.63-2.27.13-3.13.18-6.05.12-8.91Z"/>
          </g>
        </g>
      </g>
    </g>
  </g>
</svg>