<?xml version="1.0" encoding="UTF-8"?>
<svg id="Layer_2" data-name="Layer 2" xmlns="http://www.w3.org/2000/svg" xmlns:xlink="http://www.w3.org/1999/xlink" viewBox="0 0 208.32 197.61">
  <defs>
    <style>
      .cls-1 {
        fill: url(#New_Pattern_2);
      }

      .cls-1, .cls-2, .cls-3, .cls-4, .cls-5, .cls-6, .cls-7 {
        stroke-width: 0px;
      }

      .cls-2 {
        fill: none;
      }

      .cls-3 {
        fill: #0067a6;
      }

      .cls-4 {
        fill: #8dbb22;
      }

      .cls-5 {
        fill: #1995b8;
      }

      .cls-6 {
        fill: #414141;
      }

      .cls-7 {
        fill: #fff;
      }
    </style>
    <pattern id="New_Pattern_2" data-name="New Pattern 2" x="0" y="0" width="145.07" height="125.54" patternTransform="translate(-2627.87 -2390.43) scale(.74)" patternUnits="userSpaceOnUse" viewBox="0 0 145.07 125.54">
      <g>
        <rect class="cls-2" width="145.07" height="125.54"/>
        <g>
          <g>
            <path class="cls-3" d="M46.77,112.85c-3.35-.02-6.71.1-10.07.33-1.11.07-2.09.51-2.82,1.2-.72.68-1.19,1.62-1.31,2.72-.18,1.7-.33,3.36-.46,5,5.11-1.08,9.99-4.27,14.66-9.25Z"/>
            <path class="cls-4" d="M32.11,138.06c2.41.12,4.77.18,7.13.18,4.11,0,8.21-.18,12.54-.53,1.1-.09,2.05-.54,2.75-1.24.71-.71,1.17-1.67,1.27-2.79.36-3.93.58-7.86.59-11.79.01-2.71-.07-5.42-.27-8.14-.13.04-.27.08-.4.13h-.02c-.2.07-.39.14-.59.21h0s0,0,0,0c-.19.07-.39.14-.58.21h0s0,0,0,0c-.19.07-.38.14-.57.22h-.01s-.01.01-.01.01c-.19.07-.37.15-.56.23h-.02c-.19.09-.37.17-.56.25h0c-.19.09-.37.17-.55.25h-.02c-.18.1-.36.18-.54.27h-.02c-.18.1-.36.19-.53.28h-.02c-.18.1-.36.2-.53.29h0c-.18.1-.35.2-.53.29h-.02c-.17.11-.34.21-.51.31h-.02c-.17.11-.35.22-.52.32h0c-8.31,5.09-14.13,13.54-16.85,21.04Z"/>
          </g>
          <path class="cls-4" d="M112.96,113.03c-2.41-.12-4.77-.18-7.13-.18-4.11,0-8.21.18-12.54.53-1.1.09-2.05.54-2.75,1.24-.71.71-1.17,1.67-1.27,2.79-.36,3.93-.58,7.86-.59,11.79-.01,2.71.07,5.42.27,8.14.13-.04.27-.08.4-.13h.02c.2-.07.39-.14.59-.21h0s0,0,0,0c.19-.07.39-.14.58-.21h0s0,0,0,0c.19-.07.38-.14.57-.22h.01s.01-.01.01-.01c.19-.07.37-.15.56-.23h.02c.19-.09.37-.17.56-.25h0c.19-.09.37-.17.55-.25h.02c.18-.1.36-.18.54-.27h.02c.18-.1.36-.19.53-.28h.02c.18-.1.36-.2.53-.29h0c.18-.1.35-.2.53-.29h.02c.17-.11.34-.21.51-.31h.02c.17-.11.35-.22.52-.32h0c8.31-5.09,14.13-13.54,16.85-21.04Z"/>
          <g>
            <path class="cls-3" d="M59.55,123.81c.06,3.35.27,6.71.57,10.06.1,1.11.56,2.08,1.27,2.79.7.7,1.65,1.15,2.75,1.24,1.7.14,3.37.25,5.01.34-1.2-5.08-4.51-9.88-9.61-14.43Z"/>
            <path class="cls-5" d="M85.43,119.63c.08-1.2-.09-2.14-.25-2.75-.21-.82-.39-1.55-.99-2.14-.53-.53-1.24-.86-2.06-.93-3.29-.27-6.41-.41-9.53-.41s-6.24.14-9.53.41c-.38.03-.74.13-1.07.27,2.17,2.36,3.73,4.55,4.8,6.23,2.03,3.2,4.74,7.57,5.52,13.74.19,1.51.24,2.91.2,4.18.03,0,.05,0,.08,0,0,0,5.21-.05,9.53-.41.84-.07,1.56-.41,2.09-.94.66-.66.87-1.49.96-2.12.3-1.93.43-7.57.25-15.14Z"/>
          </g>
          <g>
            <path class="cls-4" d="M142.07,123.81c-.06,3.35-.27,6.71-.57,10.06-.1,1.11-.56,2.08-1.27,2.79-.7.7-1.65,1.15-2.75,1.24-1.7.14-3.37.25-5.01.34,1.2-5.08,4.51-9.88,9.61-14.43Z"/>
            <path class="cls-5" d="M116.19,119.63c-.08-1.2.09-2.14.25-2.75.21-.82.39-1.55.99-2.14.53-.53,1.24-.86,2.06-.93,3.29-.27,6.41-.41,9.53-.41s6.24.14,9.53.41c.38.03.74.13,1.07.27-2.17,2.36-3.73,4.55-4.8,6.23-2.03,3.2-4.74,7.57-5.52,13.74-.19,1.51-.24,2.91-.2,4.18-.03,0-.05,0-.08,0,0,0-5.21-.05-9.53-.41-.84-.07-1.56-.41-2.09-.94-.66-.66-.87-1.49-.96-2.12-.3-1.93-.43-7.57-.25-15.14Z"/>
          </g>
          <g>
            <path class="cls-4" d="M3,127.83c.06-3.35.27-6.71.57-10.06.1-1.11.56-2.08,1.27-2.79.7-.7,1.65-1.15,2.75-1.24,1.7-.14,3.37-.25,5.01-.34-1.2,5.08-4.51,9.88-9.61,14.43Z"/>
            <path class="cls-5" d="M28.88,132c.08,1.2-.09,2.14-.25,2.75-.21.82-.39,1.55-.99,2.14-.53.53-1.24.86-2.06.93-3.29.27-6.41.41-9.53.41s-6.24-.14-9.53-.41c-.38-.03-.74-.13-1.07-.27,2.17-2.36,3.73-4.55,4.8-6.23,2.03-3.2,4.74-7.57,5.52-13.74.19-1.51.24-2.91.2-4.18.03,0,.05,0,.08,0,0,0,5.21.05,9.53.41.84.07,1.56.41,2.09.94.66.66.87,1.49.96,2.12.3,1.93.43,7.57.25,15.14Z"/>
          </g>
        </g>
        <g>
          <g>
            <path class="cls-3" d="M119.3,81.47c-3.35-.02-6.71.1-10.07.33-1.11.07-2.09.51-2.82,1.2-.72.68-1.19,1.62-1.31,2.72-.18,1.7-.33,3.36-.46,5,5.11-1.08,9.99-4.27,14.66-9.25Z"/>
            <path class="cls-4" d="M104.65,106.67c2.41.12,4.77.18,7.13.18,4.11,0,8.21-.18,12.54-.53,1.1-.09,2.05-.54,2.75-1.24.71-.71,1.17-1.67,1.27-2.79.36-3.93.58-7.86.59-11.79.01-2.71-.07-5.42-.27-8.14-.13.04-.27.08-.4.13h-.02c-.2.07-.39.14-.59.21h0s0,0,0,0c-.19.07-.39.14-.58.21h0s0,0,0,0c-.19.07-.38.14-.57.22h-.01s-.01.01-.01.01c-.19.07-.37.15-.56.23h-.02c-.19.09-.37.17-.56.25h0c-.19.09-.37.17-.55.25h-.02c-.18.1-.36.18-.54.27h-.02c-.18.1-.36.19-.53.28h-.02c-.18.1-.36.2-.53.29h0c-.18.1-.35.2-.53.29h-.02c-.17.11-.34.21-.51.31h-.02c-.17.11-.35.22-.52.32h0c-8.31,5.09-14.13,13.54-16.85,21.04Z"/>
          </g>
          <g>
            <path class="cls-3" d="M132.09,92.42c.06,3.35.27,6.71.57,10.06.1,1.11.56,2.08,1.27,2.79.7.7,1.65,1.15,2.75,1.24,1.7.14,3.37.25,5.01.34-1.2-5.08-4.51-9.88-9.61-14.43Z"/>
            <path class="cls-5" d="M157.97,88.25c.08-1.2-.09-2.14-.25-2.75-.21-.82-.39-1.55-.99-2.14-.53-.53-1.24-.86-2.06-.93-3.29-.27-6.41-.41-9.53-.41s-6.24.14-9.53.41c-.38.03-.74.13-1.07.27,2.17,2.36,3.73,4.55,4.8,6.23,2.03,3.2,4.74,7.57,5.52,13.74.19,1.51.24,2.91.2,4.18.03,0,.05,0,.08,0,0,0,5.21-.05,9.53-.41.84-.07,1.56-.41,2.09-.94.66-.66.87-1.49.96-2.12.3-1.93.43-7.57.25-15.14Z"/>
          </g>
          <g>
            <path class="cls-4" d="M75.53,96.44c.06-3.35.27-6.71.57-10.06.1-1.11.56-2.08,1.27-2.79.7-.7,1.65-1.15,2.75-1.24,1.7-.14,3.37-.25,5.01-.34-1.2,5.08-4.51,9.88-9.61,14.43Z"/>
            <path class="cls-5" d="M101.41,100.62c.08,1.2-.09,2.14-.25,2.75-.21.82-.39,1.55-.99,2.14-.53.53-1.24.86-2.06.93-3.29.27-6.41.41-9.53.41s-6.24-.14-9.53-.41c-.38-.03-.74-.13-1.07-.27,2.17-2.36,3.73-4.55,4.8-6.23,2.03-3.2,4.74-7.57,5.52-13.74.19-1.51.24-2.91.2-4.18.03,0,.05,0,.08,0,0,0,5.21.05,9.53.41.84.07,1.56.41,2.09.94.66.66.87,1.49.96,2.12.3,1.93.43,7.57.25,15.14Z"/>
          </g>
        </g>
        <g>
          <g>
            <path class="cls-3" d="M25.77,106.85c3.35.02,6.71-.1,10.07-.33,1.11-.07,2.09-.51,2.82-1.2.72-.68,1.19-1.62,1.31-2.72.18-1.7.33-3.36.46-5-5.11,1.08-9.99,4.27-14.66,9.25Z"/>
            <path class="cls-4" d="M40.42,81.64c-2.41-.12-4.77-.18-7.13-.18-4.11,0-8.21.18-12.54.53-1.1.09-2.05.54-2.75,1.24-.71.71-1.17,1.67-1.27,2.79-.36,3.93-.58,7.86-.59,11.79-.01,2.71.07,5.42.27,8.14.13-.04.27-.08.4-.13h.02c.2-.07.39-.14.59-.21h0s0,0,0,0c.19-.07.39-.14.58-.21h0s0,0,0,0c.19-.07.38-.14.57-.22h.01s.01-.01.01-.01c.19-.07.37-.15.56-.23h.02c.19-.09.37-.17.56-.25h0c.19-.09.37-.17.55-.25h.02c.18-.1.36-.18.54-.27h.02c.18-.1.36-.19.53-.28h.02c.18-.1.36-.2.53-.29h0c.18-.1.35-.2.53-.29h.02c.17-.11.34-.21.51-.31h.02c.17-.11.35-.22.52-.32h0c8.31-5.09,14.13-13.54,16.85-21.04Z"/>
          </g>
          <path class="cls-5" d="M12.9,88.25c.08-1.2-.09-2.14-.25-2.75-.21-.82-.39-1.55-.99-2.14-.53-.53-1.24-.86-2.06-.93-3.29-.27-6.41-.41-9.53-.41s-6.24.14-9.53.41c-.38.03-.74.13-1.07.27,2.17,2.36,3.73,4.55,4.8,6.23,2.03,3.2,4.74,7.57,5.52,13.74.19,1.51.24,2.91.2,4.18.03,0,.05,0,.08,0,0,0,5.21-.05,9.53-.41.84-.07,1.56-.41,2.09-.94.66-.66.87-1.49.96-2.12.3-1.93.43-7.57.25-15.14Z"/>
          <g>
            <path class="cls-4" d="M69.53,92.42c-.06,3.35-.27,6.71-.57,10.06-.1,1.11-.56,2.08-1.27,2.79-.7.7-1.65,1.15-2.75,1.24-1.7.14-3.37.25-5.01.34,1.2-5.08,4.51-9.88,9.61-14.43Z"/>
            <path class="cls-5" d="M43.66,88.25c-.08-1.2.09-2.14.25-2.75.21-.82.39-1.55.99-2.14.53-.53,1.24-.86,2.06-.93,3.29-.27,6.41-.41,9.53-.41s6.24.14,9.53.41c.38.03.74.13,1.07.27-2.17,2.36-3.73,4.55-4.8,6.23-2.03,3.2-4.74,7.57-5.52,13.74-.19,1.51-.24,2.91-.2,4.18-.03,0-.05,0-.08,0,0,0-5.21-.05-9.53-.41-.84-.07-1.56-.41-2.09-.94-.66-.66-.87-1.49-.96-2.12-.3-1.93-.43-7.57-.25-15.14Z"/>
          </g>
        </g>
        <g>
          <g>
            <path class="cls-3" d="M46.77,50.08c-3.35-.02-6.71.1-10.07.33-1.11.07-2.09.51-2.82,1.2-.72.68-1.19,1.62-1.31,2.72-.18,1.7-.33,3.36-.46,5,5.11-1.08,9.99-4.27,14.66-9.25Z"/>
            <path class="cls-4" d="M32.11,75.29c2.41.12,4.77.18,7.13.18,4.11,0,8.21-.18,12.54-.53,1.1-.09,2.05-.54,2.75-1.24.71-.71,1.17-1.67,1.27-2.79.36-3.93.58-7.86.59-11.79.01-2.71-.07-5.42-.27-8.14-.13.04-.27.08-.4.13h-.02c-.2.07-.39.14-.59.21h0s0,0,0,0c-.19.07-.39.14-.58.21h0s0,0,0,0c-.19.07-.38.14-.57.22h-.01s-.01.01-.01.01c-.19.07-.37.15-.56.23h-.02c-.19.09-.37.17-.56.25h0c-.19.09-.37.17-.55.25h-.02c-.18.1-.36.18-.54.27h-.02c-.18.1-.36.19-.53.28h-.02c-.18.1-.36.2-.53.29h0c-.18.1-.35.2-.53.29h-.02c-.17.11-.34.21-.51.31h-.02c-.17.11-.35.22-.52.32h0c-8.31,5.09-14.13,13.54-16.85,21.04Z"/>
          </g>
          <g>
            <path class="cls-3" d="M98.3,75.46c3.35.02,6.71-.1,10.07-.33,1.11-.07,2.09-.51,2.82-1.2.72-.68,1.19-1.62,1.31-2.72.18-1.7.33-3.36.46-5-5.11,1.08-9.99,4.27-14.66,9.25Z"/>
            <path class="cls-4" d="M112.96,50.26c-2.41-.12-4.77-.18-7.13-.18-4.11,0-8.21.18-12.54.53-1.1.09-2.05.54-2.75,1.24-.71.71-1.17,1.67-1.27,2.79-.36,3.93-.58,7.86-.59,11.79-.01,2.71.07,5.42.27,8.14.13-.04.27-.08.4-.13h.02c.2-.07.39-.14.59-.21h0s0,0,0,0c.19-.07.39-.14.58-.21h0s0,0,0,0c.19-.07.38-.14.57-.22h.01s.01-.01.01-.01c.19-.07.37-.15.56-.23h.02c.19-.09.37-.17.56-.25h0c.19-.09.37-.17.55-.25h.02c.18-.1.36-.18.54-.27h.02c.18-.1.36-.19.53-.28h.02c.18-.1.36-.2.53-.29h0c.18-.1.35-.2.53-.29h.02c.17-.11.34-.21.51-.31h.02c.17-.11.35-.22.52-.32h0c8.31-5.09,14.13-13.54,16.85-21.04Z"/>
          </g>
          <g>
            <path class="cls-3" d="M59.55,61.04c.06,3.35.27,6.71.57,10.06.1,1.11.56,2.08,1.27,2.79.7.7,1.65,1.15,2.75,1.24,1.7.14,3.37.25,5.01.34-1.2-5.08-4.51-9.88-9.61-14.43Z"/>
            <path class="cls-5" d="M85.43,56.86c.08-1.2-.09-2.14-.25-2.75-.21-.82-.39-1.55-.99-2.14-.53-.53-1.24-.86-2.06-.93-3.29-.27-6.41-.41-9.53-.41s-6.24.14-9.53.41c-.38.03-.74.13-1.07.27,2.17,2.36,3.73,4.55,4.8,6.23,2.03,3.2,4.74,7.57,5.52,13.74.19,1.51.24,2.91.2,4.18.03,0,.05,0,.08,0,0,0,5.21-.05,9.53-.41.84-.07,1.56-.41,2.09-.94.66-.66.87-1.49.96-2.12.3-1.93.43-7.57.25-15.14Z"/>
          </g>
          <g>
            <path class="cls-4" d="M142.07,61.04c-.06,3.35-.27,6.71-.57,10.06-.1,1.11-.56,2.08-1.27,2.79-.7.7-1.65,1.15-2.75,1.24-1.7.14-3.37.25-5.01.34,1.2-5.08,4.51-9.88,9.61-14.43Z"/>
            <path class="cls-5" d="M116.19,56.86c-.08-1.2.09-2.14.25-2.75.21-.82.39-1.55.99-2.14.53-.53,1.24-.86,2.06-.93,3.29-.27,6.41-.41,9.53-.41s6.24.14,9.53.41c.38.03.74.13,1.07.27-2.17,2.36-3.73,4.55-4.8,6.23-2.03,3.2-4.74,7.57-5.52,13.74-.19,1.51-.24,2.91-.2,4.18-.03,0-.05,0-.08,0,0,0-5.21-.05-9.53-.41-.84-.07-1.56-.41-2.09-.94-.66-.66-.87-1.49-.96-2.12-.3-1.93-.43-7.57-.25-15.14Z"/>
          </g>
          <g>
            <path class="cls-4" d="M3,65.05c.06-3.35.27-6.71.57-10.06.1-1.11.56-2.08,1.27-2.79.7-.7,1.65-1.15,2.75-1.24,1.7-.14,3.37-.25,5.01-.34-1.2,5.08-4.51,9.88-9.61,14.43Z"/>
            <path class="cls-5" d="M28.88,69.23c.08,1.2-.09,2.14-.25,2.75-.21.82-.39,1.55-.99,2.14-.53.53-1.24.86-2.06.93-3.29.27-6.41.41-9.53.41s-6.24-.14-9.53-.41c-.38-.03-.74-.13-1.07-.27,2.17-2.36,3.73-4.55,4.8-6.23,2.03-3.2,4.74-7.57,5.52-13.74.19-1.51.24-2.91.2-4.18.03,0,.05,0,.08,0,0,0,5.21.05,9.53.41.84.07,1.56.41,2.09.94.66.66.87,1.49.96,2.12.3,1.93.43,7.57.25,15.14Z"/>
          </g>
        </g>
        <g>
          <g>
            <path class="cls-3" d="M119.3,18.69c-3.35-.02-6.71.1-10.07.33-1.11.07-2.09.51-2.82,1.2-.72.68-1.19,1.62-1.31,2.72-.18,1.7-.33,3.36-.46,5,5.11-1.08,9.99-4.27,14.66-9.25Z"/>
            <path class="cls-4" d="M104.65,43.9c2.41.12,4.77.18,7.13.18,4.11,0,8.21-.18,12.54-.53,1.1-.09,2.05-.54,2.75-1.24.71-.71,1.17-1.67,1.27-2.79.36-3.93.58-7.86.59-11.79.01-2.71-.07-5.42-.27-8.14-.13.04-.27.08-.4.13h-.02c-.2.07-.39.14-.59.21h0s0,0,0,0c-.19.07-.39.14-.58.21h0s0,0,0,0c-.19.07-.38.14-.57.22h-.01s-.01.01-.01.01c-.19.07-.37.15-.56.23h-.02c-.19.09-.37.17-.56.25h0c-.19.09-.37.17-.55.25h-.02c-.18.1-.36.18-.54.27h-.02c-.18.1-.36.19-.53.28h-.02c-.18.1-.36.2-.53.29h0c-.18.1-.35.2-.53.29h-.02c-.17.11-.34.21-.51.31h-.02c-.17.11-.35.22-.52.32h0c-8.31,5.09-14.13,13.54-16.85,21.04Z"/>
          </g>
          <g>
            <path class="cls-3" d="M132.09,29.65c.06,3.35.27,6.71.57,10.06.1,1.11.56,2.08,1.27,2.79.7.7,1.65,1.15,2.75,1.24,1.7.14,3.37.25,5.01.34-1.2-5.08-4.51-9.88-9.61-14.43Z"/>
            <path class="cls-5" d="M157.97,25.48c.08-1.2-.09-2.14-.25-2.75-.21-.82-.39-1.55-.99-2.14-.53-.53-1.24-.86-2.06-.93-3.29-.27-6.41-.41-9.53-.41s-6.24.14-9.53.41c-.38.03-.74.13-1.07.27,2.17,2.36,3.73,4.55,4.8,6.23,2.03,3.2,4.74,7.57,5.52,13.74.19,1.51.24,2.91.2,4.18.03,0,.05,0,.08,0,0,0,5.21-.05,9.53-.41.84-.07,1.56-.41,2.09-.94.66-.66.87-1.49.96-2.12.3-1.93.43-7.57.25-15.14Z"/>
          </g>
          <g>
            <path class="cls-4" d="M75.53,33.67c.06-3.35.27-6.71.57-10.06.1-1.11.56-2.08,1.27-2.79.7-.7,1.65-1.15,2.75-1.24,1.7-.14,3.37-.25,5.01-.34-1.2,5.08-4.51,9.88-9.61,14.43Z"/>
            <path class="cls-5" d="M101.41,37.84c.08,1.2-.09,2.14-.25,2.75-.21.82-.39,1.55-.99,2.14-.53.53-1.24.86-2.06.93-3.29.27-6.41.41-9.53.41s-6.24-.14-9.53-.41c-.38-.03-.74-.13-1.07-.27,2.17-2.36,3.73-4.55,4.8-6.23,2.03-3.2,4.74-7.57,5.52-13.74.19-1.51.24-2.91.2-4.18.03,0,.05,0,.08,0,0,0,5.21.05,9.53.41.84.07,1.56.41,2.09.94.66.66.87,1.49.96,2.12.3,1.93.43,7.57.25,15.14Z"/>
          </g>
        </g>
        <g>
          <g>
            <path class="cls-3" d="M25.77,44.08c3.35.02,6.71-.1,10.07-.33,1.11-.07,2.09-.51,2.82-1.2.72-.68,1.19-1.62,1.31-2.72.18-1.7.33-3.36.46-5-5.11,1.08-9.99,4.27-14.66,9.25Z"/>
            <path class="cls-4" d="M40.42,18.87c-2.41-.12-4.77-.18-7.13-.18-4.11,0-8.21.18-12.54.53-1.1.09-2.05.54-2.75,1.24-.71.71-1.17,1.67-1.27,2.79-.36,3.93-.58,7.86-.59,11.79-.01,2.71.07,5.42.27,8.14.13-.04.27-.08.4-.13h.02c.2-.07.39-.14.59-.21h0s0,0,0,0c.19-.07.39-.14.58-.21h0s0,0,0,0c.19-.07.38-.14.57-.22h.01s.01-.01.01-.01c.19-.07.37-.15.56-.23h.02c.19-.09.37-.17.56-.25h0c.19-.09.37-.17.55-.25h.02c.18-.1.36-.18.54-.27h.02c.18-.1.36-.19.53-.28h.02c.18-.1.36-.2.53-.29h0c.18-.1.35-.2.53-.29h.02c.17-.11.34-.21.51-.31h.02c.17-.11.35-.22.52-.32h0c8.31-5.09,14.13-13.54,16.85-21.04Z"/>
          </g>
          <path class="cls-5" d="M12.9,25.48c.08-1.2-.09-2.14-.25-2.75-.21-.82-.39-1.55-.99-2.14-.53-.53-1.24-.86-2.06-.93-3.29-.27-6.41-.41-9.53-.41s-6.24.14-9.53.41c-.38.03-.74.13-1.07.27,2.17,2.36,3.73,4.55,4.8,6.23,2.03,3.2,4.74,7.57,5.52,13.74.19,1.51.24,2.91.2,4.18.03,0,.05,0,.08,0,0,0,5.21-.05,9.53-.41.84-.07,1.56-.41,2.09-.94.66-.66.87-1.49.96-2.12.3-1.93.43-7.57.25-15.14Z"/>
          <g>
            <path class="cls-4" d="M69.53,29.65c-.06,3.35-.27,6.71-.57,10.06-.1,1.11-.56,2.08-1.27,2.79-.7.7-1.65,1.15-2.75,1.24-1.7.14-3.37.25-5.01.34,1.2-5.08,4.51-9.88,9.61-14.43Z"/>
            <path class="cls-5" d="M43.66,25.48c-.08-1.2.09-2.14.25-2.75.21-.82.39-1.55.99-2.14.53-.53,1.24-.86,2.06-.93,3.29-.27,6.41-.41,9.53-.41s6.24.14,9.53.41c.38.03.74.13,1.07.27-2.17,2.36-3.73,4.55-4.8,6.23-2.03,3.2-4.74,7.57-5.52,13.74-.19,1.51-.24,2.91-.2,4.18-.03,0-.05,0-.08,0,0,0-5.21-.05-9.53-.41-.84-.07-1.56-.41-2.09-.94-.66-.66-.87-1.49-.96-2.12-.3-1.93-.43-7.57-.25-15.14Z"/>
          </g>
        </g>
        <g>
          <path class="cls-4" d="M32.11,12.52c2.41.12,4.77.18,7.13.18,4.11,0,8.21-.18,12.54-.53,1.1-.09,2.05-.54,2.75-1.24.71-.71,1.17-1.67,1.27-2.79.36-3.93.58-7.86.59-11.79.01-2.71-.07-5.42-.27-8.14-.13.04-.27.08-.4.13h-.02c-.2.07-.39.14-.59.21h0s0,0,0,0c-.19.07-.39.14-.58.21h0s0,0,0,0c-.19.07-.38.14-.57.22h-.01s-.01.01-.01.01c-.19.07-.37.15-.56.23h-.02c-.19.09-.37.17-.56.25h0c-.19.09-.37.17-.55.25h-.02c-.18.1-.36.18-.54.27h-.02c-.18.1-.36.19-.53.28h-.02c-.18.1-.36.2-.53.29h0c-.18.1-.35.2-.53.29h-.02c-.17.11-.34.21-.51.31h-.02c-.17.11-.35.22-.52.32h0c-8.31,5.09-14.13,13.54-16.85,21.04Z"/>
          <g>
            <path class="cls-3" d="M98.3,12.69c3.35.02,6.71-.1,10.07-.33,1.11-.07,2.09-.51,2.82-1.2.72-.68,1.19-1.62,1.31-2.72.18-1.7.33-3.36.46-5-5.11,1.08-9.99,4.27-14.66,9.25Z"/>
            <path class="cls-4" d="M112.96-12.52c-2.41-.12-4.77-.18-7.13-.18-4.11,0-8.21.18-12.54.53-1.1.09-2.05.54-2.75,1.24-.71.71-1.17,1.67-1.27,2.79-.36,3.93-.58,7.86-.59,11.79-.01,2.71.07,5.42.27,8.14.13-.04.27-.08.4-.13h.02c.2-.07.39-.14.59-.21h0s0,0,0,0c.19-.07.39-.14.58-.21h0s0,0,0,0c.19-.07.38-.14.57-.22h.01s.01-.01.01-.01c.19-.07.37-.15.56-.23h.02c.19-.09.37-.17.56-.25h0c.19-.09.37-.17.55-.25h.02c.18-.1.36-.18.54-.27h.02c.18-.1.36-.19.53-.28h.02c.18-.1.36-.2.53-.29h0c.18-.1.35-.2.53-.29h.02c.17-.11.34-.21.51-.31h.02c.17-.11.35-.22.52-.32h0c8.31-5.09,14.13-13.54,16.85-21.04Z"/>
          </g>
          <g>
            <path class="cls-3" d="M59.55-1.73c.06,3.35.27,6.71.57,10.06.1,1.11.56,2.08,1.27,2.79.7.7,1.65,1.15,2.75,1.24,1.7.14,3.37.25,5.01.34-1.2-5.08-4.51-9.88-9.61-14.43Z"/>
            <path class="cls-5" d="M85.43-5.91c.08-1.2-.09-2.14-.25-2.75-.21-.82-.39-1.55-.99-2.14-.53-.53-1.24-.86-2.06-.93-3.29-.27-6.41-.41-9.53-.41s-6.24.14-9.53.41c-.38.03-.74.13-1.07.27,2.17,2.36,3.73,4.55,4.8,6.23,2.03,3.2,4.74,7.57,5.52,13.74.19,1.51.24,2.91.2,4.18.03,0,.05,0,.08,0,0,0,5.21-.05,9.53-.41.84-.07,1.56-.41,2.09-.94.66-.66.87-1.49.96-2.12.3-1.93.43-7.57.25-15.14Z"/>
          </g>
          <g>
            <path class="cls-4" d="M142.07-1.73c-.06,3.35-.27,6.71-.57,10.06-.1,1.11-.56,2.08-1.27,2.79-.7.7-1.65,1.15-2.75,1.24-1.7.14-3.37.25-5.01.34,1.2-5.08,4.51-9.88,9.61-14.43Z"/>
            <path class="cls-5" d="M116.19-5.91c-.08-1.2.09-2.14.25-2.75.21-.82.39-1.55.99-2.14.53-.53,1.24-.86,2.06-.93,3.29-.27,6.41-.41,9.53-.41s6.24.14,9.53.41c.38.03.74.13,1.07.27-2.17,2.36-3.73,4.55-4.8,6.23-2.03,3.2-4.74,7.57-5.52,13.74-.19,1.51-.24,2.91-.2,4.18-.03,0-.05,0-.08,0,0,0-5.21-.05-9.53-.41-.84-.07-1.56-.41-2.09-.94-.66-.66-.87-1.49-.96-2.12-.3-1.93-.43-7.57-.25-15.14Z"/>
          </g>
          <g>
            <path class="cls-4" d="M3,2.28c.06-3.35.27-6.71.57-10.06.1-1.11.56-2.08,1.27-2.79.7-.7,1.65-1.15,2.75-1.24,1.7-.14,3.37-.25,5.01-.34C11.4-7.06,8.09-2.27,3,2.28Z"/>
            <path class="cls-5" d="M28.88,6.46c.08,1.2-.09,2.14-.25,2.75-.21.82-.39,1.55-.99,2.14-.53.53-1.24.86-2.06.93-3.29.27-6.41.41-9.53.41s-6.24-.14-9.53-.41c-.38-.03-.74-.13-1.07-.27,2.17-2.36,3.73-4.55,4.8-6.23,2.03-3.2,4.74-7.57,5.52-13.74.19-1.51.24-2.91.2-4.18.03,0,.05,0,.08,0,0,0,5.21.05,9.53.41.84.07,1.56.41,2.09.94.66.66.87,1.49.96,2.12.3,1.93.43,7.57.25,15.14Z"/>
          </g>
        </g>
      </g>
    </pattern>
  </defs>
  <g id="Layer_1-2" data-name="Layer 1">
    <g>
      <rect class="cls-6" y="0" width="208.32" height="197.61" rx="29.33" ry="29.33"/>
      <rect class="cls-7" x="33.44" y="30.97" width="141.85" height="140.6"/>
      <polygon class="cls-1" points="169.92 33.3 169.92 166.31 38.82 166.31 38.82 33.3 169.92 33.3"/>
    </g>
  </g>
</svg>