<?xml version="1.0" encoding="UTF-8"?>
<svg id="Layer_2" data-name="Layer 2" xmlns="http://www.w3.org/2000/svg" viewBox="0 0 208.32 197.61">
  <defs>
    <style>
      .cls-1 {
        fill: #0067a6;
      }

      .cls-1, .cls-2, .cls-3, .cls-4, .cls-5 {
        stroke-width: 0px;
      }

      .cls-2 {
        fill: #8dbb22;
      }

      .cls-3 {
        fill: #1995b8;
      }

      .cls-4 {
        fill: #414141;
      }

      .cls-5 {
        fill: #fff;
      }
    </style>
  </defs>
  <g id="Layer_1-2" data-name="Layer 1">
    <g>
      <rect class="cls-4" x="0" width="208.32" height="197.61" rx="29.33" ry="29.33"/>
      <rect class="cls-5" x="33.22" y="58.01" width="142.78" height="81.59"/>
      <g>
        <path class="cls-2" d="M56.52,116.61c2.59.13,5.13.19,7.68.19,4.42,0,8.83-.19,13.5-.57,1.18-.1,2.21-.58,2.96-1.33.76-.76,1.25-1.8,1.36-3,.39-4.23.62-8.46.64-12.68.01-2.91-.07-5.83-.29-8.75-.14.04-.29.09-.43.14h-.02c-.21.08-.42.15-.63.22h0s0,0,0,0c-.21.07-.42.15-.63.23h0s0,0,0,0c-.2.08-.41.15-.61.23h-.02s-.01.01-.01.01c-.2.08-.4.16-.6.24h-.02c-.2.09-.4.18-.6.27h0c-.2.09-.4.18-.59.27h-.02c-.19.1-.39.2-.58.29h-.02c-.19.1-.38.2-.57.3h-.02c-.19.11-.38.21-.57.31h0c-.19.11-.38.21-.57.32h-.02c-.19.12-.37.22-.55.33h-.02c-.19.12-.37.23-.56.35h0c-8.94,5.47-15.2,14.57-18.13,22.64Z"/>
        <path class="cls-1" d="M45.76,101.06c.07,3.61.29,7.22.62,10.83.11,1.2.6,2.24,1.36,3,.75.75,1.78,1.24,2.96,1.33,1.83.15,3.63.27,5.4.36-1.29-5.47-4.86-10.63-10.34-15.52Z"/>
        <path class="cls-3" d="M64.2,81.62c-4.42,0-8.83.19-13.5.57-1.17.1-2.18.58-2.92,1.32-.77.77-1.27,1.82-1.4,3.04-.47,4.23-.66,8.45-.64,12.65,0,.32,0,.64,0,.97,4.3-.12,7.61,1.53,9.92,4.93,3.09-4.3,8.56-9.24,14.9-12.28h0s.26-.12.26-.12h.02c.16-.08.31-.16.47-.23l.04-.02c.15-.07.31-.14.47-.21l.04-.02c.16-.07.32-.14.48-.2h0c.16-.07.33-.14.49-.2h0s.01,0,.01,0c.33-.13.66-.25.99-.37h.02c.16-.07.33-.12.49-.18h.03c.16-.06.32-.12.49-.17h.03c.16-.06.32-.11.49-.16h.04c.16-.06.33-.1.49-.15h.02c.17-.05.33-.09.5-.14h.03c.17-.05.33-.09.5-.13h0s.01,0,.01,0c.17-.04.34-.07.51-.11h.01c.17-.04.33-.07.5-.1h.04c.17-.04.33-.07.5-.09h.03c.17-.03.33-.06.5-.08h.04c.17-.03.33-.05.5-.07h.03c.17-.02.33-.04.5-.05h.04c.17-.02.34-.03.5-.04h.02s0,0,.01,0c.55.05,1.09.1,1.62.16-.09-1.2-.2-2.4-.33-3.6-.13-1.21-.63-2.27-1.4-3.04-.74-.74-1.75-1.22-2.92-1.32-4.67-.38-9.08-.57-13.5-.57Z"/>
      </g>
      <rect class="cls-4" x="111.06" y="82.52" width="52.54" height="5.3"/>
      <rect class="cls-1" x="101.41" y="82.11" width="6.39" height="5.8" rx="1.87" ry="1.87"/>
      <rect class="cls-2" x="101.41" y="90.46" width="6.39" height="5.8" rx="1.87" ry="1.87"/>
      <rect class="cls-3" x="101.41" y="98.81" width="6.39" height="5.8" rx="1.87" ry="1.87"/>
      <rect class="cls-4" x="111.06" y="90.71" width="52.54" height="5.3"/>
      <rect class="cls-4" x="111.06" y="98.9" width="52.54" height="5.3"/>
      <rect class="cls-4" x="125.84" y="107.81" width="37.76" height="5.3"/>
    </g>
  </g>
</svg>