<?xml version="1.0" encoding="UTF-8"?>
<svg id="Layer_2" data-name="Layer 2" xmlns="http://www.w3.org/2000/svg" viewBox="0 0 208.32 197.61">
  <defs>
    <style>
      .cls-1 {
        fill: #90278d;
      }

      .cls-1, .cls-2, .cls-3, .cls-4, .cls-5, .cls-6, .cls-7, .cls-8, .cls-9, .cls-10, .cls-11, .cls-12, .cls-13, .cls-14 {
        stroke-width: 0px;
      }

      .cls-1, .cls-2, .cls-4, .cls-5, .cls-6, .cls-9, .cls-10, .cls-12, .cls-14 {
        opacity: .34;
      }

      .cls-2 {
        fill: #faaf40;
      }

      .cls-3 {
        fill: #0067a6;
      }

      .cls-4 {
        fill: #ec1c23;
      }

      .cls-15 {
        font-family: AvenirNext-Bold, 'Avenir Next';
        font-size: 9.27px;
        font-weight: 700;
      }

      .cls-15, .cls-13 {
        fill: #fff;
      }

      .cls-5 {
        fill: #fff100;
      }

      .cls-6 {
        fill: #223f99;
      }

      .cls-7 {
        fill: #8dbb22;
      }

      .cls-8 {
        fill: #1995b8;
      }

      .cls-9 {
        fill: #f16622;
      }

      .cls-10 {
        fill: #009346;
      }

      .cls-11 {
        fill: #414141;
      }

      .cls-12 {
        fill: #f6931e;
      }

      .cls-14 {
        fill: #583f98;
      }
    </style>
  </defs>
  <g id="Layer_1-2" data-name="Layer 1">
    <g>
      <rect class="cls-11" width="208.32" height="197.61" rx="29.33" ry="29.33"/>
      <rect class="cls-3" x="123.77" y="34.83" width="48.75" height="53.38" rx="12.2" ry="12.2" transform="translate(86.62 209.66) rotate(-90)"/>
      <rect class="cls-8" x="131.95" y="70.45" width="53.38" height="48.75" rx="12.2" ry="12.2"/>
      <rect class="cls-7" x="125.01" y="101.19" width="48.75" height="53.38" rx="12.2" ry="12.2" transform="translate(21.51 277.27) rotate(-90)"/>
      <path class="cls-10" d="M31.99,66.42c-6.26,6.26-10.17,13.03-12.46,21.58l46.5,12.46-34.04-34.04Z"/>
      <g>
        <path class="cls-8" d="M20.54,113.5c-1.25-1.98-2.55-16.64-.32-25.31l.18-.71,48.37,12.96-47.94,13.52-.29-.46Z"/>
        <path class="cls-13" d="M20.93,88.38l45.1,12.09-44.87,12.65c-1.05-1.65-2.5-15.91-.23-24.74M19.89,86.59l-.37,1.42c-2.2,8.55-1.09,23.51.41,25.88l.58.92,1.04-.29,44.87-12.65,5.09-1.44-5.11-1.37-45.1-12.09-1.42-.38h0Z"/>
      </g>
      <g>
        <path class="cls-3" d="M31.99,133.44c-5.65-5.81-9.34-12.19-11.54-19.99l43.07-11.54-31.53,31.53Z"/>
        <path class="cls-13" d="M61.01,103.36l-29.01,29.01c-5.15-5.44-8.49-11.21-10.62-18.39l17.63-4.72,10.96-2.94,11.04-2.96M66.03,100.46c-9.14,2.45-18.27,4.9-27.41,7.34l-19.1,5.12c2.29,8.55,6.2,15.32,12.46,21.58l34.04-34.04h0Z"/>
      </g>
      <path class="cls-6" d="M31.99,134.51c6.26,6.26,13.03,10.17,21.58,12.46l12.46-46.5-34.04,34.04Z"/>
      <path class="cls-14" d="M53.57,146.97c8.55,2.29,16.37,2.29,24.92,0l-12.46-46.5-12.46,46.5Z"/>
      <path class="cls-1" d="M78.49,146.97c8.55-2.29,15.32-6.2,21.58-12.46l-34.04-34.04,12.46,46.5Z"/>
      <path class="cls-4" d="M100.07,134.51c6.26-6.26,10.17-13.03,12.46-21.58l-46.5-12.46,34.04,34.04Z"/>
      <path class="cls-9" d="M112.54,112.92c2.29-8.55,2.29-16.37,0-24.92l-46.5,12.46,46.5,12.46Z"/>
      <path class="cls-12" d="M66.03,100.46l46.5-12.46c-2.29-8.55-6.2-15.32-12.46-21.58l-34.04,34.04Z"/>
      <path class="cls-2" d="M100.07,66.42c-6.26-6.26-13.03-10.17-21.58-12.46l-12.46,46.5,34.04-34.04Z"/>
      <path class="cls-5" d="M78.49,53.96c-8.55-2.29-16.37-2.29-24.92,0l12.46,46.5,12.46-46.5Z"/>
      <g>
        <path class="cls-7" d="M33.05,66.42c5.81-5.65,12.19-9.34,19.99-11.54l11.54,43.07-31.53-31.53Z"/>
        <path class="cls-13" d="M52.52,55.82l10.62,39.63-29.01-29.01c5.44-5.15,11.21-8.49,18.39-10.62M53.57,53.96c-8.55,2.29-15.32,6.2-21.58,12.46l34.04,34.04-12.46-46.5h0Z"/>
      </g>
      <circle class="cls-13" cx="66.03" cy="100.46" r="21.33"/>
      <text class="cls-15" transform="translate(129.16 132)"><tspan x="0" y="0">#8ebb22</tspan></text>
      <text class="cls-15" transform="translate(137.97 94.82)"><tspan x="0" y="0">#1996b8</tspan></text>
      <text class="cls-15" transform="translate(127.4 63.2)"><tspan x="0" y="0">#0068a6</tspan></text>
    </g>
  </g>
</svg>