<?xml version="1.0" encoding="UTF-8"?>
<svg id="Layer_2" data-name="Layer 2" xmlns="http://www.w3.org/2000/svg" xmlns:xlink="http://www.w3.org/1999/xlink" viewBox="0 0 208.32 197.61">
  <defs>
    <style>
      .cls-1 {
        clip-path: url(#clippath);
      }

      .cls-2, .cls-3, .cls-4 {
        fill: none;
      }

      .cls-2, .cls-5, .cls-6, .cls-7, .cls-8, .cls-9 {
        stroke-width: 0px;
      }

      .cls-3 {
        stroke-width: .25px;
      }

      .cls-3, .cls-4 {
        stroke: #322d2a;
        stroke-miterlimit: 10;
      }

      .cls-5 {
        fill: #0067a6;
      }

      .cls-10 {
        clip-path: url(#clippath-1);
      }

      .cls-4 {
        stroke-width: .28px;
      }

      .cls-6 {
        fill: #8dbb22;
      }

      .cls-7 {
        fill: #1995b8;
      }

      .cls-8 {
        fill: #414141;
      }

      .cls-9 {
        fill: #fff;
      }
    </style>
    <clipPath id="clippath">
      <polygon class="cls-2" points="114.37 74.5 32.94 83.47 36.75 118.02 37.26 122.69 41.07 157.23 73.28 153.68 69.47 119.14 118.69 113.71 114.37 74.5"/>
    </clipPath>
    <clipPath id="clippath-1">
      <polygon class="cls-2" points="171.73 87.68 91.55 70.89 84.42 104.91 83.46 109.51 76.34 143.52 108.05 150.16 115.17 116.15 163.64 126.3 171.73 87.68"/>
    </clipPath>
  </defs>
  <g id="Layer_1-2" data-name="Layer 1">
    <g>
      <rect class="cls-8" width="208.32" height="197.61" rx="29.33" ry="29.33"/>
      <g>
        <g>
          <rect class="cls-9" x="34.9" y="40.82" width="81.92" height="116.23" transform="translate(-10.38 8.91) rotate(-6.29)"/>
          <rect class="cls-9" x="34.88" y="40.55" width="81.92" height="116.5" transform="translate(-10.37 8.9) rotate(-6.29)"/>
          <rect class="cls-7" x="37.28" y="57.98" width="70.28" height="7.09" transform="translate(151.14 114.75) rotate(173.71)"/>
          <rect class="cls-8" x="38.33" y="67.86" width="57.14" height="7.09" transform="translate(141.22 135.06) rotate(173.71)"/>
          <rect class="cls-8" x="36.3" y="51.6" width="38.34" height="3.83" transform="translate(116.46 100.62) rotate(173.71)"/>
          <rect class="cls-8" x="75.3" y="143.68" width="38.34" height="3.83" transform="translate(204.31 279.96) rotate(173.71)"/>
          <line class="cls-4" x1="73.55" y1="136.31" x2="111.26" y2="132.15"/>
          <line class="cls-4" x1="73.73" y1="137.95" x2="111.44" y2="133.8"/>
          <line class="cls-4" x1="73.18" y1="133.03" x2="110.89" y2="128.87"/>
          <line class="cls-4" x1="73.36" y1="134.67" x2="111.07" y2="130.51"/>
          <line class="cls-4" x1="72.82" y1="129.75" x2="110.53" y2="125.59"/>
          <line class="cls-4" x1="73" y1="131.39" x2="110.71" y2="127.23"/>
          <line class="cls-4" x1="72.46" y1="126.46" x2="110.17" y2="122.31"/>
          <line class="cls-4" x1="72.64" y1="128.1" x2="110.35" y2="123.95"/>
          <line class="cls-4" x1="72.1" y1="123.18" x2="109.81" y2="119.02"/>
          <line class="cls-4" x1="72.28" y1="124.82" x2="109.99" y2="120.67"/>
          <line class="cls-4" x1="73.92" y1="139.72" x2="111.63" y2="135.56"/>
          <line class="cls-3" x1="74.13" y1="141.6" x2="103.58" y2="138.36"/>
          <g class="cls-1">
            <g>
              <path class="cls-5" d="M59.9,103.4c-.58-4.49-1.35-8.97-2.26-13.43-.3-1.48-1.06-2.71-2.11-3.55-1.04-.84-2.39-1.3-3.88-1.26-2.31.06-4.56.16-6.78.29,2.37,6.65,7.52,12.6,15.03,17.95Z"/>
              <path class="cls-5" d="M74.61,116.22c4.49-.58,8.97-1.35,13.43-2.26,1.48-.3,2.71-1.06,3.55-2.11.84-1.04,1.3-2.39,1.26-3.88-.06-2.31-.16-4.56-.29-6.78-6.65,2.37-12.6,7.52-17.95,15.03Z"/>
              <path class="cls-6" d="M93.49,79.64c-3.25.2-6.43.47-9.6.82-5.51.61-10.99,1.45-16.76,2.57-1.46.28-2.67,1.03-3.51,2.07-.85,1.06-1.32,2.42-1.29,3.93.1,5.33.39,10.64.95,15.92.38,3.64.9,7.26,1.56,10.88.17-.08.35-.15.52-.23h.03c.25-.13.51-.25.76-.37h0s0,0,0,0c.25-.12.5-.24.75-.37h0s0,0,0,0c.24-.12.49-.25.73-.38h.02s.01-.02.01-.02c.24-.13.48-.26.72-.39l.03-.02c.24-.13.48-.27.71-.4h.01c.24-.14.47-.28.7-.42l.03-.02c.23-.14.46-.28.69-.43h.02c.23-.16.45-.3.68-.45l.03-.02c.23-.15.45-.3.67-.46h.01c.22-.16.44-.32.66-.47l.03-.02c.22-.16.43-.31.65-.47l.02-.02c.22-.16.43-.33.65-.49h0c10.41-8.06,16.96-20.27,19.51-30.75Z"/>
              <path class="cls-5" d="M32.74,134.57c.57,4.37,1.31,8.72,2.2,13.06.29,1.44,1.03,2.63,2.06,3.46,1.01.81,2.32,1.26,3.77,1.22,2.24-.06,4.44-.16,6.6-.28-2.3-6.47-7.32-12.25-14.63-17.46Z"/>
              <path class="cls-6" d="M68.33,152.94c-.19-3.16-.46-6.25-.8-9.34-.59-5.36-1.41-10.7-2.5-16.31-.28-1.42-1-2.6-2.02-3.42-1.03-.82-2.36-1.28-3.82-1.25-5.19.1-10.35.38-15.48.92-3.54.37-7.07.87-10.59,1.52.07.17.15.34.22.5v.03c.13.25.24.49.36.74h0s0,.01,0,.01c.12.24.24.49.36.73h0s0,0,0,0c.12.24.24.47.37.71v.02s.02.01.02.01c.12.23.25.47.38.7l.02.03c.13.23.26.46.39.69h0c.13.24.27.47.41.69l.02.03c.14.22.28.45.42.67v.02c.15.22.3.44.44.66l.02.03c.15.22.29.44.44.66h0c.15.23.3.44.45.66l.02.02c.15.21.31.42.46.63l.02.02c.16.21.32.42.48.63h0c7.84,10.13,19.72,16.51,29.91,18.98Z"/>
              <path class="cls-7" d="M30.96,109.84c.03.27.14,1.43.46,2.93.21,1,.43,2.04.95,3.26.54,1.28,1.16,2.2,1.31,2.4,1.8,2.47,8.42,1.73,19.9-.45,3.11-.59,5.73-1.13,7.64-1.53-.91-.65-2.3-1.63-4-2.8-2.68-1.85-4.44-2.95-4.91-3.33-4.29-3.49-6.83-7.28-8.24-9.8l-.19-.3-.02-.03c-.11-.18-.22-.36-.33-.54l-.03-.04c-.11-.18-.21-.36-.32-.54l-.02-.04c-.11-.19-.21-.37-.32-.57-.11-.19-.21-.38-.32-.59v-.02c-.21-.38-.41-.77-.6-1.16v-.03c-.11-.19-.2-.38-.29-.57l-.02-.03c-.09-.19-.18-.38-.26-.57l-.02-.04c-.08-.19-.17-.38-.25-.57l-.02-.04c-.08-.19-.16-.39-.24-.58v-.03c-.09-.2-.16-.39-.24-.59v-.03c-.09-.2-.16-.4-.24-.62-.07-.2-.14-.4-.21-.62-.07-.2-.13-.4-.19-.6v-.05c-.07-.2-.13-.4-.19-.6v-.03c-.06-.2-.12-.4-.17-.6v-.04c-.06-.2-.11-.4-.16-.6v-.04c-.05-.2-.1-.4-.14-.61v-.04c-.05-.2-.09-.41-.13-.61,0,0,0-.03,0-.04-.02-.67-.02-1.34-.01-2-1.48.27-2.96.57-4.44.9-1.5.33-2.75,1.08-3.6,2.13-.83,1.01-1.29,2.3-1.25,3.75.15,5.75.5,11.16,1.1,16.55Z"/>
              <path class="cls-6" d="M106.35,78.12c1.94-.31,3.85-.57,5.77-.78,3.33-.37,6.67-.59,10.22-.69.9-.03,1.71.25,2.34.76.64.51,1.09,1.25,1.28,2.15.64,3.16,1.17,6.32,1.54,9.5.25,2.19.43,4.4.51,6.62-.11-.02-.22-.04-.34-.07h-.02c-.17-.04-.33-.07-.49-.11h0s0,0,0,0c-.16-.04-.33-.08-.49-.12h0s0,0,0,0c-.16-.04-.32-.08-.48-.13h-.01s0,0,0,0c-.16-.04-.32-.09-.47-.13h-.02c-.16-.05-.32-.1-.47-.15h0c-.16-.05-.31-.1-.47-.16h-.02c-.15-.06-.31-.11-.46-.17h-.01c-.15-.06-.31-.12-.46-.17h-.02c-.15-.07-.31-.13-.46-.19h0c-.15-.06-.3-.13-.45-.19h-.02c-.15-.07-.3-.14-.44-.2h-.02c-.15-.07-.3-.14-.45-.21h0c-7.19-3.38-12.66-9.71-15.53-15.55Z"/>
              <path class="cls-7" d="M95.49,101.48c.03.27.14,1.4.45,2.88.21.98.43,2,.93,3.2.53,1.26,1.14,2.16,1.28,2.36,1.77,2.42,8.27,1.7,19.54-.44,3.06-.58,5.62-1.1,7.5-1.5-.9-.64-2.26-1.6-3.92-2.75-2.63-1.82-4.36-2.9-4.83-3.27-4.21-3.42-6.7-7.15-8.09-9.62l-.18-.29-.02-.03c-.11-.18-.22-.35-.33-.53l-.03-.04c-.11-.18-.21-.35-.31-.53l-.02-.04c-.11-.18-.21-.37-.32-.56-.1-.19-.21-.38-.31-.58v-.02c-.21-.38-.41-.76-.59-1.14v-.03c-.1-.19-.19-.38-.28-.56l-.02-.03c-.09-.19-.17-.37-.26-.56l-.02-.04c-.08-.19-.16-.37-.24-.56l-.02-.04c-.08-.19-.16-.38-.23-.57v-.03c-.09-.19-.16-.39-.23-.58v-.03c-.09-.19-.16-.39-.23-.61-.07-.2-.14-.39-.21-.6-.06-.2-.13-.39-.19-.59v-.04c-.07-.19-.13-.39-.18-.59v-.03c-.06-.2-.12-.39-.17-.59v-.04c-.06-.2-.11-.39-.15-.59v-.04c-.05-.2-.1-.4-.14-.59v-.04c-.05-.2-.09-.4-.12-.6,0,0,0-.03,0-.04-.02-.66-.02-1.31-.01-1.96-1.46.27-2.91.56-4.36.88-1.47.32-2.7,1.06-3.53,2.09-.81.99-1.27,2.26-1.23,3.68.15,5.64.5,10.96,1.08,16.25Z"/>
            </g>
          </g>
        </g>
        <g>
          <rect class="cls-9" x="86.56" y="40.82" width="81.92" height="116.23" transform="translate(22.99 -24.04) rotate(11.83)"/>
          <rect class="cls-9" x="86.59" y="40.55" width="81.92" height="116.5" transform="translate(22.96 -24.04) rotate(11.83)"/>
          <rect class="cls-7" x="100.75" y="58.76" width="70.28" height="7.09" transform="translate(256.12 151.15) rotate(-168.17)"/>
          <rect class="cls-8" x="99" y="66.44" width="57.14" height="7.09" transform="translate(238.09 164.64) rotate(-168.17)"/>
          <rect class="cls-8" x="103.1" y="47.51" width="38.34" height="3.83" transform="translate(231.82 122.85) rotate(-168.17)"/>
          <rect class="cls-8" x="111.54" y="147.15" width="38.34" height="3.83" transform="translate(228.08 321.75) rotate(-168.17)"/>
          <line class="cls-4" x1="113.71" y1="133.74" x2="150.84" y2="141.51"/>
          <line class="cls-4" x1="113.37" y1="135.35" x2="150.5" y2="143.13"/>
          <line class="cls-4" x1="114.38" y1="130.51" x2="151.52" y2="138.28"/>
          <line class="cls-4" x1="114.05" y1="132.12" x2="151.18" y2="139.9"/>
          <line class="cls-4" x1="115.06" y1="127.27" x2="152.19" y2="135.05"/>
          <line class="cls-4" x1="114.72" y1="128.89" x2="151.85" y2="136.67"/>
          <line class="cls-4" x1="115.74" y1="124.04" x2="152.87" y2="131.82"/>
          <line class="cls-4" x1="115.4" y1="125.66" x2="152.53" y2="133.43"/>
          <line class="cls-4" x1="116.41" y1="120.81" x2="153.55" y2="128.58"/>
          <line class="cls-4" x1="116.08" y1="122.43" x2="153.21" y2="130.2"/>
          <line class="cls-4" x1="113" y1="137.09" x2="150.14" y2="144.87"/>
          <line class="cls-3" x1="112.62" y1="138.95" x2="141.62" y2="145.02"/>
          <g class="cls-10">
            <g>
              <path class="cls-5" d="M110.97,98.22c.84-4.45,1.5-8.94,2.03-13.46.17-1.5-.16-2.9-.9-4.04-.73-1.12-1.86-1.98-3.29-2.4-2.21-.66-4.39-1.27-6.54-1.83.18,7.06,3.23,14.31,8.71,21.73Z"/>
              <path class="cls-5" d="M120.96,114.98c4.45.84,8.94,1.5,13.46,2.03,1.5.17,2.9-.16,4.04-.9,1.12-.73,1.98-1.86,2.4-3.29.66-2.21,1.27-4.39,1.83-6.54-7.06.18-14.31,3.23-21.73,8.71Z"/>
              <path class="cls-6" d="M150.29,86.08c-3.15-.82-6.26-1.55-9.38-2.21-5.43-1.14-10.9-2.04-16.73-2.77-1.48-.19-2.86.15-3.98.88-1.13.74-2,1.89-2.45,3.33-1.56,5.1-2.94,10.24-4.05,15.42-.77,3.58-1.41,7.18-1.9,10.83.19-.02.38-.04.56-.06h.03c.28-.03.55-.07.83-.1h0s0,0,0,0c.28-.04.55-.07.83-.12h0s0,0,0,0c.27-.04.54-.08.81-.13h.02s.02,0,.02,0c.27-.05.54-.09.8-.15h.03c.27-.06.54-.11.8-.17h.01c.27-.06.53-.12.8-.18h.03c.26-.07.53-.13.79-.2h.02c.26-.07.52-.14.78-.21h.03c.26-.08.52-.15.78-.23h.01c.26-.08.52-.16.78-.24h.03c.25-.09.51-.17.76-.26h.03c.26-.1.51-.18.77-.28h0c12.4-4.42,22.43-13.99,28.1-23.15Z"/>
              <path class="cls-5" d="M75.47,119.4c-.82,4.33-1.46,8.7-1.97,13.1-.17,1.46.16,2.82.88,3.93.71,1.09,1.81,1.92,3.2,2.34,2.15.64,4.27,1.23,6.36,1.78-.18-6.86-3.15-13.92-8.47-21.14Z"/>
              <path class="cls-6" d="M103.57,147.92c.8-3.06,1.51-6.09,2.15-9.13,1.11-5.28,1.98-10.61,2.69-16.28.18-1.44-.14-2.78-.85-3.87-.72-1.1-1.84-1.95-3.24-2.38-4.96-1.52-9.96-2.86-15-3.94-3.48-.75-6.99-1.37-10.54-1.85.02.18.04.37.06.55v.03c.03.27.07.54.1.81h0s0,.01,0,.01c.03.27.07.54.11.8h0s0,.01,0,.01c.04.26.08.53.13.79v.02s0,.01,0,.01c.04.26.09.52.14.78v.03c.06.26.11.52.16.78h0c.06.27.11.53.17.79v.03c.07.26.13.51.19.77v.02c.07.25.14.51.21.76v.03c.08.25.15.51.23.76h0c.07.26.15.52.23.77v.03c.09.25.17.5.25.74v.03c.09.25.18.5.27.75h0c4.3,12.06,13.61,21.82,22.52,27.34Z"/>
              <path class="cls-7" d="M81.46,95.34c-.06.27-.31,1.4-.47,2.93-.11,1.01-.22,2.07-.11,3.39.11,1.39.42,2.45.5,2.69.95,2.9,7.46,4.26,19.06,5.76,3.14.41,5.79.71,7.74.92-.67-.9-1.68-2.26-2.93-3.91-1.97-2.59-3.31-4.19-3.63-4.7-2.99-4.65-4.23-9.04-4.78-11.88l-.08-.34v-.03c-.06-.21-.11-.41-.16-.62v-.05c-.06-.2-.1-.41-.15-.61v-.05c-.05-.21-.1-.42-.14-.64-.04-.21-.08-.43-.12-.66v-.02c-.08-.43-.15-.86-.21-1.29v-.03c-.03-.21-.06-.42-.09-.63v-.04c-.03-.21-.05-.42-.07-.62v-.04c-.03-.21-.04-.41-.06-.62v-.04c-.02-.21-.04-.42-.05-.63v-.03c-.01-.21-.03-.42-.03-.63v-.04c-.01-.21-.02-.42-.02-.66,0-.21,0-.42,0-.65,0-.21,0-.42,0-.63v-.05c0-.21.01-.41.02-.62v-.03c.01-.21.02-.41.04-.62v-.05c.02-.21.03-.41.05-.61v-.04c.02-.21.04-.41.07-.62v-.04c.03-.21.05-.41.08-.61,0,0,0-.03,0-.04.19-.64.4-1.28.61-1.91-1.49-.2-3-.38-4.5-.53-1.53-.15-2.95.18-4.08.9-1.1.7-1.94,1.79-2.36,3.17-1.64,5.51-2.99,10.76-4.1,16.07Z"/>
              <path class="cls-6" d="M162.98,88.63c1.94.31,3.84.66,5.72,1.05,3.28.69,6.52,1.51,9.92,2.52.86.26,1.55.77,1.99,1.45.45.68.65,1.53.55,2.44-.37,3.2-.85,6.37-1.5,9.51-.44,2.16-.96,4.31-1.57,6.45-.1-.06-.2-.11-.3-.17h-.02c-.15-.09-.29-.18-.44-.27h0s0,0,0,0c-.14-.09-.29-.17-.43-.26h0s0,0,0,0c-.14-.09-.28-.18-.42-.27h-.01s0-.01,0-.01c-.14-.09-.27-.18-.41-.28h-.02c-.14-.11-.27-.2-.4-.3h0c-.13-.1-.27-.2-.4-.3h-.02c-.13-.11-.26-.21-.39-.31h-.01c-.13-.11-.26-.21-.38-.31h-.02c-.13-.12-.25-.22-.38-.33h0c-.13-.11-.25-.22-.37-.32h-.01c-.12-.12-.24-.23-.36-.33h-.01c-.12-.12-.24-.23-.36-.35h0c-5.78-5.45-9.01-13.17-9.93-19.61Z"/>
              <path class="cls-7" d="M145.4,107.46c-.06.26-.3,1.38-.47,2.88-.11.99-.22,2.03-.11,3.33.11,1.36.41,2.4.49,2.64.93,2.85,7.33,4.18,18.71,5.66,3.08.4,5.69.7,7.59.91-.65-.89-1.65-2.22-2.87-3.84-1.93-2.54-3.24-4.11-3.57-4.61-2.94-4.56-4.15-8.88-4.7-11.66l-.08-.33v-.03c-.06-.2-.11-.4-.15-.61v-.05c-.06-.2-.1-.4-.14-.6v-.05c-.05-.21-.1-.41-.14-.63-.04-.21-.08-.42-.12-.64v-.02c-.08-.42-.14-.84-.2-1.27v-.03c-.03-.21-.06-.41-.09-.62v-.04c-.03-.2-.05-.41-.07-.61v-.04c-.03-.2-.04-.41-.06-.61v-.04c-.02-.21-.04-.41-.05-.62v-.03c-.01-.21-.03-.41-.03-.62v-.04c-.01-.21-.02-.41-.02-.65,0-.21,0-.42,0-.64,0-.21,0-.41,0-.62v-.05c0-.2.01-.41.02-.61v-.03c.01-.2.02-.41.04-.61v-.04c.02-.2.03-.4.05-.6v-.04c.02-.2.04-.4.07-.6v-.04c.03-.2.05-.4.08-.6,0,0,0-.03,0-.04.19-.63.39-1.26.6-1.87-1.47-.2-2.94-.37-4.42-.52-1.5-.15-2.89.17-4.01.88-1.08.69-1.91,1.75-2.31,3.12-1.61,5.41-2.94,10.57-4.03,15.78Z"/>
            </g>
          </g>
        </g>
      </g>
    </g>
  </g>
</svg>