<?xml version="1.0" encoding="UTF-8"?>
<svg id="Layer_2" data-name="Layer 2" xmlns="http://www.w3.org/2000/svg" viewBox="0 0 208.32 197.61">
  <defs>
    <style>
      .cls-1 {
        fill: #0067a6;
      }

      .cls-1, .cls-2, .cls-3, .cls-4, .cls-5 {
        stroke-width: 0px;
      }

      .cls-2 {
        fill: #8dbb22;
      }

      .cls-3 {
        fill: #1995b8;
      }

      .cls-4 {
        fill: #414141;
      }

      .cls-5 {
        fill: #fff;
      }
    </style>
  </defs>
  <g id="Layer_1-2" data-name="Layer 1">
    <g>
      <rect class="cls-4" width="208.32" height="197.61" rx="29.33" ry="29.33"/>
      <g>
        <rect class="cls-5" x="61.1" y="21.1" width="86.12" height="172.24" transform="translate(211.38 3.06) rotate(90)"/>
        <polygon class="cls-5" points="18.04 62.97 24.49 44.96 183.83 44.96 190.28 62.97 18.04 62.97"/>
        <g>
          <path class="cls-2" d="M41.3,102.41c1.74.09,3.44.13,5.15.13,2.97,0,5.93-.13,9.06-.39.79-.07,1.48-.39,1.99-.9.51-.51.84-1.21.91-2.01.26-2.84.42-5.68.43-8.51,0-1.95-.05-3.91-.19-5.87-.1.03-.19.06-.29.09h-.02c-.14.05-.28.1-.42.15h0s0,0,0,0c-.14.05-.28.1-.42.15h0s0,0,0,0c-.14.05-.27.1-.41.16h-.01s0,0,0,0c-.14.05-.27.11-.4.16h-.02c-.13.06-.27.12-.4.18h0c-.13.06-.27.12-.4.18h-.02c-.13.07-.26.13-.39.19h-.01c-.13.07-.26.13-.39.2h-.02c-.13.07-.26.14-.38.21h0c-.13.07-.25.14-.38.21h-.01c-.12.08-.25.15-.37.22h-.01c-.13.08-.25.16-.37.23h0c-6,3.67-10.2,9.78-12.16,15.19Z"/>
          <path class="cls-1" d="M34.08,91.98c.05,2.42.19,4.84.41,7.27.07.8.4,1.5.91,2.01.51.51,1.19.83,1.99.9,1.23.1,2.43.18,3.62.24-.87-3.67-3.26-7.13-6.94-10.42Z"/>
          <path class="cls-3" d="M46.45,78.94c-2.97,0-5.93.13-9.06.39-.79.06-1.46.39-1.96.89-.51.51-.85,1.22-.94,2.04-.31,2.84-.44,5.67-.43,8.49,0,.22,0,.43,0,.65,2.89-.08,5.11,1.02,6.66,3.31,2.07-2.89,5.75-6.2,10-8.24h0s.17-.08.17-.08h.02c.1-.06.21-.11.31-.15h.02c.1-.06.21-.1.31-.15h.02c.11-.06.21-.1.32-.15h0c.11-.05.22-.09.33-.13h0s0,0,0,0c.22-.09.44-.17.67-.25h.02c.11-.04.22-.08.33-.12h.02c.11-.04.22-.08.33-.11h.02c.11-.04.22-.07.33-.11h.02c.11-.04.22-.07.33-.1h.02c.11-.03.22-.06.33-.09h.02c.11-.03.22-.06.34-.08h0s0,0,0,0c.11-.03.23-.05.34-.07h0c.11-.02.22-.05.34-.07h.03c.11-.02.22-.04.33-.06h.02c.11-.02.22-.04.34-.05h.02c.11-.02.22-.03.33-.05h.02c.11-.02.22-.03.34-.04h.02c.11-.01.23-.02.34-.03h.01s0,0,0,0c.37.03.73.07,1.09.11-.06-.8-.13-1.61-.22-2.41-.09-.81-.42-1.52-.94-2.04-.5-.5-1.17-.82-1.96-.89-3.13-.26-6.09-.39-9.06-.39Z"/>
        </g>
        <rect class="cls-4" x="130.18" y="80.76" width="40.73" height="4.11"/>
        <rect class="cls-4" x="141.64" y="87.67" width="29.27" height="4.11"/>
        <rect class="cls-3" x="34.06" y="109.1" width="40.73" height="4.11" transform="translate(108.85 222.3) rotate(-180)"/>
        <rect class="cls-4" x="34.06" y="116.01" width="33.12" height="4.11" transform="translate(101.24 236.13) rotate(-180)"/>
        <rect class="cls-2" x="34.06" y="122.92" width="23.37" height="4.11" transform="translate(91.49 249.95) rotate(-180)"/>
      </g>
    </g>
  </g>
</svg>