<?xml version="1.0" encoding="UTF-8"?>
<svg id="Layer_2" data-name="Layer 2" xmlns="http://www.w3.org/2000/svg" viewBox="0 0 208.32 197.61">
  <defs>
    <style>
      .cls-1 {
        fill: #414141;
      }

      .cls-1, .cls-2 {
        stroke-width: 0px;
      }

      .cls-2 {
        fill: #fff;
      }
    </style>
  </defs>
  <g id="Layer_1-2" data-name="Layer 1">
    <g>
      <rect class="cls-1" y="0" width="208.32" height="197.61" rx="29.33" ry="29.33"/>
      <g>
        <path class="cls-2" d="M93.98,109.07l-4.43-11.19h-22.06l-4.19,11.19h-14.97l23.91-57h13.36l23.67,57h-15.3ZM78.68,67.29l-7.25,19.56h14.33l-7.08-19.56Z"/>
        <path class="cls-2" d="M143.01,103.84c-1.29,2.04-3.13,3.61-5.51,4.71-2.39,1.1-4.92,1.65-7.61,1.65-3.01,0-5.69-.59-8.05-1.77-2.36-1.18-4.36-2.75-6-4.71-1.64-1.96-2.89-4.23-3.74-6.8-.86-2.58-1.29-5.26-1.29-8.05s.44-5.46,1.33-8.01c.89-2.55,2.15-4.79,3.78-6.72,1.64-1.93,3.62-3.46,5.96-4.59,2.33-1.13,4.95-1.69,7.85-1.69s5.45.56,7.49,1.69c2.04,1.13,3.62,2.36,4.75,3.7h.16v-4.43h13.2v40.25h-12.16v-5.23h-.16ZM123.52,88.86c0,1.29.2,2.56.6,3.82.4,1.26,1.01,2.38,1.81,3.34.8.97,1.8,1.74,2.98,2.33,1.18.59,2.55.89,4.11.89s2.84-.29,4.03-.89c1.18-.59,2.19-1.37,3.02-2.33.83-.97,1.48-2.07,1.93-3.3.46-1.23.68-2.5.68-3.78s-.23-2.55-.68-3.78c-.46-1.23-1.1-2.33-1.93-3.3-.83-.97-1.84-1.74-3.02-2.33-1.18-.59-2.52-.89-4.03-.89s-2.93.3-4.11.89c-1.18.59-2.17,1.36-2.98,2.29-.8.94-1.41,2.03-1.81,3.26-.4,1.24-.6,2.5-.6,3.78Z"/>
      </g>
      <g>
        <path class="cls-2" d="M57.66,137.32l-1.1-2.78h-5.47l-1.04,2.78h-3.72l5.93-14.15h3.32l5.88,14.15h-3.8ZM53.87,126.95l-1.8,4.86h3.56l-1.76-4.86Z"/>
        <path class="cls-2" d="M68.49,137.32h-3.54l-3.92-9.95h3.62l2.1,6.45h.06l2.1-6.45h3.5l-3.92,9.95Z"/>
        <path class="cls-2" d="M83.54,132.46v.4c0,.13,0,.26-.02.38h-7.21c.03.28.11.53.25.76.14.23.32.42.54.59s.47.3.74.39c.27.09.56.14.85.14.52,0,.96-.1,1.32-.29.36-.19.65-.44.88-.75l2.28,1.44c-.47.68-1.08,1.2-1.85,1.57-.77.37-1.66.55-2.67.55-.75,0-1.45-.12-2.12-.35-.67-.23-1.25-.57-1.75-1.02-.5-.45-.89-1-1.18-1.65-.29-.65-.43-1.4-.43-2.24s.14-1.55.42-2.21c.28-.66.66-1.22,1.14-1.68.48-.46,1.05-.82,1.7-1.07.65-.25,1.36-.38,2.12-.38s1.41.12,2.02.37,1.14.6,1.58,1.07c.44.47.78,1.03,1.03,1.7.25.67.37,1.43.37,2.28ZM80.52,131.21c0-.52-.16-.97-.49-1.34-.33-.37-.82-.56-1.47-.56-.32,0-.61.05-.88.15-.27.1-.5.24-.7.41-.2.17-.36.38-.48.61-.12.23-.19.48-.2.73h4.22Z"/>
        <path class="cls-2" d="M92.11,137.32v-5.44c0-.28-.02-.55-.07-.8-.05-.25-.12-.48-.23-.67-.11-.19-.26-.35-.45-.46-.19-.11-.44-.17-.73-.17s-.55.06-.77.17c-.22.11-.4.27-.55.47s-.26.43-.33.69-.11.53-.11.81v5.4h-3.3v-9.95h3.18v1.38h.04c.12-.21.28-.42.47-.63s.42-.38.68-.53.54-.27.85-.36.63-.14.98-.14c.67,0,1.23.12,1.7.36.47.24.84.55,1.13.93.29.38.49.82.62,1.31.13.49.19.99.19,1.48v6.15h-3.3Z"/>
        <path class="cls-2" d="M101.44,124.19c0,.25-.05.49-.15.71-.1.22-.23.41-.4.57-.17.16-.37.29-.6.38-.23.09-.48.14-.73.14-.53,0-.98-.18-1.34-.53-.36-.35-.54-.78-.54-1.27,0-.24.05-.47.14-.69.09-.22.23-.41.4-.57.17-.16.37-.29.6-.39s.47-.15.74-.15.5.05.73.14.43.22.6.38c.17.16.3.35.4.57.1.22.15.46.15.71ZM97.93,137.32v-9.95h3.28v9.95h-3.28Z"/>
        <path class="cls-2" d="M110.26,130.07c-.15-.04-.29-.07-.43-.08s-.28-.02-.41-.02c-.44,0-.81.08-1.11.24-.3.16-.54.35-.72.58-.18.23-.31.47-.39.74-.08.27-.12.5-.12.7v5.1h-3.28v-9.94h3.16v1.44h.04c.25-.51.61-.93,1.08-1.25.47-.32,1-.48,1.62-.48.13,0,.26,0,.39.02.13.01.23.03.31.06l-.14,2.9Z"/>
        <path class="cls-2" d="M125.88,137.32l-5.7-9.25h-.06l.08,9.25h-3.32v-14.15h3.9l5.67,9.23h.06l-.08-9.23h3.32v14.15h-3.88Z"/>
        <path class="cls-2" d="M142.37,132.46v.4c0,.13,0,.26-.02.38h-7.21c.03.28.11.53.25.76.14.23.32.42.54.59s.47.3.74.39c.27.09.56.14.85.14.52,0,.96-.1,1.32-.29.36-.19.65-.44.88-.75l2.28,1.44c-.47.68-1.08,1.2-1.85,1.57-.77.37-1.66.55-2.67.55-.75,0-1.45-.12-2.12-.35-.67-.23-1.25-.57-1.75-1.02-.5-.45-.89-1-1.18-1.65-.29-.65-.43-1.4-.43-2.24s.14-1.55.42-2.21c.28-.66.66-1.22,1.14-1.68.48-.46,1.05-.82,1.7-1.07.65-.25,1.36-.38,2.12-.38s1.41.12,2.02.37,1.14.6,1.58,1.07c.44.47.78,1.03,1.03,1.7.25.67.37,1.43.37,2.28ZM139.35,131.21c0-.52-.16-.97-.49-1.34-.33-.37-.82-.56-1.47-.56-.32,0-.61.05-.88.15-.27.1-.5.24-.7.41-.2.17-.36.38-.48.61-.12.23-.19.48-.2.73h4.22Z"/>
        <path class="cls-2" d="M150.76,137.32l-2.14-3.06-2.2,3.06h-3.8l3.98-5.22-3.6-4.74h3.82l1.86,2.66,1.88-2.66h3.7l-3.58,4.74,3.94,5.22h-3.86Z"/>
        <path class="cls-2" d="M159.39,129.81v3.81c0,.47.09.82.27,1.05.18.23.5.35.97.35.16,0,.33-.01.51-.04.18-.03.33-.07.45-.12l.04,2.4c-.23.08-.51.15-.86.21-.35.06-.69.09-1.04.09-.67,0-1.23-.08-1.68-.25-.45-.17-.82-.41-1.09-.72-.27-.31-.47-.69-.59-1.12-.12-.43-.18-.92-.18-1.45v-4.21h-1.6v-2.44h1.58v-2.62h3.22v2.62h2.34v2.44h-2.34Z"/>
      </g>
    </g>
  </g>
</svg>