<?xml version="1.0" encoding="UTF-8"?>
<svg xmlns="http://www.w3.org/2000/svg" version="1.1" viewBox="0 0 208.3 197.6">
  <defs>
    <style>
      .cls-1 {
        fill: #414141;
      }

      .cls-2 {
        fill: #e4e4e4;
      }

      .cls-3 {
        isolation: isolate;
      }

      .cls-4 {
        fill: #fff;
      }

      .cls-5 {
        fill: #0067a6;
      }

      .cls-6 {
        fill: #1995b8;
      }

      .cls-7 {
        fill: #8dbb22;
      }
    </style>
  </defs>
  <!-- Generator: Adobe Illustrator 28.6.0, SVG Export Plug-In . SVG Version: 1.2.0 Build 709)  -->
  <g>
    <g id="Layer_2">
      <g id="Layer_1-2">
        <g>
          <rect class="cls-1" y="0" width="208.3" height="197.6" rx="29.3" ry="29.3"/>
          <g>
            <path class="cls-2" d="M144,172.3c-.1.2-.2.4-.3.6-.2.4-.4.8-.6,1.2-.2.4-.5.9-.7,1.3-.1.2-.3.4-.4.7,0,.1-.2.2-.4.4-.2.1-.4.2-.7.3-.2,0-.5.2-.8.2-.2,0-.4.1-.7.2-.2,0-.5.1-.8.2-.2,0-.5,0-.7.1-.2,0-.5,0-.8.1-.2,0-.5,0-.7.1-.2,0-.5,0-.8.1-.2,0-.5,0-.7.1-.2,0-.5,0-.8.1-.2,0-.5,0-.7,0-.2,0-.5,0-.8,0-.2,0-.5,0-.7,0-.2,0-.5,0-.8,0-.2,0-.5,0-.7,0-.2,0-.5,0-.8,0-.2,0-.5,0-.7,0-.2,0-.5,0-.8,0-.2,0-.5,0-.7,0-.2,0-.5,0-.8,0-.2,0-.5,0-.7,0-.2,0-.5,0-.8,0-.2,0-.5,0-.7,0-.2,0-.5,0-.8,0-.2,0-.5,0-.7,0-.2,0-.5,0-.8,0-.2,0-.5,0-.7,0-.2,0-.5,0-.8,0-.2,0-.5,0-.7,0-.2,0-.5,0-.8,0-.2,0-.5,0-.7,0-.2,0-.5,0-.8,0-.2,0-.5,0-.7,0-.2,0-.5,0-.8,0-.2,0-.5,0-.7,0s-.5,0-.8,0-.5,0-.7,0c-.2,0-.5,0-.8,0-.2,0-.5,0-.7,0-.2,0-.5,0-.8,0-.2,0-.5,0-.7,0s-.5,0-.8,0c-.2,0-.5,0-.7,0-.2,0-.5,0-.8,0h-10.8c-.2,0-.5,0-.8,0-.2,0-.5,0-.7,0-.2,0-.5,0-.8,0-.2,0-.5,0-.7,0-.2,0-.5,0-.8,0-.2,0-.5,0-.7,0-.2,0-.5,0-.8,0-.2,0-.5,0-.7,0-.2,0-.5,0-.8,0-.2,0-.5,0-.7,0-.2,0-.5,0-.8,0-.2,0-.5,0-.7,0s-.5,0-.8,0c-.2,0-.5,0-.7,0-.2,0-.5,0-.8,0-.2,0-.5,0-.7,0-.2,0-.5,0-.8,0-.2,0-.5,0-.7,0-.2,0-.5,0-.8,0-.2,0-.5,0-.7,0-.2,0-.5,0-.8,0-.2,0-.5,0-.7,0-.2,0-.5,0-.8,0-.2,0-.5,0-.7,0-.2,0-.5,0-.8,0-.2,0-.5,0-.7,0-.2,0-.5,0-.8,0-.2,0-.5,0-.7,0-.2,0-.5,0-.8,0-.2,0-.5,0-.7,0-.2,0-.5,0-.8,0-.2,0-.5,0-.7,0-.2,0-.5,0-.8,0-.2,0-.5,0-.7,0-.3,0-.5,0-.8,0s-.5,0-.7,0c-.3,0-.5,0-.8-.1s-.5,0-.7-.1c-.3,0-.5,0-.8-.1-.2,0-.5,0-.7-.1-.3,0-.5-.1-.8-.2-.2,0-.5-.1-.7-.2-.3,0-.5-.1-.8-.2-.3,0-.5-.2-.7-.3-.4-.2-.7-.4-.8-.6h0c-.2-.4-.5-.8-.7-1.2-.3-.6-.7-1.3-1-1.9,0-.2-.2-.4-.3-.6.3.1.8.3,1.3.4.2,0,.4.1.7.2.2,0,.5.1.8.2.2,0,.5,0,.7.1.2,0,.5,0,.8.1.2,0,.5,0,.7.1s.5,0,.8.1c.2,0,.5,0,.7.1.2,0,.5,0,.8.1.2,0,.5,0,.7,0h.8c.2.1.5.1.7.2.2,0,.5,0,.8,0,.2,0,.5,0,.7,0,.2,0,.5,0,.8,0,.2,0,.5,0,.7,0,.2,0,.5,0,.8,0,.2,0,.5,0,.7,0,.2,0,.5,0,.8,0,.2,0,.5,0,.7,0,.2,0,.5,0,.8,0,.2,0,.5,0,.7,0,.2,0,.5,0,.8,0,.2,0,.5,0,.7,0,.2,0,.5,0,.8,0,.2,0,.5,0,.7,0,.2,0,.5,0,.8,0,.2,0,.5,0,.7,0,.2,0,.5,0,.8,0,.2,0,.5,0,.7,0,.2,0,.5,0,.8,0,.2,0,.5,0,.7,0,.2,0,.5,0,.8,0,.2,0,.5,0,.7,0,.2,0,.5,0,.8,0,.2,0,.5,0,.7,0s.5,0,.8,0,.5,0,.7,0c.2,0,.5,0,.8,0,.2,0,.5,0,.7,0,.2,0,.5,0,.8,0,.2,0,.5,0,.7,0,.2,0,.5,0,.8,0,.2,0,.5,0,.7,0,.2,0,.5,0,.8,0,.2,0,.5,0,.7,0h11.6c.2,0,.5,0,.8,0,.2,0,.5,0,.7,0,.2,0,.5,0,.8,0,.2,0,.5,0,.7,0,.2,0,.5,0,.8,0,.2,0,.5,0,.7,0,.2,0,.5,0,.8,0,.2,0,.5,0,.7,0,.2,0,.5,0,.8,0,.2,0,.5,0,.7,0,.2,0,.5,0,.8,0s.5,0,.7,0,.5,0,.8,0c.2,0,.5,0,.7,0,.2,0,.5,0,.8,0,.2,0,.5,0,.7,0,.2,0,.5,0,.8,0,.2,0,.5,0,.7,0,.2,0,.5,0,.8,0,.2,0,.5,0,.7,0,.2,0,.5,0,.8,0,.2,0,.5,0,.7,0,.2,0,.5,0,.8,0,.2,0,.5,0,.7,0,.2,0,.5,0,.8,0,.2,0,.5,0,.7,0,.2,0,.5,0,.8,0,.2,0,.5,0,.7,0,.2,0,.5,0,.8,0,.2,0,.5,0,.7,0,.2,0,.5,0,.8,0,.2,0,.5,0,.7,0,.2,0,.5,0,.8,0,.2,0,.5,0,.7,0,.2,0,.5,0,.8,0,.2,0,.5,0,.7,0h.8c.2-.1.5-.1.7-.2.3,0,.5,0,.8-.1s.5,0,.7-.1c.3,0,.5,0,.8-.1s.5,0,.7-.1c.3,0,.5,0,.8-.1s.5,0,.7-.1c.3,0,.5-.1.8-.2.2,0,.5-.1.7-.2.3-.1.6-.2.9-.3h0Z"/>
            <rect class="cls-2" x="62.3" y="24.1" width="83.8" height="10.3"/>
            <rect class="cls-2" x="59.9" y="34.4" width="88.5" height="1.1"/>
            <path class="cls-5" d="M144.9,19.5c-.9-.8-2.1-1.2-3.3-1.2h-75c-1.2,0-2.4.4-3.3,1.2l-.8.7h83.2l-.8-.7h0Z"/>
            <path class="cls-6" d="M144.8,19.4H63.5s0,0-.1.1l-.8.7h83.2l-.8-.7s0,0-.1-.1h0Z"/>
            <path class="cls-5" d="M144.8,19.4H63.5c-.7,0-1.2.6-1.2,1.3v6.2c0,.7.5,1.3,1.2,1.3h81.3c.7,0,1.2-.6,1.2-1.3v-6.2c0-.7-.6-1.3-1.2-1.3h0Z"/>
            <path class="cls-5" d="M148.9,22.5c-1-.9-2.3-1.3-3.6-1.3H63c-1.3,0-2.6.5-3.6,1.3l-.9.8h91.3l-.9-.8h0Z"/>
            <path class="cls-6" d="M148.7,22.3H59.6c0,0-.1.1-.2.2l-.9.8h91.3l-.9-.8c0,0-.1-.1-.2-.2Z"/>
            <rect class="cls-6" x="58.2" y="22.7" width="91.9" height="9.2" rx="1.3" ry="1.3"/>
            <polygon class="cls-2" points="59.9 34.4 62.3 33 146.1 33 148.4 34.4 59.9 34.4"/>
            <polygon class="cls-2" points="59.9 35.5 62.3 36.9 146.1 36.9 148.4 35.5 59.9 35.5"/>
            <path class="cls-2" d="M148.2,41.5l-2.2-4.6H62.3l-2.2,4.6c-1.7,3.5-2.5,7.3-2.5,11.2v98.3c0,7.2,2,14.4,5.7,20.5.9,2,18.9,3.6,40.8,3.6s39.9-1.6,40.8-3.6c3.8-6.2,5.7-13.3,5.7-20.5V52.7c0-3.9-.9-7.7-2.5-11.2h0Z"/>
            <path class="cls-4" d="M150.8,137c-13.5,2.4-30,4.3-48.8,4.1-16.9-.1-31.9-1.9-44.4-4.1v-65.5c14.2,1.3,29.8,2.2,46.6,2.2s32.4-.9,46.6-2.2v65.5Z"/>
            <g>
              <g>
                <path class="cls-7" d="M97.6,111.5c2.2.1,4.4.2,6.6.2,3.8,0,7.6-.2,11.6-.5,1,0,1.9-.5,2.5-1.1.7-.7,1.1-1.6,1.2-2.6.3-3.6.5-7.3.6-10.9,0-2.5,0-5-.2-7.5-.1,0-.2,0-.4.1h0c-.2,0-.4.1-.5.2h0c-.2,0-.4.1-.5.2h0c-.2,0-.3.1-.5.2h0c-.2,0-.3.1-.5.2h0c-.2,0-.3.2-.5.2h0c-.2,0-.3.2-.5.2h0c-.2,0-.3.2-.5.2h0c-.2,0-.3.2-.5.3h0c-.2,0-.3.2-.5.3h0c-.2,0-.3.2-.5.3h0c-.2,0-.3.2-.5.3h0c-.2,0-.3.2-.5.3h0c-7.7,4.7-13,12.5-15.6,19.4h0Z"/>
                <path class="cls-5" d="M88.3,98.2c0,3.1.2,6.2.5,9.3,0,1,.5,1.9,1.2,2.6s1.5,1.1,2.5,1.1c1.6.1,3.1.2,4.6.3-1.1-4.7-4.2-9.1-8.9-13.3h0Z"/>
                <path class="cls-6" d="M104.2,81.5c-3.8,0-7.6.2-11.6.5-1,0-1.9.5-2.5,1.1s-1.1,1.6-1.2,2.6c-.4,3.6-.6,7.2-.6,10.9v.8c3.7,0,6.5,1.3,8.5,4.2,2.7-3.7,7.3-7.9,12.8-10.5h.2c0-.1,0-.1,0-.1.1,0,.3-.1.4-.2h0c.1,0,.3-.1.4-.2h0c.1,0,.3-.1.4-.2h0c.1,0,.3-.1.4-.2h0c.3-.1.6-.2.8-.3h0c.1,0,.3,0,.4-.2h0c.1,0,.3,0,.4-.1h0c.1,0,.3,0,.4-.1h0c.1,0,.3,0,.4-.1h0c.1,0,.3,0,.4-.1h0c.1,0,.3,0,.4-.1h0c.1,0,.3,0,.4,0h0c.1,0,.3,0,.4,0h0c.1,0,.3,0,.4,0h0c.1,0,.3,0,.4,0h0c.1,0,.3,0,.4,0h0c.1,0,.3,0,.4,0h0c.1,0,.3,0,.4,0h0c.5,0,.9,0,1.4.1,0-1-.2-2.1-.3-3.1-.1-1-.5-1.9-1.2-2.6-.6-.6-1.5-1.1-2.5-1.1-4-.3-7.8-.5-11.6-.5h0Z"/>
              </g>
              <g class="cls-3">
                <g class="cls-3">
                  <path class="cls-1" d="M86,123c-.4.2-.8.3-1.3.3s-.9,0-1.2-.2c-.4-.1-.7-.4-1-.6-.3-.3-.5-.6-.7-1-.2-.4-.2-.8-.2-1.2s0-.9.2-1.3c.2-.4.4-.7.7-1,.3-.3.6-.5,1-.6.4-.1.8-.2,1.2-.2s.8,0,1.2.2c.4.1.7.4,1,.6l-1,1c-.1-.2-.3-.3-.5-.4-.2,0-.4-.1-.7-.1s-.5,0-.7.1c-.2,0-.4.2-.5.4s-.3.3-.3.6-.1.5-.1.7,0,.5.1.7c0,.2.2.4.3.6.1.2.3.3.5.4.2,0,.4.1.7.1s.5,0,.7-.2c.2-.1.4-.3.5-.4l1,.9c-.3.3-.6.5-1,.7Z"/>
                  <path class="cls-1" d="M91.2,123.1v-2.4h-2.3v2.4h-1.4v-5.8h1.4v2.2h2.3v-2.2h1.4v5.8h-1.4Z"/>
                  <path class="cls-1" d="M93.8,123.1v-5.8h3.9v1.2h-2.6v1.1h2.4v1.1h-2.4v1.2h2.7v1.2h-4.1Z"/>
                  <path class="cls-1" d="M103,123c-.4.2-.8.3-1.3.3s-.9,0-1.2-.2c-.4-.1-.7-.4-1-.6-.3-.3-.5-.6-.7-1-.2-.4-.2-.8-.2-1.2s0-.9.2-1.3c.2-.4.4-.7.7-1,.3-.3.6-.5,1-.6.4-.1.8-.2,1.2-.2s.8,0,1.2.2c.4.1.7.4,1,.6l-1,1c-.1-.2-.3-.3-.5-.4-.2,0-.4-.1-.7-.1s-.5,0-.7.1c-.2,0-.4.2-.5.4s-.3.3-.3.6-.1.5-.1.7,0,.5.1.7c0,.2.2.4.3.6.1.2.3.3.5.4.2,0,.4.1.7.1s.5,0,.7-.2c.2-.1.4-.3.5-.4l1,.9c-.3.3-.6.5-1,.7Z"/>
                </g>
                <g class="cls-3">
                  <path class="cls-1" d="M108.1,123.1l-2.2-2.7h0v2.7h-1.4v-5.8h1.4v2.4h0l2.1-2.4h1.8l-2.5,2.7,2.7,3.1h-1.8Z"/>
                </g>
                <g class="cls-3">
                  <path class="cls-1" d="M114.2,123.1l-.5-1.1h-2.3l-.4,1.1h-1.5l2.4-5.8h1.4l2.4,5.8h-1.6ZM112.7,118.8l-.7,2h1.5l-.7-2Z"/>
                  <path class="cls-1" d="M119.4,123.1l-1.3-2.3h-.5v2.3h-1.4v-5.8h2.2c.3,0,.6,0,.8,0s.5.2.7.3.4.3.5.5.2.5.2.8-.1.7-.3,1-.5.5-.9.6l1.5,2.5h-1.6ZM119.3,119c0-.1,0-.2,0-.3s-.1-.2-.2-.2c0,0-.2,0-.3,0-.1,0-.2,0-.3,0h-.8v1.4h.7c.1,0,.2,0,.4,0,.1,0,.2,0,.3-.1,0,0,.2-.1.2-.2,0,0,0-.2,0-.4Z"/>
                </g>
                <g class="cls-3">
                  <path class="cls-1" d="M125.3,123.1l-2.2-2.7h0v2.7h-1.4v-5.8h1.4v2.4h0l2.1-2.4h1.8l-2.5,2.7,2.7,3.1h-1.8Z"/>
                </g>
              </g>
              <g class="cls-3">
                <g class="cls-3">
                  <path class="cls-1" d="M93.5,130.4c-.2.3-.5.5-.8.7-.3.2-.7.3-1.2.3s-.7,0-1.1-.2c-.3-.1-.6-.3-.8-.6s-.4-.5-.6-.8c-.1-.3-.2-.7-.2-1.1s0-.8.2-1.1.3-.6.6-.8c.2-.2.5-.4.9-.5.3-.1.7-.2,1.1-.2s.3,0,.5,0c.2,0,.3,0,.5.2s.3.1.4.2c.1,0,.2.2.3.3l-.6.4c-.1-.2-.3-.3-.5-.4-.2-.1-.5-.2-.7-.2s-.6,0-.8.2-.4.3-.6.4c-.2.2-.3.4-.4.7s-.1.5-.1.8,0,.6.1.8.2.5.4.7c.2.2.4.3.6.4s.5.2.8.2.5,0,.8-.2c.2-.1.4-.3.6-.5l.6.4Z"/>
                </g>
                <g class="cls-3">
                  <path class="cls-1" d="M99.3,128.6c0,.4,0,.8-.2,1.1-.1.3-.3.6-.6.8-.2.2-.5.4-.9.6-.3.1-.7.2-1.1.2s-.7,0-1.1-.2-.6-.3-.9-.6-.4-.5-.6-.8c-.1-.3-.2-.7-.2-1.1s0-.8.2-1.1c.1-.3.3-.6.6-.8.2-.2.5-.4.9-.5.3-.1.7-.2,1.1-.2s.7,0,1.1.2c.3.1.6.3.9.5.2.2.4.5.6.8.1.3.2.7.2,1.1ZM98.5,128.6c0-.3,0-.5-.1-.8,0-.2-.2-.5-.4-.7-.2-.2-.4-.3-.6-.4s-.5-.2-.8-.2-.6,0-.8.2-.4.3-.6.4c-.2.2-.3.4-.4.7,0,.2-.1.5-.1.8s0,.5.1.8c0,.2.2.5.4.7.2.2.4.3.6.4s.5.2.8.2.6,0,.8-.2.4-.2.6-.4c.2-.2.3-.4.4-.7,0-.2.1-.5.1-.8Z"/>
                  <path class="cls-1" d="M102.2,131.3c-.3,0-.6,0-.9-.2-.2-.1-.5-.3-.6-.5-.2-.2-.3-.4-.4-.6,0-.2-.1-.5-.1-.8v-3.2h.7v3.2c0,.2,0,.3,0,.5,0,.2.1.3.2.5,0,.1.2.2.4.3.2,0,.4.1.6.1s.4,0,.6-.1c.2,0,.3-.2.4-.3,0-.1.2-.3.2-.5,0-.2,0-.3,0-.5v-3.2h.7v3.2c0,.3,0,.5-.1.8,0,.2-.2.5-.4.6-.2.2-.4.3-.6.5-.2.1-.5.2-.9.2Z"/>
                  <path class="cls-1" d="M106.1,131.2h-.7v-5.1h1.6c.2,0,.5,0,.7,0,.2,0,.4.1.6.2.2.1.3.3.4.4s.1.4.1.7c0,.4-.1.7-.3.9-.2.2-.5.4-.9.4l1.4,2.3h-.9l-1.3-2.3h-.8v2.3ZM106.1,128.3h.8c.2,0,.3,0,.5,0,.1,0,.3,0,.4-.1.1,0,.2-.1.3-.3,0-.1,0-.2,0-.4s0-.3,0-.4c0-.1-.1-.2-.2-.2-.1,0-.2-.1-.4-.1s-.3,0-.4,0h-.9v1.6Z"/>
                  <path class="cls-1" d="M110.5,131.2h-.7v-5.1h.7v5.1Z"/>
                  <path class="cls-1" d="M112.4,130.6h2.7v.6h-3.4v-5.1h3.3v.6h-2.6v1.5h2.4v.6h-2.4v1.7Z"/>
                  <path class="cls-1" d="M116.7,131.2h-.7v-5.1h1.6c.2,0,.5,0,.7,0,.2,0,.4.1.6.2s.3.3.4.4.1.4.1.7c0,.4-.1.7-.3.9s-.5.4-.9.4l1.4,2.3h-.9l-1.3-2.3h-.8v2.3ZM116.7,128.3h.8c.2,0,.3,0,.5,0,.1,0,.3,0,.4-.1s.2-.1.3-.3c0-.1,0-.2,0-.4s0-.3,0-.4c0-.1-.1-.2-.2-.2-.1,0-.2-.1-.4-.1-.1,0-.3,0-.4,0h-.9v1.6Z"/>
                </g>
              </g>
            </g>
          </g>
        </g>
      </g>
    </g>
  </g>
</svg>