<?xml version="1.0" encoding="UTF-8"?>
<svg id="Layer_2" data-name="Layer 2" xmlns="http://www.w3.org/2000/svg" viewBox="0 0 208.32 197.61">
  <defs>
    <style>
      .cls-1 {
        font-family: AvenirNext-Bold, 'Avenir Next';
        font-size: 8.22px;
        font-weight: 700;
      }

      .cls-1, .cls-2, .cls-3 {
        fill: #414141;
      }

      .cls-4 {
        letter-spacing: -.01em;
      }

      .cls-5 {
        letter-spacing: -.01em;
      }

      .cls-6 {
        fill: #0067a6;
      }

      .cls-6, .cls-7, .cls-8, .cls-9, .cls-3, .cls-10 {
        stroke-width: 0px;
      }

      .cls-11 {
        letter-spacing: -.01em;
      }

      .cls-2 {
        font-family: AvenirNext-Medium, 'Avenir Next';
        font-size: 7.19px;
        font-weight: 500;
      }

      .cls-7 {
        fill: #e4e4e4;
      }

      .cls-8 {
        fill: #8dbb22;
      }

      .cls-9 {
        fill: #1995b8;
      }

      .cls-10 {
        fill: #fff;
      }
    </style>
  </defs>
  <g id="Layer_1-2" data-name="Layer 1">
    <g>
      <rect class="cls-3" width="208.32" height="197.61" rx="29.33" ry="29.33"/>
      <g>
        <path class="cls-7" d="M144.02,172.25c-.1.21-.19.42-.29.62-.19.39-.39.78-.59,1.17-.22.43-.46.85-.7,1.27-.13.22-.26.44-.39.66-.05.12-.18.24-.36.36-.18.11-.41.22-.7.33-.22.08-.47.16-.75.25-.22.06-.45.12-.7.18-.23.06-.49.11-.75.17-.22.05-.46.09-.7.14-.24.04-.49.09-.75.13-.23.04-.46.08-.7.11-.24.04-.49.07-.75.11-.23.03-.46.06-.7.1-.24.03-.49.06-.75.1-.23.03-.46.06-.7.08-.25.03-.5.06-.75.08-.23.03-.46.05-.7.07-.25.03-.5.05-.75.08-.23.02-.46.04-.7.07-.25.02-.5.05-.75.07-.23.02-.46.04-.7.06-.25.02-.5.04-.75.06-.23.02-.46.04-.7.05-.25.02-.5.04-.75.05-.23.02-.46.03-.7.05-.25.02-.5.03-.75.05-.23.01-.46.03-.7.04-.25.02-.5.03-.75.05-.23.01-.47.03-.7.04-.25.01-.5.03-.75.04-.23.01-.47.02-.7.04-.25.01-.5.02-.75.04-.23.01-.47.02-.7.03-.25.01-.5.02-.75.03-.23.01-.47.02-.7.03-.25,0-.5.02-.75.03-.23,0-.47.02-.7.03-.25,0-.5.02-.75.03-.23,0-.47.02-.7.02-.25,0-.5.02-.75.02-.23,0-.47.01-.7.02-.25,0-.5.01-.75.02-.23,0-.47.01-.7.02-.25,0-.5.01-.75.02-.23,0-.47.01-.7.01-.25,0-.5,0-.75.01-.23,0-.47,0-.7.01-.25,0-.5,0-.75.01-.23,0-.47,0-.7,0-.25,0-.5,0-.75,0-.23,0-.47,0-.7,0-.25,0-.5,0-.75,0-.23,0-.47,0-.7,0-.25,0-.5,0-.75,0-.23,0-.47,0-.7,0-.19,0-.38,0-.57,0h-.18c-.23,0-.47,0-.7,0-.25,0-.5,0-.75,0-.23,0-.47,0-.7,0-.25,0-.5,0-.75,0-.23,0-.47,0-.7,0-.25,0-.5,0-.75,0-.23,0-.47,0-.7,0-.25,0-.5,0-.75-.01-.23,0-.47,0-.7-.01-.25,0-.5,0-.75-.01-.23,0-.47,0-.7-.01-.25,0-.5-.01-.75-.02-.23,0-.47-.01-.7-.02-.25,0-.5-.01-.75-.02-.23,0-.47-.01-.7-.02-.25,0-.5-.01-.75-.02-.23,0-.47-.01-.7-.02-.25,0-.5-.02-.75-.03-.23,0-.47-.02-.7-.02-.25,0-.5-.02-.75-.03-.23,0-.47-.02-.7-.03-.25-.01-.5-.02-.75-.03-.23-.01-.47-.02-.7-.03-.25-.01-.5-.02-.75-.04-.24-.01-.47-.02-.7-.03-.25-.01-.5-.03-.75-.04-.23-.01-.47-.03-.7-.04-.25-.01-.5-.03-.75-.04-.24-.01-.47-.03-.7-.04-.25-.02-.5-.03-.75-.05-.24-.02-.47-.03-.7-.05-.25-.02-.5-.04-.75-.05-.24-.02-.47-.03-.7-.05-.25-.02-.5-.04-.75-.06-.24-.02-.47-.04-.7-.06-.25-.02-.5-.04-.75-.07-.24-.02-.47-.04-.7-.06-.25-.02-.5-.05-.75-.07-.24-.02-.47-.05-.7-.07-.25-.03-.5-.05-.75-.08-.24-.03-.47-.05-.7-.08-.26-.03-.51-.06-.75-.09-.24-.03-.47-.06-.7-.09-.26-.03-.51-.07-.75-.11-.24-.04-.47-.07-.7-.11-.26-.04-.51-.08-.75-.13-.24-.04-.48-.09-.7-.13-.26-.05-.51-.1-.75-.16-.25-.05-.48-.11-.7-.17-.27-.07-.52-.14-.75-.22-.27-.09-.5-.17-.7-.26-.4-.18-.65-.36-.75-.55,0,0,0-.01,0-.02-.24-.39-.47-.79-.69-1.19-.35-.62-.67-1.26-.98-1.9-.1-.21-.2-.41-.29-.62.34.14.77.28,1.27.41.22.06.45.12.7.17.24.05.49.11.75.16.22.05.46.09.7.13.24.04.49.09.75.13.23.04.46.07.7.11.24.04.49.07.75.11.23.03.46.06.7.1.24.03.49.06.75.1.23.03.46.06.7.08.25.03.5.06.75.09.23.03.46.05.7.08.25.03.5.05.75.08.23.02.46.05.7.07.25.02.5.05.75.07.23.02.46.04.7.06.25.02.5.04.75.06.23.02.46.04.7.06.25.02.5.04.75.06.23.02.46.03.7.05.25.02.5.03.75.05.23.02.46.03.7.05.25.02.5.03.75.05.23.01.47.03.7.04.25.01.5.03.75.04.23.01.47.03.7.04.25.01.5.03.75.04.23.01.47.02.7.03.25.01.5.02.75.04.23.01.47.02.7.03.25.01.5.02.75.03.23,0,.47.02.7.03.25.01.5.02.75.03.23,0,.47.02.7.03.25,0,.5.02.75.03.23,0,.47.02.7.02.25,0,.5.02.75.02.23,0,.47.01.7.02.25,0,.5.01.75.02.23,0,.47.01.7.02.25,0,.5.01.75.02.23,0,.47.01.7.02.25,0,.5,0,.75.01.23,0,.47,0,.7.01.25,0,.5,0,.75.01.23,0,.47,0,.7.01.25,0,.5,0,.75,0,.23,0,.47,0,.7,0,.25,0,.5,0,.75,0,.23,0,.47,0,.7,0,.25,0,.5,0,.75,0,.23,0,.47,0,.7,0,.25,0,.5,0,.75,0,.23,0,.47,0,.7,0h.18c.19,0,.38,0,.57,0,.23,0,.47,0,.7,0,.25,0,.5,0,.75,0,.23,0,.47,0,.7,0,.25,0,.5,0,.75,0,.23,0,.47,0,.7,0,.25,0,.5,0,.75,0,.23,0,.47,0,.7,0,.25,0,.5,0,.75-.01.23,0,.47,0,.7-.01.25,0,.5,0,.75-.01.23,0,.47,0,.7-.01.25,0,.5-.01.75-.02.23,0,.47-.01.7-.02.25,0,.5-.01.75-.02.23,0,.47-.01.7-.02.25,0,.5-.01.75-.02.23,0,.47-.01.7-.02.25,0,.5-.02.75-.02.23,0,.47-.02.7-.02.25,0,.5-.02.75-.03.23,0,.47-.02.7-.03.25,0,.5-.02.75-.03.23,0,.47-.02.7-.03.25-.01.5-.02.75-.03.23-.01.47-.02.7-.03.25-.01.5-.02.75-.04.24-.01.47-.02.7-.04.25-.01.5-.03.75-.04.23-.01.47-.03.7-.04.25-.01.5-.03.75-.04.24-.01.47-.03.7-.04.25-.02.5-.03.75-.05.24-.02.47-.03.7-.05.25-.02.5-.04.75-.05.24-.02.47-.03.7-.05.25-.02.5-.04.75-.06.24-.02.47-.04.7-.06.25-.02.5-.04.75-.06.24-.02.47-.04.7-.06.25-.02.5-.05.75-.07.24-.02.47-.05.7-.07.25-.03.5-.05.75-.08.24-.03.47-.05.7-.08.25-.03.5-.06.75-.09.24-.03.47-.06.7-.09.26-.03.51-.07.75-.1.24-.03.47-.07.7-.1.26-.04.51-.08.75-.12.24-.04.47-.08.7-.12.26-.05.51-.09.75-.14.24-.05.48-.09.7-.14.26-.06.51-.11.75-.17.25-.06.48-.12.7-.19.34-.1.63-.2.88-.3Z"/>
        <rect class="cls-7" x="62.27" y="24.09" width="83.78" height="10.28"/>
        <rect class="cls-7" x="59.89" y="34.38" width="88.54" height="1.14"/>
        <path class="cls-6" d="M144.94,19.47c-.91-.78-2.07-1.21-3.27-1.21h-75.02c-1.2,0-2.36.43-3.27,1.21l-.81.69h83.17l-.81-.69Z"/>
        <path class="cls-9" d="M144.81,19.37H63.51s-.09.07-.13.11l-.81.69h83.17l-.81-.69s-.08-.07-.13-.11Z"/>
        <path class="cls-6" d="M144.82,19.37H63.51c-.68,0-1.23.58-1.23,1.29v6.21c0,.71.55,1.29,1.23,1.29h81.31c.68,0,1.23-.58,1.23-1.29v-6.21c0-.71-.55-1.29-1.23-1.29Z"/>
        <path class="cls-6" d="M148.9,22.45c-1-.85-2.27-1.32-3.58-1.32H63.01c-1.31,0-2.58.47-3.58,1.32l-.89.76h91.26l-.89-.76Z"/>
        <path class="cls-9" d="M148.69,22.28H59.63c-.07.05-.14.11-.21.17l-.89.76h91.26l-.89-.76c-.07-.06-.14-.11-.21-.17Z"/>
        <rect class="cls-9" x="58.2" y="22.73" width="91.92" height="9.23" rx="1.35" ry="1.35"/>
        <polygon class="cls-7" points="59.89 34.38 62.27 32.97 146.05 32.97 148.43 34.38 59.89 34.38"/>
        <polygon class="cls-7" points="59.89 35.51 62.27 36.92 146.05 36.92 148.43 35.51 59.89 35.51"/>
        <path class="cls-7" d="M148.23,41.51l-2.18-4.59h-3.36s-77.05,0-77.05,0h0s-3.36,0-3.36,0l-2.18,4.59c-1.66,3.49-2.52,7.31-2.52,11.18v98.33c0,7.23,2,14.36,5.74,20.54.93,2.03,18.86,3.64,40.85,3.64s39.94-1.62,40.85-3.65c3.75-6.19,5.74-13.3,5.74-20.54V52.69c0-3.87-.86-7.68-2.52-11.18Z"/>
        <path class="cls-10" d="M150.75,136.99c-13.47,2.43-29.96,4.31-48.77,4.15-16.94-.14-31.92-1.9-44.41-4.15v-65.48c14.2,1.34,29.8,2.2,46.61,2.2,16.79,0,32.38-.86,46.57-2.2v65.48Z"/>
        <g>
          <g>
            <path class="cls-8" d="M97.58,111.49c2.22.11,4.4.16,6.59.16,3.79,0,7.58-.16,11.58-.49,1.02-.08,1.89-.5,2.54-1.14.65-.65,1.08-1.55,1.17-2.57.33-3.63.53-7.26.55-10.89.01-2.5-.06-5-.24-7.51-.12.04-.25.08-.37.12h-.02c-.18.07-.36.13-.54.19h0s0,0,0,0c-.18.06-.36.13-.54.19h0s0,0,0,0c-.18.07-.35.13-.52.2h-.01s0,0,0,0c-.17.07-.35.14-.52.21h-.02c-.17.08-.34.15-.51.23h0c-.17.08-.34.16-.51.23h-.02c-.17.09-.33.17-.5.25h-.02c-.17.09-.33.17-.49.26h-.02c-.16.1-.33.18-.49.27h0c-.16.09-.33.18-.49.27h-.02c-.16.1-.32.19-.48.28h-.02c-.16.1-.32.2-.48.3h0c-7.67,4.7-13.04,12.5-15.56,19.43Z"/>
            <path class="cls-6" d="M88.34,98.15c.06,3.1.25,6.19.53,9.29.09,1.03.52,1.92,1.17,2.57.65.65,1.52,1.06,2.54,1.14,1.57.13,3.11.23,4.63.31-1.11-4.7-4.17-9.12-8.87-13.32Z"/>
            <path class="cls-9" d="M104.16,81.47c-3.79,0-7.58.16-11.58.49-1.01.08-1.87.49-2.51,1.13-.66.66-1.09,1.56-1.2,2.6-.4,3.63-.57,7.25-.55,10.86,0,.28,0,.55,0,.83,3.69-.1,6.53,1.31,8.52,4.23,2.65-3.69,7.35-7.93,12.79-10.54h0s.22-.11.22-.11h.02c.13-.07.27-.13.4-.2h.03c.13-.07.27-.13.4-.19h.03c.14-.07.27-.13.41-.19h0c.14-.06.28-.12.42-.17h0s.01,0,.01,0c.28-.11.57-.22.85-.32h.02c.14-.06.28-.1.42-.15h.03c.14-.05.28-.1.42-.14h.03c.14-.05.28-.09.42-.13h.03c.14-.05.28-.09.42-.13h.02c.14-.04.29-.08.43-.12h.03c.14-.04.29-.08.43-.11h0s.01,0,.01,0c.14-.03.29-.06.43-.09h0c.14-.03.29-.06.43-.09h.03c.14-.03.29-.06.43-.08h.02c.14-.03.29-.05.43-.07h.03c.14-.02.28-.04.43-.06h.03c.14-.02.29-.03.43-.05h.03c.14-.02.29-.03.43-.04h.02s0,0,0,0c.47.04.93.09,1.39.14-.08-1.03-.17-2.06-.29-3.09-.11-1.04-.54-1.95-1.2-2.6-.64-.64-1.5-1.05-2.51-1.13-4-.33-7.79-.49-11.58-.49Z"/>
          </g>
          <text class="cls-1" transform="translate(81.21 123.08)"><tspan x="0" y="0">CHEC</tspan><tspan class="cls-11" x="22.73" y="0">K</tspan><tspan x="28.47" y="0">AR</tspan><tspan class="cls-4" x="39.92" y="0">K</tspan></text>
          <text class="cls-2" transform="translate(88.49 131.19)"><tspan class="cls-5" x="0" y="0">C</tspan><tspan x="5.01" y="0">OURIER</tspan></text>
        </g>
      </g>
    </g>
  </g>
</svg>