<?xml version="1.0" encoding="UTF-8"?>
<svg id="Layer_2" data-name="Layer 2" xmlns="http://www.w3.org/2000/svg" xmlns:xlink="http://www.w3.org/1999/xlink" viewBox="0 0 208.32 197.61">
  <defs>
    <style>
      .cls-1, .cls-2, .cls-3, .cls-4, .cls-5, .cls-6, .cls-7, .cls-8, .cls-9 {
        stroke-width: 0px;
      }

      .cls-1, .cls-6 {
        fill: #1995b8;
      }

      .cls-1, .cls-10, .cls-7 {
        opacity: .23;
      }

      .cls-11 {
        clip-path: url(#clippath);
      }

      .cls-2, .cls-12, .cls-13 {
        fill: none;
      }

      .cls-3 {
        fill: #0067a6;
      }

      .cls-12 {
        stroke-width: .34px;
      }

      .cls-12, .cls-13 {
        stroke: #322d2a;
        stroke-miterlimit: 10;
      }

      .cls-13 {
        stroke-width: .38px;
      }

      .cls-4 {
        fill: #e4e4e4;
      }

      .cls-5, .cls-7 {
        fill: #8dbb22;
      }

      .cls-8 {
        fill: #414141;
      }

      .cls-9 {
        fill: #fff;
      }
    </style>
    <clipPath id="clippath">
      <path class="cls-2" d="M132.91,108.35l-65.75-.48v59.56c21.92,2.48,43.83,4.96,65.75,7.45v-66.53Z"/>
    </clipPath>
  </defs>
  <g id="Layer_1-2" data-name="Layer 1">
    <g>
      <rect class="cls-8" x="0" width="208.32" height="197.61" rx="29.33" ry="29.33"/>
      <g>
        <rect class="cls-4" x="75.42" y="24.81" width="65.75" height="147.99"/>
        <polygon class="cls-9" points="132.91 181.94 67.15 172.8 67.15 24.81 132.91 15.67 132.91 181.94"/>
        <g>
          <g class="cls-11">
            <g>
              <path class="cls-3" d="M85.55,126.82c-.07-3.74-.28-7.49-.6-11.25-.11-1.24-.58-2.33-1.31-3.13-.72-.79-1.7-1.3-2.83-1.41-1.74-.18-3.43-.32-5.09-.43,1.21,5.61,4.58,10.99,9.83,16.22Z"/>
              <path class="cls-3" d="M95.88,139.26c3.62.13,7.28.1,10.98-.06,1.24-.05,2.31-.52,3.11-1.3.78-.77,1.29-1.85,1.39-3.12.16-1.97.28-3.9.38-5.81-5.68,1.17-10.94,4.74-15.86,10.29Z"/>
              <path class="cls-5" d="M114.5,110.66c-2.72-.17-5.37-.26-8-.29-4.52-.05-8.98.11-13.62.46-1.17.09-2.17.58-2.91,1.36-.75.79-1.23,1.86-1.33,3.11-.38,4.4-.6,8.8-.62,13.2-.01,3.03.07,6.08.28,9.13.14-.04.28-.08.42-.12h.02c.21-.07.41-.13.62-.2h0s0,0,0,0c.2-.07.41-.13.61-.2h0s0,0,0,0c.2-.07.4-.14.6-.21h.02s.01,0,.01,0c.2-.07.4-.15.59-.23h.02c.2-.09.39-.17.59-.25h0c.2-.09.39-.17.59-.26h.02c.19-.1.38-.18.57-.27h.02c.19-.1.38-.19.57-.28h.02c.19-.11.38-.2.57-.3h0c.19-.1.38-.2.56-.3h.02c.18-.11.37-.22.55-.32h.02c.19-.12.37-.23.55-.34h0c9.04-5.42,15.52-14.99,18.6-23.67Z"/>
              <path class="cls-3" d="M62.97,148.32c.06,3.52.25,7.05.54,10.59.1,1.17.53,2.23,1.2,3.04.66.8,1.57,1.36,2.61,1.56,1.63.31,3.23.58,4.82.82-1.16-5.51-4.35-10.85-9.18-16.01Z"/>
              <path class="cls-5" d="M87.82,168.51c.12-2.61.18-5.18.18-7.76,0-4.48-.18-8.96-.54-13.71-.09-1.2-.55-2.27-1.26-3.08-.72-.81-1.69-1.37-2.81-1.55-3.93-.63-7.8-1.09-11.62-1.34-2.61-.17-5.2-.24-7.78-.19.04.14.08.29.12.43v.02c.07.21.13.42.19.63h0s0,0,0,0c.06.21.13.42.2.62h0s0,0,0,0c.07.2.14.41.21.61v.02s0,.01,0,.01c.07.2.14.4.22.6v.02c.08.2.16.4.24.6h0c.08.21.16.41.24.61v.02c.09.2.17.39.26.59v.02c.09.19.18.39.26.58v.02c.1.19.19.39.28.58h0c.09.2.18.39.28.58v.02c.1.19.2.38.29.56v.02c.11.19.21.38.31.57h0c4.89,9.19,13.19,16.18,20.73,19.88Z"/>
              <path class="cls-6" d="M63.65,128.59c0,.22,0,1.15.1,2.37.07.81.15,1.66.42,2.69.28,1.08.65,1.88.75,2.06,1.1,2.18,5.95,2.44,14.63,2.18,2.39-.07,4.42-.16,5.91-.24-.64-.65-1.62-1.63-2.81-2.8-1.87-1.84-3.11-2.95-3.43-3.32-2.91-3.34-4.49-6.69-5.32-8.87l-.11-.26v-.02c-.08-.16-.15-.31-.21-.47l-.02-.04c-.06-.16-.13-.31-.19-.47v-.04c-.08-.16-.14-.32-.21-.49-.06-.16-.12-.33-.19-.51h0c-.12-.35-.23-.68-.34-1.01v-.02c-.06-.16-.11-.33-.16-.49v-.03c-.06-.16-.11-.32-.15-.49v-.03c-.06-.16-.1-.32-.15-.49v-.04c-.05-.16-.1-.33-.14-.49v-.02c-.05-.17-.09-.33-.13-.5v-.03c-.04-.17-.08-.33-.12-.52-.04-.17-.07-.34-.1-.52-.03-.17-.06-.33-.09-.5v-.04c-.03-.17-.06-.33-.09-.5v-.03c-.03-.17-.05-.33-.07-.5v-.04c-.03-.16-.04-.33-.06-.5v-.03c-.02-.17-.04-.33-.05-.5v-.04c-.02-.17-.03-.33-.04-.5,0,0,0-.02,0-.03.04-.54.09-1.08.15-1.61-1.1.08-2.21.17-3.31.29-1.11.12-2.07.6-2.76,1.34-.67.72-1.11,1.7-1.19,2.85-.35,4.57-.52,8.89-.52,13.22Z"/>
              <g class="cls-10">
                <path class="cls-3" d="M113.21,158.3c-.07-3.74-.28-7.49-.6-11.25-.11-1.24-.58-2.33-1.31-3.13-.72-.79-1.7-1.3-2.83-1.41-1.74-.18-3.43-.32-5.09-.43,1.21,5.61,4.58,10.99,9.83,16.22Z"/>
              </g>
              <g class="cls-10">
                <path class="cls-3" d="M123.55,170.73c3.62.13,7.28.1,10.98-.06,1.24-.05,2.31-.52,3.11-1.3.78-.77,1.29-1.85,1.39-3.12.16-1.97.28-3.9.38-5.81-5.68,1.17-10.94,4.74-15.86,10.29Z"/>
              </g>
              <path class="cls-7" d="M142.16,142.14c-2.72-.17-5.37-.26-8-.29-4.52-.05-8.98.11-13.62.46-1.17.09-2.17.58-2.91,1.36-.75.79-1.23,1.86-1.33,3.11-.38,4.4-.6,8.8-.62,13.2-.01,3.03.07,6.08.28,9.13.14-.04.28-.08.42-.12h.02c.21-.07.41-.13.62-.2h0s0,0,0,0c.2-.07.41-.13.61-.2h0s0,0,0,0c.2-.07.4-.14.6-.21h.02s.01,0,.01,0c.2-.07.4-.15.59-.23h.02c.2-.09.39-.17.59-.25h0c.2-.09.39-.17.59-.26h.02c.19-.1.38-.18.57-.27h.02c.19-.1.38-.19.57-.28h.02c.19-.11.38-.2.57-.3h0c.19-.1.38-.2.56-.3h.02c.18-.11.37-.22.55-.32h.02c.19-.12.37-.23.55-.34h0c9.04-5.42,15.52-14.99,18.6-23.67Z"/>
              <path class="cls-1" d="M91.31,160.07c0,.22,0,1.15.1,2.37.07.81.15,1.66.42,2.69.28,1.08.65,1.88.75,2.06,1.1,2.18,5.95,2.44,14.63,2.18,2.39-.07,4.42-.16,5.91-.24-.64-.65-1.62-1.63-2.81-2.8-1.87-1.84-3.11-2.95-3.43-3.32-2.91-3.34-4.49-6.69-5.32-8.87l-.11-.26v-.02c-.08-.16-.15-.31-.21-.47l-.02-.04c-.06-.16-.13-.31-.19-.47v-.04c-.08-.16-.14-.32-.21-.49-.06-.16-.12-.33-.19-.51h0c-.12-.35-.23-.68-.34-1.01v-.02c-.06-.16-.11-.33-.16-.49v-.03c-.06-.16-.11-.32-.15-.49v-.03c-.06-.16-.1-.32-.15-.49v-.04c-.05-.16-.1-.33-.14-.49v-.02c-.05-.17-.09-.33-.13-.5v-.03c-.04-.17-.08-.33-.12-.52-.04-.17-.07-.34-.1-.52-.03-.17-.06-.33-.09-.5v-.04c-.03-.17-.06-.33-.09-.5v-.03c-.03-.17-.05-.33-.07-.5v-.04c-.03-.16-.04-.33-.06-.5v-.03c-.02-.17-.04-.33-.05-.5v-.04c-.02-.17-.03-.33-.04-.5,0,0,0-.02,0-.03.04-.54.09-1.08.15-1.61-1.1.08-2.21.17-3.31.29-1.11.12-2.07.6-2.76,1.34-.67.72-1.11,1.7-1.19,2.85-.35,4.57-.52,8.89-.52,13.22Z"/>
              <path class="cls-5" d="M125.56,110.69c1.71-.07,3.39-.09,5.09-.07,2.97.03,5.95.19,9.14.49.81.08,1.52.41,2.04.93.53.53.87,1.24.94,2.06.27,2.89.43,5.78.44,8.67,0,1.99-.05,3.98-.2,5.97-.1-.03-.2-.07-.3-.1h-.02c-.15-.06-.29-.11-.44-.17h0s0,0,0,0c-.14-.06-.29-.11-.43-.17h0s0,0,0,0c-.14-.06-.28-.12-.42-.17h-.01s0,0,0,0c-.14-.06-.28-.12-.41-.18h-.02c-.14-.07-.28-.13-.41-.2h0c-.14-.07-.27-.13-.41-.2h-.02c-.13-.07-.27-.14-.4-.21h-.01c-.13-.08-.26-.14-.39-.22h-.02c-.13-.08-.26-.15-.39-.23h0c-.13-.08-.26-.15-.39-.23h-.01c-.13-.08-.25-.16-.38-.24h-.01c-.13-.09-.25-.17-.38-.25h0c-6.05-3.87-10.21-10.06-12.15-15.47Z"/>
              <path class="cls-6" d="M114.15,129.59c0,.23-.01,1.22.11,2.52.08.86.17,1.76.48,2.86.33,1.15.75,2,.86,2.19,1.26,2.32,6.84,2.61,16.84,2.36,2.76-.07,5.1-.16,6.82-.24-.74-.7-1.86-1.74-3.24-2.99-2.15-1.96-3.58-3.15-3.95-3.54-3.36-3.55-5.17-7.12-6.13-9.44l-.13-.28v-.03c-.09-.17-.17-.33-.24-.5l-.02-.04c-.07-.17-.15-.33-.22-.5l-.02-.04c-.07-.17-.15-.34-.22-.52-.07-.18-.14-.35-.22-.54v-.02c-.14-.35-.28-.71-.4-1.06v-.03c-.07-.17-.13-.35-.19-.52v-.03c-.07-.17-.12-.34-.18-.52v-.04c-.07-.17-.12-.34-.17-.52v-.04c-.06-.17-.11-.35-.16-.52v-.02c-.05-.18-.1-.35-.14-.53v-.03c-.05-.18-.09-.35-.14-.55-.04-.18-.08-.36-.12-.55-.04-.18-.07-.35-.1-.53v-.04c-.04-.18-.07-.35-.1-.53v-.03c-.03-.18-.06-.35-.08-.53v-.04c-.03-.18-.05-.35-.07-.53v-.03c-.02-.18-.04-.35-.06-.53v-.04c-.02-.18-.03-.35-.05-.53,0,0,0-.02,0-.03.05-.57.11-1.14.17-1.71-1.27.08-2.54.18-3.8.31-1.27.13-2.38.63-3.17,1.42-.77.77-1.27,1.8-1.37,3.03-.4,4.85-.6,9.44-.6,14.04Z"/>
            </g>
          </g>
          <polygon class="cls-6" points="73.64 56.24 125.1 52.38 125.1 43.53 73.64 48.06 73.64 56.24"/>
          <polygon class="cls-8" points="73.64 66.87 114.85 64.48 114.85 55.76 73.64 58.69 73.64 66.87"/>
          <polygon class="cls-8" points="73.64 43.03 100.7 40.43 100.7 35.83 73.64 38.62 73.64 43.03"/>
          <line class="cls-13" x1="73.59" y1="92.82" x2="125.2" y2="91.96"/>
          <line class="cls-13" x1="73.59" y1="95.09" x2="125.2" y2="94.42"/>
          <line class="cls-13" x1="73.59" y1="88.28" x2="125.2" y2="87.04"/>
          <line class="cls-13" x1="73.59" y1="90.55" x2="125.2" y2="89.5"/>
          <line class="cls-13" x1="73.59" y1="83.74" x2="125.2" y2="82.12"/>
          <line class="cls-13" x1="73.59" y1="86.01" x2="125.2" y2="84.58"/>
          <line class="cls-13" x1="73.59" y1="79.19" x2="125.2" y2="77.21"/>
          <line class="cls-13" x1="73.59" y1="81.47" x2="125.2" y2="79.67"/>
          <line class="cls-13" x1="73.59" y1="74.65" x2="125.2" y2="72.29"/>
          <line class="cls-13" x1="73.59" y1="76.92" x2="125.2" y2="74.75"/>
          <line class="cls-13" x1="73.59" y1="97.54" x2="125.2" y2="97.06"/>
          <line class="cls-12" x1="73.59" y1="100.15" x2="113.19" y2="99.95"/>
        </g>
      </g>
    </g>
  </g>
</svg>