<?xml version="1.0" encoding="UTF-8"?>
<svg xmlns="http://www.w3.org/2000/svg" version="1.1" viewBox="0 0 208.3 197.6">
  <defs>
    <style>
      .cls-1 {
        fill: #414141;
      }

      .cls-2 {
        fill: #e4e4e4;
      }

      .cls-3 {
        isolation: isolate;
      }

      .cls-4 {
        fill: #fff;
      }

      .cls-5 {
        fill: #0067a6;
      }

      .cls-6 {
        fill: #1995b8;
      }

      .cls-7 {
        fill: #8dbb22;
      }
    </style>
  </defs>
  <!-- Generator: Adobe Illustrator 28.6.0, SVG Export Plug-In . SVG Version: 1.2.0 Build 709)  -->
  <g>
    <g id="Layer_2">
      <g id="Layer_1-2">
        <g>
          <rect class="cls-1" y="0" width="208.3" height="197.6" rx="29.3" ry="29.3"/>
          <g>
            <g>
              <path class="cls-7" d="M86.8,108.9c5.4.3,10.7.4,16,.4,9.2,0,18.4-.4,28.1-1.2,2.5-.2,4.6-1.2,6.2-2.8,1.6-1.6,2.6-3.8,2.8-6.2.8-8.8,1.3-17.6,1.3-26.4,0-6.1-.2-12.2-.6-18.2-.3,0-.6.2-.9.3h0c-.4.2-.9.3-1.3.5h0c-.4.2-.9.3-1.3.5h0c-.4.2-.9.3-1.3.5h0c-.4.2-.8.4-1.2.5h0c-.4.2-.8.4-1.2.6h0c-.4.2-.8.4-1.2.6h0c-.4.2-.8.4-1.2.6h0c-.4.2-.8.4-1.2.6h0c-.4.2-.8.4-1.2.7h0c-.4.2-.8.4-1.2.7h0c-.4.2-.8.5-1.2.7h0c-.4.3-.8.5-1.2.7h0c-18.6,11.4-31.7,30.4-37.8,47.2h0Z"/>
              <path class="cls-5" d="M64.3,76.5c.1,7.5.6,15,1.3,22.6.2,2.5,1.2,4.7,2.8,6.2,1.6,1.6,3.7,2.6,6.2,2.8,3.8.3,7.6.6,11.2.8-2.7-11.4-10.1-22.2-21.5-32.3Z"/>
              <path class="cls-6" d="M102.8,36c-9.2,0-18.4.4-28.1,1.2-2.4.2-4.5,1.2-6.1,2.8-1.6,1.6-2.6,3.8-2.9,6.3-1,8.8-1.4,17.6-1.3,26.4,0,.7,0,1.3,0,2,9-.2,15.9,3.2,20.7,10.3,6.4-9,17.8-19.2,31.1-25.6h0l.5-.3h0c.3-.2.7-.3,1-.5h0c.3-.2.7-.3,1-.5h0c.3-.2.7-.3,1-.4h0c.3-.2.7-.3,1-.4h0c.7-.3,1.4-.5,2.1-.8h0c.3-.1.7-.3,1-.4h0c.3-.1.7-.2,1-.4h0c.3-.1.7-.2,1-.3h0c.3-.1.7-.2,1-.3h0c.3-.1.7-.2,1-.3h0c.4-.1.7-.2,1-.3h0c.4,0,.7-.2,1.1-.2h0c.4,0,.7-.1,1-.2h0c.4,0,.7-.1,1-.2h0c.4,0,.7-.1,1-.2h0c.4,0,.7,0,1-.1h0c.4,0,.7,0,1.1-.1h0c.4,0,.7,0,1.1,0h0c1.1,0,2.3.2,3.4.3-.2-2.5-.4-5-.7-7.5-.3-2.5-1.3-4.7-2.9-6.3-1.6-1.5-3.6-2.5-6.1-2.8-9.7-.8-18.9-1.2-28.1-1.2h0Z"/>
            </g>
            <g class="cls-3">
              <g class="cls-3">
                <path class="cls-4" d="M58.6,136.8c-.9.4-2,.6-3.2.6s-2.1-.2-3-.5c-.9-.4-1.7-.9-2.4-1.5s-1.2-1.4-1.6-2.4c-.4-.9-.6-1.9-.6-3s.2-2.2.6-3.1c.4-.9.9-1.7,1.6-2.3.7-.6,1.5-1.1,2.4-1.5.9-.3,1.9-.5,3-.5s2,.2,2.9.5c1,.4,1.7.9,2.3,1.5l-2.3,2.3c-.3-.4-.7-.8-1.3-1-.5-.2-1.1-.3-1.6-.3s-1.1.1-1.6.3c-.5.2-.9.5-1.3.9s-.6.8-.8,1.4c-.2.5-.3,1.1-.3,1.7s0,1.2.3,1.8c.2.5.5,1,.8,1.4.4.4.8.7,1.3.9.5.2,1,.3,1.6.3s1.3-.1,1.8-.4.9-.6,1.2-1l2.4,2.2c-.6.7-1.4,1.3-2.3,1.7Z"/>
                <path class="cls-4" d="M71.3,137v-5.9h-5.5v5.9h-3.4v-14.1h3.4v5.4h5.5v-5.4h3.4v14.1h-3.4Z"/>
                <path class="cls-4" d="M77.6,137v-14.1h9.5v2.9h-6.2v2.7h5.9v2.7h-5.9v2.9h6.6v2.9h-9.9Z"/>
                <path class="cls-4" d="M99.9,136.8c-.9.4-2,.6-3.2.6s-2.1-.2-3-.5c-.9-.4-1.7-.9-2.4-1.5-.7-.7-1.2-1.4-1.6-2.4-.4-.9-.6-1.9-.6-3s.2-2.2.6-3.1c.4-.9.9-1.7,1.6-2.3.7-.6,1.5-1.1,2.4-1.5.9-.3,1.9-.5,3-.5s2,.2,2.9.5c1,.4,1.7.9,2.3,1.5l-2.3,2.3c-.3-.4-.7-.8-1.3-1s-1.1-.3-1.6-.3-1.1.1-1.6.3-.9.5-1.3.9-.6.8-.8,1.4c-.2.5-.3,1.1-.3,1.7s.1,1.2.3,1.8c.2.5.5,1,.8,1.4.4.4.8.7,1.3.9s1,.3,1.6.3,1.3-.1,1.8-.4c.5-.3.9-.6,1.2-1l2.4,2.2c-.6.7-1.4,1.3-2.3,1.7Z"/>
              </g>
              <g class="cls-3">
                <path class="cls-4" d="M112.3,137l-5.3-6.5h0v6.5h-3.3v-14.1h3.3v5.8h0l5.1-5.8h4.3l-6.1,6.5,6.5,7.6h-4.5Z"/>
              </g>
              <g class="cls-3">
                <path class="cls-4" d="M127.2,137l-1.1-2.8h-5.5l-1,2.8h-3.7l5.9-14.1h3.3l5.9,14.1h-3.8ZM123.4,126.6l-1.8,4.9h3.6l-1.8-4.9Z"/>
                <path class="cls-4" d="M139.7,137l-3.1-5.6h-1.2v5.6h-3.3v-14.1h5.4c.7,0,1.3,0,2,.2.6.1,1.2.4,1.7.7s.9.8,1.2,1.3c.3.5.5,1.2.5,2s-.3,1.8-.8,2.4c-.5.7-1.2,1.1-2.2,1.4l3.7,6.1h-4ZM139.6,127.2c0-.3,0-.6-.2-.8-.1-.2-.3-.4-.5-.5-.2-.1-.5-.2-.7-.2s-.5,0-.8,0h-1.8v3.3h1.6c.3,0,.6,0,.9,0,.3,0,.6-.1.8-.2.2-.1.4-.3.6-.5.2-.2.2-.5.2-.9Z"/>
              </g>
              <g class="cls-3">
                <path class="cls-4" d="M154,137l-5.3-6.5h0v6.5h-3.3v-14.1h3.3v5.8h0l5.1-5.8h4.3l-6.1,6.5,6.5,7.6h-4.5Z"/>
              </g>
            </g>
            <g class="cls-3">
              <g class="cls-3">
                <path class="cls-2" d="M76.8,154.8c-.5.7-1.1,1.2-1.9,1.6-.8.4-1.7.6-2.8.6s-1.8-.2-2.6-.5-1.5-.8-2.1-1.3c-.6-.6-1-1.3-1.4-2.1-.3-.8-.5-1.7-.5-2.6s.2-1.8.5-2.6c.3-.8.8-1.5,1.4-2,.6-.6,1.3-1,2.1-1.3.8-.3,1.7-.5,2.6-.5s.8,0,1.3.1c.4,0,.8.2,1.2.4.4.2.8.4,1.1.6.3.2.6.5.8.8l-1.4,1c-.3-.4-.7-.8-1.3-1-.6-.3-1.2-.4-1.8-.4s-1.4.1-1.9.4c-.6.3-1.1.6-1.5,1.1-.4.5-.7,1-.9,1.6-.2.6-.3,1.2-.3,1.9s.1,1.4.3,2c.2.6.5,1.1.9,1.6s.9.8,1.5,1.1c.6.3,1.2.4,1.9.4s1.3-.1,1.9-.4c.6-.3,1-.7,1.4-1.2l1.4.9Z"/>
              </g>
              <g class="cls-3">
                <path class="cls-2" d="M90.8,150.5c0,1-.2,1.8-.5,2.6s-.8,1.5-1.4,2.1c-.6.6-1.3,1-2.1,1.3s-1.7.5-2.6.5-1.8-.2-2.6-.5-1.5-.8-2.1-1.3c-.6-.6-1-1.3-1.4-2.1-.3-.8-.5-1.7-.5-2.6s.2-1.8.5-2.6c.3-.8.8-1.5,1.4-2,.6-.6,1.3-1,2.1-1.3s1.7-.5,2.6-.5,1.8.2,2.6.5,1.5.8,2.1,1.3c.6.6,1,1.2,1.4,2s.5,1.7.5,2.6ZM89,150.5c0-.7-.1-1.3-.3-1.9-.2-.6-.5-1.1-.9-1.6-.4-.5-.9-.8-1.5-1.1-.6-.3-1.2-.4-1.9-.4s-1.4.1-1.9.4c-.6.3-1.1.6-1.5,1.1-.4.5-.7,1-.9,1.6-.2.6-.3,1.2-.3,1.9s.1,1.3.3,1.9.5,1.1.9,1.6.9.8,1.5,1.1c.6.3,1.2.4,1.9.4s1.4-.1,1.9-.4c.6-.3,1.1-.6,1.5-1.1.4-.4.7-1,.9-1.6.2-.6.3-1.3.3-1.9Z"/>
                <path class="cls-2" d="M97.9,157c-.8,0-1.5-.1-2.1-.4s-1.1-.6-1.5-1.1c-.4-.5-.7-1-.9-1.6-.2-.6-.3-1.2-.3-1.8v-7.8h1.7v7.7c0,.4,0,.8.2,1.2s.3.8.5,1.1c.2.3.6.6.9.8.4.2.9.3,1.5.3s1.1,0,1.5-.3c.4-.2.7-.5,1-.8.2-.3.4-.7.5-1.1.1-.4.2-.8.2-1.2v-7.7h1.7v7.8c0,.6,0,1.2-.3,1.8-.2.6-.5,1.1-.9,1.6-.4.5-.9.8-1.5,1.1s-1.3.4-2.1.4Z"/>
                <path class="cls-2" d="M107.4,156.7h-1.7v-12.4h4c.6,0,1.2,0,1.7.2.5.1,1,.3,1.4.6.4.3.7.6,1,1.1.2.4.3,1,.3,1.6,0,.9-.3,1.6-.8,2.2-.6.6-1.3.9-2.2,1.1l3.5,5.7h-2.1l-3.1-5.5h-1.9v5.5ZM107.4,149.7h2c.4,0,.8,0,1.1-.1.3,0,.7-.2.9-.3s.5-.4.6-.6c.2-.3.2-.6.2-.9s0-.7-.2-.9c-.2-.3-.4-.5-.6-.6-.3-.2-.5-.3-.9-.3-.3,0-.7,0-1.1,0h-2.1v3.9Z"/>
                <path class="cls-2" d="M118.1,156.7h-1.7v-12.4h1.7v12.4Z"/>
                <path class="cls-2" d="M122.8,155.2h6.5v1.5h-8.2v-12.4h7.9v1.5h-6.2v3.7h5.8v1.5h-5.8v4.1Z"/>
                <path class="cls-2" d="M133.3,156.7h-1.7v-12.4h4c.6,0,1.2,0,1.7.2.5.1,1,.3,1.4.6.4.3.7.6,1,1.1.2.4.3,1,.3,1.6,0,.9-.3,1.6-.8,2.2-.6.6-1.3.9-2.2,1.1l3.5,5.7h-2.1l-3.1-5.5h-1.9v5.5ZM133.3,149.7h2c.4,0,.8,0,1.1-.1.3,0,.7-.2.9-.3.3-.2.5-.4.6-.6.2-.3.2-.6.2-.9s0-.7-.2-.9c-.2-.3-.4-.5-.6-.6-.3-.2-.5-.3-.9-.3-.3,0-.7,0-1.1,0h-2.1v3.9Z"/>
              </g>
            </g>
          </g>
        </g>
      </g>
    </g>
  </g>
</svg>