<?xml version="1.0" encoding="UTF-8"?>
<svg id="Layer_2" data-name="Layer 2" xmlns="http://www.w3.org/2000/svg" viewBox="0 0 208.32 197.61">
  <defs>
    <style>
      .cls-1 {
        letter-spacing: 0em;
      }

      .cls-2 {
        fill: #e4e4e4;
        font-family: AvenirNext-Medium, 'Avenir Next';
        font-size: 17.47px;
        font-weight: 500;
      }

      .cls-3 {
        fill: #0067a6;
      }

      .cls-3, .cls-4, .cls-5, .cls-6 {
        stroke-width: 0px;
      }

      .cls-7 {
        letter-spacing: -.01em;
      }

      .cls-8 {
        letter-spacing: -.01em;
      }

      .cls-4 {
        fill: #8dbb22;
      }

      .cls-5 {
        fill: #1995b8;
      }

      .cls-6 {
        fill: #414141;
      }

      .cls-9 {
        fill: #fff;
        font-family: AvenirNext-Bold, 'Avenir Next';
        font-size: 19.97px;
        font-weight: 700;
      }
    </style>
  </defs>
  <g id="Layer_1-2" data-name="Layer 1">
    <g>
      <rect class="cls-6" width="208.32" height="197.61" rx="29.33" ry="29.33"/>
      <g>
        <g>
          <path class="cls-4" d="M86.75,108.87c5.4.26,10.69.4,15.99.4,9.21,0,18.4-.4,28.13-1.2,2.47-.2,4.6-1.21,6.17-2.78,1.59-1.59,2.61-3.76,2.84-6.25.81-8.82,1.29-17.63,1.33-26.43.03-6.07-.16-12.15-.59-18.24-.3.09-.6.19-.9.28l-.05.02c-.44.14-.88.29-1.32.44h0s-.02,0-.02,0c-.44.15-.87.31-1.3.47h0s0,0,0,0c-.43.16-.85.32-1.27.49h-.03s-.02.02-.02.02c-.42.17-.84.34-1.25.51l-.05.02c-.42.18-.83.35-1.25.54h-.02c-.41.19-.83.38-1.24.57l-.05.02c-.41.19-.81.38-1.21.58l-.04.02c-.4.2-.8.4-1.2.6l-.05.02c-.4.21-.8.42-1.19.63h-.02c-.4.22-.79.44-1.18.66l-.04.03c-.39.22-.77.44-1.15.66l-.04.03c-.39.23-.78.46-1.16.69h0c-18.63,11.4-31.67,30.36-37.77,47.18Z"/>
          <path class="cls-3" d="M64.32,76.48c.14,7.52.6,15.04,1.29,22.56.23,2.49,1.25,4.66,2.84,6.25,1.57,1.57,3.7,2.58,6.17,2.78,3.82.31,7.56.57,11.24.76-2.7-11.4-10.12-22.15-21.54-32.35Z"/>
          <path class="cls-5" d="M102.75,35.97c-9.21,0-18.4.4-28.13,1.2-2.45.2-4.54,1.2-6.09,2.75-1.6,1.6-2.64,3.79-2.92,6.32-.97,8.81-1.38,17.6-1.33,26.37,0,.67,0,1.34.02,2.01,8.96-.24,15.86,3.18,20.68,10.26,6.43-8.96,17.84-19.25,31.05-25.59h0s.54-.26.54-.26l.05-.02c.32-.15.65-.3.98-.45l.08-.03c.32-.14.65-.29.97-.43l.08-.03c.33-.14.67-.28,1-.42h.02c.34-.15.68-.28,1.03-.42h.02s.03-.02.03-.02c.69-.27,1.38-.53,2.07-.77l.05-.02c.34-.12.68-.24,1.02-.35l.06-.02c.34-.11.67-.22,1.01-.33l.07-.02c.34-.1.68-.21,1.01-.31l.07-.02c.34-.1.69-.2,1.03-.29h.05c.35-.11.69-.2,1.04-.28l.06-.02c.35-.09.69-.17,1.04-.25h.02s.03,0,.03,0c.35-.08.7-.16,1.06-.23h.02c.35-.08.7-.14,1.04-.21h.08c.35-.08.69-.14,1.04-.19h.06c.35-.06.69-.12,1.04-.16h.08c.35-.06.69-.1,1.04-.14h.06c.35-.05.7-.08,1.05-.11h.07c.35-.04.7-.07,1.05-.09h.04s.02,0,.02,0c1.14.1,2.26.21,3.38.34-.19-2.5-.42-5-.69-7.5-.28-2.53-1.32-4.73-2.92-6.32-1.55-1.55-3.64-2.55-6.09-2.75-9.72-.8-18.92-1.2-28.13-1.2Z"/>
        </g>
        <text class="cls-9" transform="translate(47.01 137.01)"><tspan x="0" y="0">CHEC</tspan><tspan class="cls-7" x="55.18" y="0">K</tspan><tspan x="69.14" y="0">AR</tspan><tspan class="cls-7" x="96.94" y="0">K</tspan></text>
        <text class="cls-2" transform="translate(64.69 156.7)"><tspan class="cls-8" x="0" y="0">C</tspan><tspan class="cls-1" x="12.16" y="0">OURIER</tspan></text>
      </g>
    </g>
  </g>
</svg>