<?xml version="1.0" encoding="UTF-8"?>
<svg id="b" data-name="Layer 2" xmlns="http://www.w3.org/2000/svg" width="202.612" height="145.873" viewBox="0 0 202.612 145.873">
  <g id="c" data-name="Layer 1">
    <g>
      <path d="M191.722,144.365c-1.312.349-2.668-.415-3.044-1.725-4.713-16.387-24.601-71.576-82.648-93.716-45.898-17.506-86.991-3.644-102.53,3.129-1.262.551-2.739-.027-3.291-1.293-.552-1.266.027-2.739,1.293-3.291,16.099-7.018,58.69-21.38,106.31-3.218,60.211,22.966,80.796,80.055,85.67,97.006.382,1.327-.384,2.712-1.711,3.094-.016.005-.033.009-.049.014Z" fill="#232323" stroke-width="0"/>
      <path d="M169.779,127.64c.513-.701,1.501-.852,2.202-.337l19.424,14.261,4.708-23.633c.17-.853,1.001-1.408,1.853-1.237s1.404,1.007,1.238,1.852l-5.192,26.058c-.106.528-.473.966-.975,1.161s-1.069.12-1.503-.199l-21.419-15.724c-.249-.184-.43-.428-.535-.698-.188-.485-.132-1.053.198-1.505Z" fill="#232323" stroke-width="0"/>
    </g>
    <g>
      <path d="M57.943,17.532c-4.185.473-6.918-1.683-7.386-5.819l-.491-4.349c-.468-4.136,1.717-6.825,5.901-7.298,4.183-.474,6.913,1.659,7.381,5.796l.492,4.349c.47,4.136-1.715,6.849-5.897,7.322ZM57.639,14.837c2.459-.278,3.582-1.77,3.295-4.299l-.489-4.326c-.288-2.553-1.717-3.755-4.175-3.478-2.458.278-3.583,1.77-3.293,4.322l.488,4.326c.286,2.529,1.715,3.732,4.174,3.454Z" fill="#414141" stroke-width="0"/>
      <path d="M67.131,16.145l-.438-11.627c-.007-.214.106-.337.345-.346l2.045-.077c.237-.009.36.105.368.319l.439,11.627c.009.238-.106.362-.343.371l-2.046.077c-.238.009-.362-.105-.37-.343Z" fill="#414141" stroke-width="0"/>
      <path d="M82.791,16.928c-2.919-.192-5.169-2.224-4.972-5.238l.485-7.358c.014-.213.142-.325.379-.309l2.063.136c.214.014.325.141.311.354l-.484,7.358c-.113,1.733,1.002,2.521,2.38,2.612,1.376.09,2.562-.547,2.677-2.279l.484-7.358c.014-.214.14-.325.354-.311l2.066.136c.237.016.347.142.334.355l-.484,7.359c-.199,3.015-2.72,4.732-5.593,4.543Z" fill="#414141" stroke-width="0"/>
      <path d="M102.544,7.099l-1.887,11.481c-.037.235-.175.333-.408.294l-2.021-.331c-.234-.039-.333-.176-.294-.41l1.547-9.416-4.556-.748-1.547,9.416c-.039.234-.175.333-.386.298l-2.043-.336c-.212-.034-.333-.175-.294-.41l1.886-11.481c.035-.211.194-.305.406-.271l9.298,1.527c.235.039.333.175.298.387Z" fill="#414141" stroke-width="0"/>
      <path d="M103.214,19.121l2.811-10.525c.05-.184.155-.303.364-.346,1.486-.218,3.18-.11,4.812.325,3.173.847,4.938,2.895,3.956,6.572l-1.785,6.688c-.061.229-.207.314-.414.259l-1.999-.534c-.207-.055-.313-.207-.252-.437l1.773-6.642c.576-2.16-.239-3.067-1.918-3.516-.78-.209-1.661-.321-2.227-.324l-2.455,9.192c-.062.229-.207.313-.438.252l-1.976-.528c-.23-.062-.315-.207-.253-.437Z" fill="#414141" stroke-width="0"/>
      <path d="M114.142,26.872l4.004-10.897c1.231-3.35,4.082-4.001,6.695-3.041,2.567.944,4.543,3.292,3.295,6.687l-1.05,2.858c-1.066,2.903-3.79,3.625-6.692,2.559-.626-.229-1.336-.643-2.147-1.473l-1.558,4.243c-.083.224-.235.294-.437.22l-1.898-.697c-.223-.082-.294-.235-.212-.458ZM121.134,22.673c1.475.541,2.829.304,3.411-1.281l.977-2.658c.723-1.965-.165-3-1.505-3.493-1.406-.517-2.636-.208-3.35,1.735l-1.534,4.176c.528.701,1.242,1.242,2.001,1.521Z" fill="#414141" stroke-width="0"/>
      <path d="M136.267,28.051c.233-.045.373.049.429.261l.394,1.644c.034.202-.007.341-.229.418-2.206.623-3.753.217-5.381-.572-2.74-1.328-3.833-3.709-2.827-5.786.561-1.156,1.456-1.805,2.853-1.738-.554-.823-.755-1.714-.236-2.785.923-1.905,3.33-2.509,5.943-1.244,1.712.83,2.835,2.114,3.468,3.426.077.222-.017.362-.196.46l-1.46.72c-.189.119-.372.058-.48-.154-.426-.867-1.161-1.752-2.295-2.302-1.178-.571-2.102-.517-2.548.404-.416.856.03,1.627,1.079,2.136l1.841.893c.193.094.248.252.145.466l-.57,1.178c-.104.214-.264.269-.455.176l-1.842-.893c-1.307-.633-2.221-.6-2.698.384-.498,1.028.044,1.872,1.436,2.547,1.05.509,2.381.651,3.633.359Z" fill="#414141" stroke-width="0"/>
      <path d="M141.726,35.375c-2.805-1.705-3.67-4.402-2.064-7.044l1.347-2.216c1.631-2.683,4.46-3.217,7.266-1.512l5.346,3.249c.203.124.242.287.132.47l-.901,1.484c-.124.204-.287.243-.491.12l-1.463-.89c.108.874-.088,1.839-.669,2.794l-1.297,2.134c-1.606,2.642-4.399,3.116-7.204,1.411ZM143.022,33.241c1.464.89,2.717.705,3.583-.718l1.333-2.195c.902-1.484.514-2.722-.949-3.611-1.464-.89-2.742-.665-3.644.819l-1.335,2.195c-.865,1.423-.451,2.62,1.012,3.51Z" fill="#414141" stroke-width="0"/>
      <path d="M149.054,39.367l6.752-9.472c.125-.174.291-.202.484-.064l1.666,1.188c.194.138.222.304.098.478l-6.753,9.472c-.139.194-.306.222-.498.084l-1.666-1.188c-.193-.139-.222-.304-.083-.498ZM157.159,27.792l3.358-1.433c.174-.081.351-.042.486.055l1.706,1.215c.231.166.198.376-.095.459l-3.76,1.176c-.16.061-.337.022-.473-.075l-1.278-.911c-.232-.166-.219-.39.055-.487Z" fill="#414141" stroke-width="0"/>
      <path d="M161.711,45.333c.239.01.353.134.357.354v1.69c-.013.204-.085.33-.318.353-2.29.095-3.702-.659-5.103-1.803-2.357-1.927-2.869-4.497-1.408-6.284.812-.995,1.835-1.418,3.176-1.029-.348-.929-.337-1.843.415-2.764,1.34-1.64,3.822-1.669,6.07.167,1.474,1.205,2.269,2.714,2.581,4.137.022.234-.101.348-.299.402l-1.586.362c-.213.072-.376-.029-.433-.261-.213-.942-.723-1.973-1.699-2.771-1.013-.828-1.926-.99-2.573-.197-.602.737-.347,1.59.556,2.328l1.585,1.294c.166.136.182.303.031.487l-.827,1.013c-.151.185-.318.201-.484.065l-1.584-1.294c-1.124-.918-2.021-1.099-2.714-.251-.723.884-.391,1.832.807,2.811.902.737,2.164,1.186,3.45,1.191Z" fill="#414141" stroke-width="0"/>
      <path d="M167.413,52.392c.721,1.551,1.407,3.069.334,4.184-.76.789-2.062,1.285-3.944,1.422-.219.021-.355-.077-.394-.312l-.218-1.696c-.022-.218.094-.372.329-.377.824-.032,1.695-.251,1.992-.56.346-.36-.021-1.11-.513-2.111-.877-1.834-2.155-4.452.072-6.767l2.161-2.247c2.179-2.264,4.97-1.526,6.719.157,1.338,1.287,2.053,2.569,2.347,3.876.038.201-.061.338-.278.393l-1.709.403c-.2.038-.354-.043-.408-.261-.271-.853-.724-1.72-1.599-2.561-.823-.792-2.109-1.138-3.132-.074l-2.029,2.109c-1.171,1.218-.451,2.836.27,4.422Z" fill="#414141" stroke-width="0"/>
      <path d="M169.705,63.789l12.52-10.204c.166-.135.333-.119.483.066l1.293,1.586c.15.184.133.352-.033.487l-5.494,4.478c-1.236,1.007-1.538,2.481-.531,3.716,1.007,1.235,2.511,1.237,3.747.229l5.495-4.478c.165-.135.333-.118.483.066l1.292,1.586c.15.184.133.352-.033.487l-9.016,7.349c-.185.15-.352.133-.502-.051l-.947-1.162c-.12-.147-.155-.303-.019-.476l.62-.782c-1.001.203-2.205-.259-3.002-1.236-.751-.922-.913-1.986-.65-2.907-.243.229-.804.747-1.356,1.198l-2.636,2.148c-.186.151-.353.134-.502-.051l-1.263-1.549c-.151-.185-.135-.352.051-.502Z" fill="#414141" stroke-width="0"/>
      <path d="M183.285,75.086c-1.352-1.986-1.376-4.56,1.653-6.62l2.261-1.539c2.872-1.954,5.635-.726,7.28,1.693.87,1.278,1.538,2.809,1.962,4.362.033.178-.011.324-.168.431l-9.125,6.208c-.197.134-.362.103-.483-.074l-.91-1.337c-.105-.158-.102-.362.043-.489l.686-.64c-1.26-.12-2.463-.914-3.198-1.995ZM185.593,74.121c.454.669,1.45,1.372,2.54,1.494l5.369-3.653c-.224-.625-.66-1.393-1.088-2.021-.789-1.161-2.154-1.729-3.629-.725l-2.302,1.565c-1.573,1.07-1.802,2.003-.891,3.34Z" fill="#414141" stroke-width="0"/>
      <path d="M192.841,85.895c.261,1.689.499,3.337-.84,4.11-.948.547-2.337.663-4.183.273-.215-.041-.319-.173-.291-.409l.261-1.688c.041-.216.193-.331.421-.271.801.197,1.697.229,2.067.015.433-.25.288-1.072.095-2.169-.334-2.004-.837-4.873,1.945-6.479l2.697-1.558c2.72-1.569,5.195-.087,6.408,2.014.928,1.606,1.259,3.036,1.179,4.373-.019.204-.151.307-.376.299l-1.753-.086c-.204-.02-.328-.14-.32-.364-.021-.894-.217-1.853-.824-2.903-.571-.989-1.709-1.677-2.986-.94l-2.534,1.463c-1.463.844-1.219,2.598-.966,4.32Z" fill="#414141" stroke-width="0"/>
    </g>
  </g>
</svg>