<?xml version="1.0" encoding="UTF-8"?>
<svg id="Layer_2" data-name="Layer 2" xmlns="http://www.w3.org/2000/svg" xmlns:xlink="http://www.w3.org/1999/xlink" viewBox="0 0 208.32 197.61">
  <defs>
    <style>
      .cls-1 {
        clip-path: url(#clippath);
      }

      .cls-2, .cls-3, .cls-4, .cls-5, .cls-6, .cls-7 {
        stroke-width: 0px;
      }

      .cls-2, .cls-8, .cls-9 {
        fill: none;
      }

      .cls-3 {
        fill: #0067a6;
      }

      .cls-8 {
        stroke-width: .52px;
      }

      .cls-8, .cls-9 {
        stroke: #322d2a;
        stroke-miterlimit: 10;
      }

      .cls-4 {
        fill: #8dbb22;
      }

      .cls-5 {
        fill: #1995b8;
      }

      .cls-6 {
        fill: #414141;
      }

      .cls-9 {
        stroke-width: .46px;
      }

      .cls-7 {
        fill: #fff;
      }
    </style>
    <clipPath id="clippath">
      <rect class="cls-2" x="41.47" y="68.49" width="125.38" height="79.88"/>
    </clipPath>
  </defs>
  <g id="Layer_1-2" data-name="Layer 1">
    <g>
      <rect class="cls-6" x="0" width="208.32" height="197.61" rx="29.33" ry="29.33"/>
      <g>
        <rect class="cls-7" x="41.47" y="15.22" width="125.38" height="167.18"/>
        <rect class="cls-5" x="54.72" y="40" width="100.85" height="10.18" transform="translate(210.28 90.19) rotate(-180)"/>
        <rect class="cls-6" x="62.85" y="53.23" width="82" height="10.18" transform="translate(207.7 116.65) rotate(-180)"/>
        <rect class="cls-6" x="77.63" y="29.39" width="55.01" height="5.49" transform="translate(210.28 64.28) rotate(-180)"/>
        <rect class="cls-6" x="77.04" y="165.34" width="55.01" height="5.49" transform="translate(209.09 336.17) rotate(-180)"/>
        <line class="cls-8" x1="57.12" y1="150.84" x2="148.28" y2="150.84"/>
        <line class="cls-8" x1="57.12" y1="153.21" x2="148.28" y2="153.21"/>
        <line class="cls-8" x1="57.12" y1="155.76" x2="148.28" y2="155.76"/>
        <line class="cls-9" x1="67.1" y1="158.49" x2="138.3" y2="158.49"/>
        <g class="cls-1">
          <g>
            <path class="cls-3" d="M67.07,91.67c-.08-4.41-.35-8.82-.76-13.24-.13-1.46-.73-2.73-1.67-3.67-.92-.92-2.17-1.51-3.62-1.63-2.24-.18-4.43-.33-6.6-.44,1.58,6.69,5.94,12.99,12.63,18.97Z"/>
            <path class="cls-3" d="M79.94,105.64c4.41-.08,8.82-.35,13.24-.76,1.46-.13,2.73-.73,3.67-1.67.92-.92,1.51-2.17,1.63-3.62.18-2.24.33-4.43.44-6.6-6.69,1.58-12.99,5.94-18.97,12.63Z"/>
            <path class="cls-4" d="M102.12,72.26c-3.16-.16-6.27-.23-9.38-.23-5.4,0-10.8.23-16.5.7-1.45.12-2.7.71-3.62,1.63-.93.93-1.53,2.2-1.67,3.67-.47,5.17-.76,10.34-.78,15.5-.02,3.56.09,7.13.35,10.7.18-.05.35-.11.53-.17h.03c.26-.09.52-.18.77-.27h0s0,0,0,0c.26-.09.51-.18.76-.28h0s0,0,0,0c.25-.09.5-.19.75-.29h.02s.01-.01.01-.01c.25-.1.49-.2.74-.3h.03c.25-.12.49-.22.73-.33h.01c.24-.11.49-.22.73-.33h.03c.24-.12.48-.24.71-.35h.02c.24-.13.47-.24.7-.36h.03c.23-.14.47-.26.7-.38h.01c.23-.13.46-.26.69-.39h.03c.23-.14.45-.27.68-.4h.02c.23-.15.45-.28.68-.42h0c10.93-6.69,18.58-17.81,22.16-27.67Z"/>
            <path class="cls-3" d="M48.07,143.2c4.41-.08,8.82-.35,13.24-.76,1.46-.13,2.73-.73,3.67-1.67.92-.92,1.51-2.17,1.63-3.62.18-2.24.33-4.43.44-6.6-6.69,1.58-12.99,5.94-18.97,12.63Z"/>
            <path class="cls-4" d="M70.25,109.82c-3.16-.16-6.27-.23-9.38-.23-5.4,0-10.8.23-16.5.7-1.45.12-2.7.71-3.62,1.63-.93.93-1.53,2.2-1.67,3.67-.47,5.17-.76,10.34-.78,15.5-.02,3.56.09,7.13.35,10.7.18-.05.35-.11.53-.17h.03c.26-.09.52-.18.77-.27h0s0,0,0,0c.26-.09.51-.18.76-.28h0s0,0,0,0c.25-.09.5-.19.75-.29h.02s.01-.01.01-.01c.25-.1.49-.2.74-.3h.03c.25-.12.49-.22.73-.33h.01c.24-.11.49-.22.73-.33h.03c.24-.12.48-.24.71-.35h.02c.24-.13.47-.24.7-.36h.03c.23-.14.47-.26.7-.38h.01c.23-.13.46-.26.69-.39h.03c.23-.14.45-.27.68-.4h.02c.23-.15.45-.28.68-.42h0c10.93-6.69,18.58-17.81,22.16-27.67Z"/>
            <path class="cls-4" d="M83.49,142.09c1.95.1,3.86.14,5.77.14,3.32,0,6.64-.14,10.14-.43.89-.07,1.66-.44,2.22-1,.57-.57.94-1.35,1.02-2.25.29-3.18.47-6.36.48-9.53.01-2.19-.06-4.38-.21-6.58-.11.03-.22.07-.32.1h-.02c-.16.06-.32.11-.47.17h0s0,0,0,0c-.16.05-.31.11-.47.17h0s0,0,0,0c-.15.06-.31.12-.46.18h-.01s0,0,0,0c-.15.06-.3.12-.45.18h-.02c-.15.07-.3.14-.45.2h0c-.15.07-.3.14-.45.21h-.02c-.15.08-.29.15-.44.22h-.01c-.14.08-.29.15-.43.22h-.02c-.14.08-.29.16-.43.24h0c-.14.08-.28.16-.43.24h-.02c-.14.09-.28.17-.42.25h-.02c-.14.09-.28.17-.42.26h0c-6.72,4.11-11.42,10.95-13.62,17.02Z"/>
            <path class="cls-5" d="M38.38,94.81c0,.27-.01,1.4.13,2.89.1.99.2,2.02.57,3.26.38,1.3.89,2.25,1.01,2.47,1.48,2.58,7.96,2.57,19.31,1.69,3.07-.24,5.66-.48,7.56-.66-.82-.73-2.05-1.82-3.57-3.14-2.39-2.08-3.98-3.33-4.4-3.75-3.78-3.83-5.83-7.77-6.93-10.36l-.15-.31v-.03c-.1-.19-.19-.37-.28-.56l-.02-.04c-.09-.19-.17-.37-.25-.56l-.02-.04c-.08-.19-.17-.38-.25-.58-.08-.2-.16-.39-.25-.6v-.02c-.16-.39-.32-.79-.46-1.19v-.03c-.08-.19-.15-.39-.21-.59v-.04c-.08-.19-.14-.39-.2-.58v-.04c-.07-.19-.13-.39-.19-.58v-.04c-.07-.2-.13-.39-.18-.59v-.03c-.06-.2-.11-.4-.17-.6v-.03c-.06-.2-.11-.4-.16-.62-.05-.2-.09-.4-.14-.62-.04-.2-.08-.4-.12-.6v-.05c-.05-.2-.08-.4-.11-.6v-.03c-.04-.2-.07-.4-.1-.6v-.04c-.03-.2-.06-.4-.08-.6v-.04c-.03-.2-.05-.4-.07-.6v-.04c-.02-.2-.04-.4-.05-.6,0,0,0-.03,0-.04.06-.65.12-1.3.2-1.94-1.46.11-2.93.24-4.4.4-1.48.16-2.77.76-3.71,1.67-.91.89-1.5,2.09-1.61,3.49-.47,5.58-.7,10.85-.7,16.13Z"/>
            <path class="cls-5" d="M70.25,120.25c0-.27-.01-1.4.13-2.89.1-.99.2-2.02.57-3.26.38-1.3.89-2.25,1.01-2.47,1.48-2.58,7.96-2.57,19.31-1.69,3.07.24,5.66.48,7.56.66-.82.73-2.05,1.82-3.57,3.14-2.39,2.08-3.98,3.33-4.4,3.75-3.78,3.83-5.83,7.77-6.93,10.36l-.15.31v.03c-.1.19-.19.37-.28.56l-.02.04c-.09.19-.17.37-.25.56l-.02.04c-.08.19-.17.38-.25.58-.08.2-.16.39-.25.6v.02c-.16.39-.32.79-.46,1.19v.03c-.08.19-.15.39-.21.59v.04c-.08.19-.14.39-.2.58v.04c-.07.19-.13.39-.19.58v.04c-.07.2-.13.39-.18.59v.03c-.06.2-.11.4-.17.6v.03c-.06.2-.11.4-.16.62-.05.2-.09.4-.14.62-.04.2-.08.4-.12.6v.05c-.05.2-.08.4-.11.6v.03c-.04.2-.07.4-.1.6v.04c-.03.2-.06.4-.08.6v.04c-.03.2-.05.4-.07.6v.04c-.02.2-.04.4-.05.6,0,0,0,.03,0,.04.06.65.12,1.3.2,1.94-1.46-.11-2.93-.24-4.4-.4-1.48-.16-2.77-.76-3.71-1.67-.91-.89-1.5-2.09-1.61-3.49-.47-5.58-.7-10.85-.7-16.13Z"/>
          </g>
          <g>
            <path class="cls-3" d="M133.96,123.08c-.08,4.41-.35,8.82-.76,13.24-.13,1.46-.73,2.73-1.67,3.67-.92.92-2.17,1.51-3.62,1.63-2.24.18-4.43.33-6.6.44,1.58-6.69,5.94-12.99,12.63-18.97Z"/>
            <path class="cls-3" d="M146.83,109.1c4.41.08,8.82.35,13.24.76,1.46.13,2.73.73,3.67,1.67.92.92,1.51,2.17,1.63,3.62.18,2.24.33,4.43.44,6.6-6.69-1.58-12.99-5.94-18.97-12.63Z"/>
            <path class="cls-4" d="M169.01,142.48c-3.16.16-6.27.23-9.38.23-5.4,0-10.8-.23-16.5-.7-1.45-.12-2.7-.71-3.62-1.63-.93-.93-1.53-2.2-1.67-3.67-.47-5.17-.76-10.34-.78-15.5-.02-3.56.09-7.13.35-10.7.18.05.35.11.53.17h.03c.26.09.52.18.77.27h0s0,0,0,0c.26.09.51.18.76.28h0s0,0,0,0c.25.09.5.19.75.29h.02s.01.01.01.01c.25.1.49.2.74.3h.03c.25.12.49.22.73.33h.01c.24.11.49.22.73.33h.03c.24.12.48.24.71.35h.02c.24.13.47.24.7.36h.03c.23.14.47.26.7.38h.01c.23.13.46.26.69.39h.03c.23.14.45.27.68.4h.02c.23.15.45.28.68.42h0c10.93,6.69,18.58,17.81,22.16,27.67Z"/>
            <path class="cls-3" d="M114.96,71.54c4.41.08,8.82.35,13.24.76,1.46.13,2.73.73,3.67,1.67.92.92,1.51,2.17,1.63,3.62.18,2.24.33,4.43.44,6.6-6.69-1.58-12.99-5.94-18.97-12.63Z"/>
            <path class="cls-4" d="M137.14,104.93c-3.16.16-6.27.23-9.38.23-5.4,0-10.8-.23-16.5-.7-1.45-.12-2.7-.71-3.62-1.63-.93-.93-1.53-2.2-1.67-3.67-.47-5.17-.76-10.34-.78-15.5-.02-3.56.09-7.13.35-10.7.18.05.35.11.53.17h.03c.26.09.52.18.77.27h0s0,0,0,0c.26.09.51.18.76.28h0s0,0,0,0c.25.09.5.19.75.29h.02s.01.01.01.01c.25.1.49.2.74.3h.03c.25.12.49.22.73.33h.01c.24.11.49.22.73.33h.03c.24.12.48.24.71.35h.02c.24.13.47.24.7.36h.03c.23.14.47.26.7.38h.01c.23.13.46.26.69.39h.03c.23.14.45.27.68.4h.02c.23.15.45.28.68.42h0c10.93,6.69,18.58,17.81,22.16,27.67Z"/>
            <path class="cls-4" d="M150.38,72.65c1.95-.1,3.86-.14,5.77-.14,3.32,0,6.64.14,10.14.43.89.07,1.66.44,2.22,1,.57.57.94,1.35,1.02,2.25.29,3.18.47,6.36.48,9.53.01,2.19-.06,4.38-.21,6.58-.11-.03-.22-.07-.32-.1h-.02c-.16-.06-.32-.11-.47-.17h0s0,0,0,0c-.16-.05-.31-.11-.47-.17h0s0,0,0,0c-.15-.06-.31-.12-.46-.18h-.01s0,0,0,0c-.15-.06-.3-.12-.45-.18h-.02c-.15-.07-.3-.14-.45-.2h0c-.15-.07-.3-.14-.45-.21h-.02c-.15-.08-.29-.15-.44-.22h-.01c-.14-.08-.29-.15-.43-.22h-.02c-.14-.08-.29-.16-.43-.24h0c-.14-.08-.28-.16-.43-.24h-.02c-.14-.09-.28-.17-.42-.25h-.02c-.14-.09-.28-.17-.42-.26h0c-6.72-4.11-11.42-10.95-13.62-17.02Z"/>
            <path class="cls-5" d="M105.27,119.93c0-.27-.01-1.4.13-2.89.1-.99.2-2.02.57-3.26.38-1.3.89-2.25,1.01-2.47,1.48-2.58,7.96-2.57,19.31-1.69,3.07.24,5.66.48,7.56.66-.82.73-2.05,1.82-3.57,3.14-2.39,2.08-3.98,3.33-4.4,3.75-3.78,3.83-5.83,7.77-6.93,10.36l-.15.31v.03c-.1.19-.19.37-.28.56l-.02.04c-.09.19-.17.37-.25.56l-.02.04c-.08.19-.17.38-.25.58-.08.2-.16.39-.25.6v.02c-.16.39-.32.79-.46,1.19v.03c-.08.19-.15.39-.21.59v.04c-.08.19-.14.39-.2.58v.04c-.07.19-.13.39-.19.58v.04c-.07.2-.13.39-.18.59v.03c-.06.2-.11.4-.17.6v.03c-.06.2-.11.4-.16.62-.05.2-.09.4-.14.62-.04.2-.08.4-.12.6v.05c-.05.2-.08.4-.11.6v.03c-.04.2-.07.4-.1.6v.04c-.03.2-.06.4-.08.6v.04c-.03.2-.05.4-.07.6v.04c-.02.2-.04.4-.05.6,0,0,0,.03,0,.04.06.65.12,1.3.2,1.94-1.46-.11-2.93-.24-4.4-.4-1.48-.16-2.77-.76-3.71-1.67-.91-.89-1.5-2.09-1.61-3.49-.47-5.58-.7-10.85-.7-16.13Z"/>
            <path class="cls-5" d="M137.14,94.49c0,.27-.01,1.4.13,2.89.1.99.2,2.02.57,3.26.38,1.3.89,2.25,1.01,2.47,1.48,2.58,7.96,2.57,19.31,1.69,3.07-.24,5.66-.48,7.56-.66-.82-.73-2.05-1.82-3.57-3.14-2.39-2.08-3.98-3.33-4.4-3.75-3.78-3.83-5.83-7.77-6.93-10.36l-.15-.31v-.03c-.1-.19-.19-.37-.28-.56l-.02-.04c-.09-.19-.17-.37-.25-.56l-.02-.04c-.08-.19-.17-.38-.25-.58-.08-.2-.16-.39-.25-.6v-.02c-.16-.39-.32-.79-.46-1.19v-.03c-.08-.19-.15-.39-.21-.59v-.04c-.08-.19-.14-.39-.2-.58v-.04c-.07-.19-.13-.39-.19-.58v-.04c-.07-.2-.13-.39-.18-.59v-.03c-.06-.2-.11-.4-.17-.6v-.03c-.06-.2-.11-.4-.16-.62-.05-.2-.09-.4-.14-.62-.04-.2-.08-.4-.12-.6v-.05c-.05-.2-.08-.4-.11-.6v-.03c-.04-.2-.07-.4-.1-.6v-.04c-.03-.2-.06-.4-.08-.6v-.04c-.03-.2-.05-.4-.07-.6v-.04c-.02-.2-.04-.4-.05-.6,0,0,0-.03,0-.04.06-.65.12-1.3.2-1.94-1.46.11-2.93.24-4.4.4-1.48.16-2.77.76-3.71,1.67-.91.89-1.5,2.09-1.61,3.49-.47,5.58-.7,10.85-.7,16.13Z"/>
          </g>
        </g>
      </g>
    </g>
  </g>
</svg>