<?xml version="1.0" encoding="UTF-8"?>
<svg id="b" data-name="Layer 2" xmlns="http://www.w3.org/2000/svg" width="425.218" height="592.642" viewBox="0 0 425.218 592.642">
  <g id="c" data-name="5 SECTION">
    <g opacity=".08">
      <path d="M203.255,316.737c21.147,9.956,30.583,36.181,20.626,57.328-9.956,21.147-36.182,30.583-57.328,20.626-21.147-9.956-30.583-36.181-20.627-57.328,9.957-21.147,36.182-30.583,57.329-20.626ZM250.72,208.39c13.685-2.169,24.711-4.069,28.811-12.777,4.295-9.122.979-19.295-16.851-27.689-15.757-7.418-35.833-6.738-53.69,1.063l-18.333-64.354c34.911-14.971,75.573-12.036,109.575,3.972,54.734,25.77,76.242,68.315,57.5,108.123-16.203,34.416-44.769,40.217-69.456,45.311-17.759,3.289-33.273,6.116-39.521,19.385-3.319,7.05-3.345,14.636-1.589,19.515l-61.787-11.866c-3.388-13.246-2.312-28.443,5.106-44.2,13.471-28.611,40.011-33.339,60.234-36.481Z" fill="#262626" stroke-width="0"/>
    </g>
    <g opacity=".08">
      <path d="M105.886,217.947c7.725-4.107,13.917-7.509,14.575-13.55.689-6.329-3.381-11.721-15.751-13.068-10.932-1.189-22.778,3.342-31.835,11.671l-24.172-34.651c17.765-16.114,42.645-22.72,66.235-20.151,37.974,4.135,59.559,25.114,56.552,52.731-2.6,23.878-18.461,33.213-32.153,41.328-9.926,5.614-18.608,10.49-19.61,19.696-.533,4.891,1.012,9.425,3.062,11.978l-39.327,5.615c-4.746-7.212-7.227-16.506-6.037-27.438,2.162-19.851,17.035-28.128,28.462-34.161ZM99.819,292.388c14.671,1.598,25.695,15.314,24.098,29.986s-15.315,25.695-29.986,24.098c-14.671-1.597-25.696-15.314-24.098-29.986,1.597-14.672,15.315-25.695,29.987-24.098Z" fill="#262626" stroke-width="0"/>
    </g>
  </g>
</svg>