<?xml version="1.0" encoding="UTF-8"?>
<svg id="b" data-name="Layer 2" xmlns="http://www.w3.org/2000/svg" width="270.063" height="182.831" viewBox="0 0 270.063 182.831">
  <g id="c" data-name="5 SECTION">
    <g>
      <path d="M241.396,175.856c-.06-.867.273-1.516.338-1.639.467-.875.972-1.867,1.667-3.364,2.188-4.875,4.54-10.897,6.639-18.005,2.08-7.05,3.646-15.353,4.813-24.467,1.119-9.121,1.736-19.151.895-29.744-.436-5.286-1.232-10.713-2.674-16.114-1.439-5.39-3.481-10.792-6.508-15.76-3.005-4.968-7.008-9.481-11.94-12.939-4.922-3.452-10.706-5.896-16.786-7.335-6.096-1.443-12.522-1.895-18.953-1.514-6.433.386-12.896,1.606-19.116,3.698-6.213,2.092-12.196,5.088-17.443,9.101-2.617,2.008-5.048,4.271-7.16,6.801-.503.647-1.042,1.279-1.517,1.938-.452.668-.924,1.322-1.309,2.039-.836,1.391-1.481,2.892-2.037,4.413-1.035,3.053-1.571,6.351-.957,9.406.311,1.507.844,2.975,1.788,4.146l.324.46.403.394c.275.256.515.547.812.78.634.416,1.206.925,1.926,1.207,2.619,1.464,5.956,1.127,8.808-.085,1.435-.612,2.786-1.447,3.939-2.486,1.142-1.014,2.155-2.301,3.024-3.626,1.73-2.68,2.853-5.75,3.39-8.921.287-1.582.41-3.198.359-4.798.08-1.6-.205-3.204-.365-4.803-1.096-6.382-3.647-12.49-6.774-18.152-3.177-5.655-6.931-10.931-11.03-15.786-2.089-2.39-4.204-4.741-6.485-6.865-.557-.547-1.124-1.078-1.713-1.577-.587-.502-1.148-1.034-1.752-1.508-1.225-.925-2.381-1.929-3.669-2.748-5.017-3.455-10.467-6.117-16.076-7.975-5.602-1.885-11.312-3.088-16.947-3.801-11.29-1.396-22.239-.977-32.328.33-20.235,2.627-37.105,8.298-49.742,13.308-6.338,2.505-11.607,4.986-15.812,7.004-1.042.525-2.02,1.019-2.932,1.479-.878.449-1.916.966-2.103,1.102-.743.451-1.347.837-1.806,1.154-.704.486-2.615,1.578-3.696.802-1.075-.77-1.236-3.368-.141-4.833.527-.707,1.239-.956,1.354-1.036.349-.246.85-.564,1.495-.951.161-.096.332-.197.51-.302.09-.051.183-.102.278-.155.192-.097.389-.197.59-.298.815-.407,1.698-.849,2.649-1.325,3.809-1.894,8.771-4.176,14.8-6.654,6.029-2.476,13.14-5.124,21.278-7.583,2.04-.596,4.124-1.244,6.293-1.801,1.081-.289,2.176-.582,3.283-.878,1.115-.268,2.243-.539,3.384-.814,2.275-.577,4.638-1.019,7.033-1.543,2.415-.43,4.867-.938,7.398-1.294,5.043-.808,10.324-1.4,15.81-1.704,5.484-.309,11.176-.339,17.021.082,11.646.847,24.109,3.49,35.695,9.769,5.742,3.139,11.192,7.384,15.797,12.202,4.644,4.808,8.89,10.055,12.618,15.801l1.389,2.165c.459.726.874,1.485,1.314,2.228.895,1.476,1.685,3.029,2.483,4.583.819,1.539,1.475,3.19,2.219,4.788l.948,2.502c.325.831.632,1.671.872,2.549l.776,2.606c.218.888.392,1.798.587,2.698l.283,1.355.166,1.399c.096.937.234,1.865.287,2.814-.008,1.924.085,3.857-.194,5.759-.237,1.908-.637,3.81-1.222,5.68-1.18,3.739-3.129,7.328-5.939,10.342-1.509,1.587-3.24,2.887-5.145,3.867-1.901.987-3.966,1.696-6.197,1.983-2.229.299-4.603.166-7.041-.733l-1.548-.742-.766-.386c-.245-.153-.482-.324-.723-.489-.477-.335-.956-.667-1.417-1.025-.431-.41-.856-.829-1.273-1.254-1.58-1.763-2.826-3.922-3.366-6.124-.57-2.185-.785-4.399-.597-6.467.014-.53.075-1.042.157-1.547.077-.507.14-1.021.236-1.52.236-.98.425-1.984.756-2.922.565-1.924,1.394-3.723,2.305-5.481.94-1.71,2.117-3.471,3.307-4.884,1.188-1.483,2.468-2.854,3.807-4.165,5.378-5.225,11.746-9.116,18.397-11.948,6.667-2.828,13.658-4.621,20.698-5.493,7.041-.862,14.155-.806,21.1.319,3.471.566,6.898,1.404,10.223,2.561,3.334,1.177,6.49,2.594,9.555,4.379,6.089,3.564,11.225,8.546,15.021,14.133,3.824,5.591,6.398,11.692,8.166,17.749,1.764,6.071,2.756,12.13,3.289,18.021,1.031,11.798.323,22.937-.979,33.14-.661,5.107-1.484,9.992-2.453,14.656-.488,2.336-1.004,4.605-1.61,6.868-.604,2.203-1.236,4.333-1.893,6.4-1.323,4.128-2.74,7.984-4.206,11.552-.373.889-.741,1.764-1.102,2.624-.22.487-.436.965-.648,1.436-.384.809-.755,1.589-1.112,2.34-.373.788-1.01,3.014-2.343,3.107-1.313.088-3.07-1.86-3.199-3.653Z" fill="#414141" stroke-width="0"/>
      <path d="M236.37,147.868c1.021-.182,1.998.502,2.179,1.525l5.009,28.325,23.549-16.517c.85-.596,2.025-.391,2.619.459.594.85.382,2.027-.459,2.619l-25.966,18.212c-.526.369-1.204.444-1.798.198-.594-.246-1.021-.778-1.133-1.41l-5.523-31.232c-.064-.364-.018-.725.114-1.044.237-.574.754-1.017,1.411-1.135Z" fill="#414141" stroke-width="0"/>
    </g>
  </g>
</svg>