<?xml version="1.0" encoding="UTF-8"?>
<svg id="Layer_2" data-name="Layer 2" xmlns="http://www.w3.org/2000/svg" viewBox="0 0 208.32 197.61">
  <defs>
    <style>
      .cls-1 {
        font-family: AvenirNext-Bold, 'Avenir Next';
        font-size: 13.49px;
        font-weight: 700;
      }

      .cls-1, .cls-2, .cls-3 {
        fill: #414141;
      }

      .cls-4 {
        fill: #0067a6;
      }

      .cls-4, .cls-5, .cls-6, .cls-7, .cls-3, .cls-8 {
        stroke-width: 0px;
      }

      .cls-9 {
        letter-spacing: -.01em;
      }

      .cls-10 {
        letter-spacing: -.01em;
      }

      .cls-5 {
        fill: #d1d1d1;
      }

      .cls-11 {
        letter-spacing: 0em;
      }

      .cls-6 {
        fill: #8dbb22;
      }

      .cls-7 {
        fill: #1995b8;
      }

      .cls-2 {
        font-family: AvenirNext-Medium, 'Avenir Next';
        font-size: 11.8px;
        font-weight: 500;
      }

      .cls-8 {
        fill: #fff;
      }
    </style>
  </defs>
  <g id="Layer_1-2" data-name="Layer 1">
    <g>
      <rect class="cls-3" width="208.32" height="197.61" rx="29.33" ry="29.33"/>
      <g>
        <path class="cls-8" d="M115.99,27.73c-3.85-.64-7.8-.97-11.83-.97-39.79,0-72.05,32.26-72.05,72.05s32.26,72.05,72.05,72.05,72.05-32.26,72.05-72.05c0-5.14-.54-10.15-1.56-14.99-19.55-18.7-39.1-37.39-58.65-56.09Z"/>
        <path class="cls-5" d="M174.56,83.69c-19.55-18.7-39.1-37.39-58.65-56.09,6.1,28.81,29.4,51.26,58.65,56.09Z"/>
        <g>
          <g>
            <path class="cls-6" d="M93.36,110.15c3.64.18,7.22.27,10.8.27,6.22,0,12.43-.27,18.99-.81,1.67-.14,3.11-.82,4.17-1.88,1.07-1.07,1.76-2.54,1.92-4.22.54-5.95.87-11.9.9-17.85.02-4.1-.11-8.2-.4-12.32-.2.06-.4.13-.61.19h-.04c-.3.11-.59.21-.89.31h0s-.01,0-.01,0c-.29.1-.59.21-.88.32h0s0,0,0,0c-.29.11-.57.22-.86.33h-.02s-.02.02-.02.02c-.28.11-.57.23-.85.34h-.03c-.28.13-.56.25-.84.38h-.01c-.28.13-.56.26-.84.39l-.03.02c-.27.13-.55.26-.82.39h-.03c-.27.15-.54.28-.81.42l-.03.02c-.27.14-.54.28-.81.42h-.01c-.27.15-.53.3-.8.45l-.03.02c-.26.15-.52.3-.78.45l-.03.02c-.26.15-.52.31-.78.47h0c-12.58,7.7-21.39,20.5-25.51,31.86Z"/>
            <path class="cls-4" d="M78.22,88.28c.1,5.08.4,10.15.87,15.24.15,1.68.85,3.15,1.92,4.22,1.06,1.06,2.5,1.74,4.17,1.88,2.58.21,5.1.38,7.59.51-1.82-7.7-6.84-14.96-14.55-21.84Z"/>
            <path class="cls-7" d="M104.16,60.93c-6.22,0-12.43.27-18.99.81-1.65.14-3.07.81-4.11,1.86-1.08,1.08-1.78,2.56-1.97,4.27-.66,5.95-.93,11.89-.9,17.8,0,.45,0,.91.01,1.36,6.05-.16,10.71,2.15,13.96,6.93,4.34-6.05,12.05-13,20.97-17.28h0s.36-.17.36-.17l.03-.02c.22-.1.44-.2.66-.3l.05-.02c.22-.1.44-.19.66-.29l.05-.02c.22-.1.45-.19.68-.28h.01c.23-.1.46-.19.69-.28h.01s.02-.01.02-.01c.46-.18.93-.36,1.4-.52h.03c.23-.09.46-.17.69-.25h.04c.23-.09.46-.16.68-.23l.05-.02c.23-.07.46-.14.68-.21h.05c.23-.08.46-.15.69-.21h.03c.23-.07.47-.13.7-.19h.04c.23-.07.47-.12.7-.18h.01s.02,0,.02,0c.24-.05.48-.11.71-.15h.01c.23-.05.47-.1.71-.14h.05c.23-.05.47-.09.7-.13h.04c.23-.04.47-.08.7-.11h.05c.23-.04.47-.07.7-.1h.04c.24-.03.47-.06.71-.08h.05c.24-.03.47-.04.71-.06h.03s.01,0,.02,0c.77.07,1.53.14,2.28.23-.13-1.69-.28-3.37-.47-5.06-.19-1.71-.89-3.19-1.97-4.27-1.05-1.05-2.46-1.72-4.11-1.86-6.57-.54-12.78-.81-18.99-.81Z"/>
          </g>
          <text class="cls-1" transform="translate(66.52 129.16)"><tspan x="0" y="0">CHEC</tspan><tspan class="cls-10" x="37.26" y="0">K</tspan><tspan class="cls-11" x="46.69" y="0">AR</tspan><tspan class="cls-10" x="65.46" y="0">K</tspan></text>
          <text class="cls-2" transform="translate(78.46 142.45)"><tspan class="cls-9" x="0" y="0">C</tspan><tspan x="8.21" y="0">OURIER</tspan></text>
        </g>
      </g>
    </g>
  </g>
</svg>