<?xml version="1.0" encoding="UTF-8"?>
<svg xmlns="http://www.w3.org/2000/svg" version="1.1" viewBox="0 0 208.3 197.6">
  <defs>
    <style>
      .cls-1 {
        fill: #414141;
      }

      .cls-2 {
        isolation: isolate;
      }

      .cls-3 {
        fill: #fff;
      }

      .cls-4 {
        fill: #0067a6;
      }

      .cls-5 {
        fill: #1995b8;
      }

      .cls-6 {
        fill: #8dbb22;
      }

      .cls-7 {
        fill: #d1d1d1;
      }
    </style>
  </defs>
  <!-- Generator: Adobe Illustrator 28.6.0, SVG Export Plug-In . SVG Version: 1.2.0 Build 709)  -->
  <g>
    <g id="Layer_2">
      <g id="Layer_1-2">
        <g>
          <rect class="cls-1" y="0" width="208.3" height="197.6" rx="29.3" ry="29.3"/>
          <g>
            <path class="cls-3" d="M116,27.7c-3.8-.6-7.8-1-11.8-1-39.8,0-72.1,32.3-72.1,72.1s32.3,72.1,72.1,72.1,72-32.3,72-72.1-.5-10.2-1.6-15c-19.6-18.7-39.1-37.4-58.7-56.1h0Z"/>
            <path class="cls-7" d="M174.6,83.7c-19.6-18.7-39.1-37.4-58.7-56.1,6.1,28.8,29.4,51.3,58.7,56.1Z"/>
            <g>
              <g>
                <path class="cls-6" d="M93.4,110.2c3.6.2,7.2.3,10.8.3,6.2,0,12.4-.3,19-.8,1.7-.1,3.1-.8,4.2-1.9s1.8-2.5,1.9-4.2c.5-5.9.9-11.9.9-17.8,0-4.1-.1-8.2-.4-12.3-.2,0-.4.1-.6.2h0c-.3.1-.6.2-.9.3h0c-.3,0-.6.2-.9.3h0c-.3.1-.6.2-.9.3h0c-.3.1-.6.2-.8.4h0c-.3.1-.6.2-.8.4h0c-.3.1-.6.3-.8.4h0c-.3.1-.6.3-.8.4h0c-.3.2-.5.3-.8.4h0c-.3.2-.5.3-.8.4h0c-.3.2-.5.3-.8.4h0c-.3.2-.5.3-.8.5h0c-.3.2-.5.3-.8.5h0c-12.6,7.7-21.4,20.5-25.5,31.9h0Z"/>
                <path class="cls-4" d="M78.2,88.3c0,5.1.4,10.2.9,15.2.2,1.7.8,3.2,1.9,4.2s2.5,1.7,4.2,1.9c2.6.2,5.1.4,7.6.5-1.8-7.7-6.8-15-14.6-21.8h0Z"/>
                <path class="cls-5" d="M104.2,60.9c-6.2,0-12.4.3-19,.8-1.7.1-3.1.8-4.1,1.9-1.1,1.1-1.8,2.6-2,4.3-.7,5.9-.9,11.9-.9,17.8,0,.4,0,.9,0,1.4,6.1-.2,10.7,2.2,14,6.9,4.3-6.1,12.1-13,21-17.3h0l.4-.2h0c.2-.1.4-.2.7-.3h0c.2-.1.4-.2.7-.3h0c.2-.1.4-.2.7-.3h0c.2,0,.5-.2.7-.3h0c.5-.2.9-.4,1.4-.5h0c.2,0,.5-.2.7-.2h0c.2,0,.5-.2.7-.2h0c.2,0,.5-.2.7-.2h0c.2,0,.5-.2.7-.2h0c.2,0,.5-.1.7-.2h0c.2,0,.5-.1.7-.2h0c.2,0,.5-.1.7-.2h0c.2,0,.5,0,.7-.1h0c.2,0,.5,0,.7-.1h0c.2,0,.5,0,.7-.1h0c.2,0,.5,0,.7,0h0c.2,0,.5,0,.7,0h0c.2,0,.5,0,.7,0h0c.8,0,1.5.1,2.3.2-.1-1.7-.3-3.4-.5-5.1-.2-1.7-.9-3.2-2-4.3-1.1-1-2.5-1.7-4.1-1.9-6.6-.5-12.8-.8-19-.8h0Z"/>
              </g>
              <g class="cls-2">
                <g class="cls-2">
                  <path class="cls-1" d="M74.3,129c-.6.3-1.3.4-2.1.4s-1.4-.1-2-.4c-.6-.2-1.2-.6-1.6-1-.5-.4-.8-1-1.1-1.6-.3-.6-.4-1.3-.4-2.1s.1-1.5.4-2.1c.3-.6.6-1.1,1.1-1.6.5-.4,1-.8,1.6-1,.6-.2,1.3-.4,2-.4s1.3.1,2,.4c.7.2,1.2.6,1.6,1l-1.6,1.6c-.2-.3-.5-.5-.9-.7-.4-.1-.7-.2-1.1-.2s-.8,0-1.1.2c-.3.1-.6.4-.9.6-.2.3-.4.6-.6.9-.1.4-.2.7-.2,1.2s0,.8.2,1.2c.1.4.3.7.6.9s.5.5.9.6c.3.1.7.2,1.1.2s.9,0,1.2-.3c.3-.2.6-.4.8-.7l1.6,1.5c-.4.5-.9.9-1.6,1.2Z"/>
                  <path class="cls-1" d="M82.9,129.2v-4h-3.7v4h-2.3v-9.6h2.3v3.6h3.7v-3.6h2.3v9.6h-2.3Z"/>
                  <path class="cls-1" d="M87.2,129.2v-9.6h6.4v1.9h-4.2v1.8h4v1.8h-4v2h4.4v2h-6.7Z"/>
                  <path class="cls-1" d="M102.2,129c-.6.3-1.3.4-2.1.4s-1.4-.1-2-.4c-.6-.2-1.2-.6-1.6-1-.5-.4-.8-1-1.1-1.6-.3-.6-.4-1.3-.4-2.1s.1-1.5.4-2.1c.3-.6.6-1.1,1.1-1.6.5-.4,1-.8,1.6-1,.6-.2,1.3-.4,2-.4s1.3.1,2,.4c.7.2,1.2.6,1.6,1l-1.6,1.6c-.2-.3-.5-.5-.9-.7-.4-.1-.7-.2-1.1-.2s-.8,0-1.1.2c-.3.1-.6.4-.9.6-.2.3-.4.6-.6.9-.1.4-.2.7-.2,1.2s0,.8.2,1.2c.1.4.3.7.6.9s.5.5.9.6c.3.1.7.2,1.1.2s.9,0,1.2-.3c.3-.2.6-.4.8-.7l1.6,1.5c-.4.5-.9.9-1.6,1.2Z"/>
                </g>
                <g class="cls-2">
                  <path class="cls-1" d="M110.6,129.2l-3.5-4.4h0v4.4h-2.3v-9.6h2.3v3.9h0l3.4-3.9h2.9l-4.1,4.4,4.4,5.2h-3Z"/>
                </g>
                <g class="cls-2">
                  <path class="cls-1" d="M120.7,129.2l-.7-1.9h-3.7l-.7,1.9h-2.5l4-9.6h2.2l4,9.6h-2.6ZM118.1,122.2l-1.2,3.3h2.4l-1.2-3.3Z"/>
                  <path class="cls-1" d="M129.1,129.2l-2.1-3.8h-.8v3.8h-2.3v-9.6h3.6c.5,0,.9,0,1.3.1.4,0,.8.3,1.2.5.3.2.6.5.8.9s.3.8.3,1.4-.2,1.2-.5,1.6c-.4.4-.8.8-1.5.9l2.5,4.1h-2.7ZM129,122.5c0-.2,0-.4-.1-.5,0-.1-.2-.2-.4-.3-.1,0-.3-.1-.5-.2-.2,0-.4,0-.5,0h-1.2v2.2h1.1c.2,0,.4,0,.6,0s.4,0,.5-.2c.2,0,.3-.2.4-.4.1-.2.2-.4.2-.6Z"/>
                </g>
                <g class="cls-2">
                  <path class="cls-1" d="M138.8,129.2l-3.5-4.4h0v4.4h-2.3v-9.6h2.3v3.9h0l3.4-3.9h2.9l-4.1,4.4,4.4,5.2h-3Z"/>
                </g>
              </g>
              <g class="cls-2">
                <g class="cls-2">
                  <path class="cls-1" d="M86.6,141.2c-.3.4-.8.8-1.3,1.1-.5.3-1.2.4-1.9.4s-1.2-.1-1.8-.3c-.5-.2-1-.5-1.4-.9-.4-.4-.7-.9-.9-1.4s-.3-1.1-.3-1.8.1-1.2.3-1.8.5-1,.9-1.4.9-.7,1.4-.9c.5-.2,1.1-.3,1.8-.3s.6,0,.9,0c.3,0,.6.1.8.2s.5.2.7.4.4.3.6.6l-.9.7c-.2-.3-.5-.5-.9-.7s-.8-.3-1.2-.3-.9,0-1.3.3c-.4.2-.7.4-1,.7s-.5.7-.6,1.1c-.1.4-.2.8-.2,1.3s0,.9.2,1.3.4.8.6,1.1c.3.3.6.5,1,.7.4.2.8.3,1.3.3s.9,0,1.3-.3c.4-.2.7-.5,1-.8l.9.6Z"/>
                </g>
                <g class="cls-2">
                  <path class="cls-1" d="M96.1,138.3c0,.6-.1,1.2-.3,1.8-.2.5-.5,1-.9,1.4-.4.4-.9.7-1.4.9-.5.2-1.1.3-1.8.3s-1.2-.1-1.8-.3c-.5-.2-1-.5-1.4-.9-.4-.4-.7-.9-.9-1.4s-.3-1.1-.3-1.8.1-1.2.3-1.8.5-1,.9-1.4c.4-.4.9-.7,1.4-.9.5-.2,1.1-.3,1.8-.3s1.2.1,1.8.3c.5.2,1,.5,1.4.9.4.4.7.8.9,1.4.2.5.3,1.1.3,1.8ZM94.8,138.3c0-.5,0-.9-.2-1.3-.1-.4-.4-.8-.6-1.1s-.6-.5-1-.7c-.4-.2-.8-.3-1.3-.3s-.9,0-1.3.3c-.4.2-.7.4-1,.7s-.5.7-.6,1.1c-.1.4-.2.8-.2,1.3s0,.9.2,1.3.4.8.6,1.1.6.5,1,.7c.4.2.8.3,1.3.3s.9,0,1.3-.3c.4-.2.7-.4,1-.7s.5-.7.6-1.1.2-.8.2-1.3Z"/>
                  <path class="cls-1" d="M100.9,142.7c-.6,0-1,0-1.4-.3-.4-.2-.7-.4-1-.7-.3-.3-.5-.7-.6-1.1s-.2-.8-.2-1.2v-5.3h1.2v5.2c0,.3,0,.6.1.8s.2.5.3.7c.2.2.4.4.6.5s.6.2,1,.2.7,0,1-.2.5-.3.6-.5c.2-.2.3-.5.3-.7s.1-.6.1-.8v-5.2h1.2v5.3c0,.4,0,.8-.2,1.2s-.3.7-.6,1.1c-.3.3-.6.6-1,.7-.4.2-.9.3-1.4.3Z"/>
                  <path class="cls-1" d="M107.3,142.5h-1.2v-8.4h2.7c.4,0,.8,0,1.1.1.4,0,.7.2,1,.4.3.2.5.4.6.7s.2.7.2,1.1c0,.6-.2,1.1-.6,1.5-.4.4-.9.6-1.5.7l2.3,3.8h-1.4l-2.1-3.7h-1.3v3.7ZM107.3,137.8h1.3c.3,0,.5,0,.8,0,.2,0,.4-.1.6-.2.2-.1.3-.2.4-.4.1-.2.2-.4.2-.6s0-.5-.2-.6c-.1-.2-.2-.3-.4-.4-.2-.1-.4-.2-.6-.2-.2,0-.5,0-.7,0h-1.4v2.7Z"/>
                  <path class="cls-1" d="M114.5,142.5h-1.2v-8.4h1.2v8.4Z"/>
                  <path class="cls-1" d="M117.7,141.4h4.4v1h-5.5v-8.4h5.4v1h-4.2v2.5h3.9v1h-3.9v2.8Z"/>
                  <path class="cls-1" d="M124.8,142.5h-1.2v-8.4h2.7c.4,0,.8,0,1.1.1.4,0,.7.2,1,.4.3.2.5.4.6.7s.2.7.2,1.1c0,.6-.2,1.1-.6,1.5-.4.4-.9.6-1.5.7l2.3,3.8h-1.4l-2.1-3.7h-1.3v3.7ZM124.8,137.8h1.3c.3,0,.5,0,.8,0,.2,0,.4-.1.6-.2.2-.1.3-.2.4-.4.1-.2.2-.4.2-.6s0-.5-.2-.6c-.1-.2-.2-.3-.4-.4-.2-.1-.4-.2-.6-.2-.2,0-.5,0-.7,0h-1.4v2.7Z"/>
                </g>
              </g>
            </g>
          </g>
        </g>
      </g>
    </g>
  </g>
</svg>