<?xml version="1.0" encoding="UTF-8"?>
<svg id="b" data-name="Layer 2" xmlns="http://www.w3.org/2000/svg" width="59.499" height="59.51" viewBox="0 0 59.499 59.51">
  <g id="c" data-name="4 SECTION">
    <path d="M48.345,24.173c0,5.334-1.732,10.262-4.649,14.259l14.713,14.724c1.453,1.453,1.453,3.812,0,5.265-1.453,1.453-3.812,1.453-5.265,0l-14.713-14.724c-3.998,2.929-8.925,4.649-14.259,4.649C10.82,48.345,0,37.526,0,24.173S10.82,0,24.173,0s24.173,10.82,24.173,24.173ZM21.383,34.399c0,1.546,1.243,2.789,2.789,2.789s2.789-1.243,2.789-2.789v-7.438h7.438c1.546,0,2.789-1.243,2.789-2.789s-1.243-2.789-2.789-2.789h-7.438v-7.438c0-1.546-1.243-2.789-2.789-2.789s-2.789,1.243-2.789,2.789v7.438h-7.438c-1.546,0-2.789,1.243-2.789,2.789s1.243,2.789,2.789,2.789h7.438v7.438Z" fill="#e4e4e4" stroke-width="0"/>
  </g>
</svg>